  0
SECTION
  2
HEADER
  9
$ACADVER
  1
AC1015
  9
$ACADMAINTVER
 70
    20
  9
$DWGCODEPAGE
  3
ANSI_1252
  9
$INSBASE
 10
186.5523992958964
 20
62.30590352217427
 30
0.0
  9
$EXTMIN
 10
143.4458297873465
 20
14.75229159997987
 30
0.0
  9
$EXTMAX
 10
225.1256164498268
 20
115.7170783759719
 30
0.0
  9
$LIMMIN
 10
0.0
 20
0.0
  9
$LIMMAX
 10
420.0
 20
297.0
  9
$ORTHOMODE
 70
     0
  9
$REGENMODE
 70
     1
  9
$FILLMODE
 70
     1
  9
$QTEXTMODE
 70
     0
  9
$MIRRTEXT
 70
     1
  9
$LTSCALE
 40
23.1
  9
$ATTMODE
 70
     1
  9
$TEXTSIZE
 40
0.2
  9
$TRACEWID
 40
0.05
  9
$TEXTSTYLE
  7
STANDARD
  9
$CLAYER
  8
0
  9
$CELTYPE
  6
ByLayer
  9
$CECOLOR
 62
   256
  9
$CELTSCALE
 40
1.0
  9
$DISPSILH
 70
     0
  9
$DIMSCALE
 40
1.0
  9
$DIMASZ
 40
2.5
  9
$DIMEXO
 40
2.625
  9
$DIMDLI
 40
15.96
  9
$DIMRND
 40
0.0
  9
$DIMDLE
 40
0.0
  9
$DIMEXE
 40
7.559999999999999
  9
$DIMTP
 40
0.0
  9
$DIMTM
 40
0.0
  9
$DIMTXT
 40
2.5
  9
$DIMCEN
 40
3.779999999999999
  9
$DIMTSZ
 40
0.0
  9
$DIMTOL
 70
     0
  9
$DIMLIM
 70
     0
  9
$DIMTIH
 70
     1
  9
$DIMTOH
 70
     1
  9
$DIMSE1
 70
     0
  9
$DIMSE2
 70
     0
  9
$DIMTAD
 70
     0
  9
$DIMZIN
 70
     0
  9
$DIMBLK
  1

  9
$DIMASO
 70
     1
  9
$DIMSHO
 70
     1
  9
$DIMPOST
  1

  9
$DIMAPOST
  1

  9
$DIMALT
 70
     0
  9
$DIMALTD
 70
     2
  9
$DIMALTF
 40
25.4
  9
$DIMLFAC
 40
1.0
  9
$DIMTOFL
 70
     0
  9
$DIMTVP
 40
0.0
  9
$DIMTIX
 70
     0
  9
$DIMSOXD
 70
     0
  9
$DIMSAH
 70
     0
  9
$DIMBLK1
  1

  9
$DIMBLK2
  1

  9
$DIMSTYLE
  2
STANDARD
  9
$DIMCLRD
 70
     0
  9
$DIMCLRE
 70
     0
  9
$DIMCLRT
 70
     0
  9
$DIMTFAC
 40
1.0
  9
$DIMGAP
 40
0.09
  9
$DIMJUST
 70
     0
  9
$DIMSD1
 70
     0
  9
$DIMSD2
 70
     0
  9
$DIMTOLJ
 70
     1
  9
$DIMTZIN
 70
     0
  9
$DIMALTZ
 70
     0
  9
$DIMALTTZ
 70
     0
  9
$DIMUPT
 70
     0
  9
$DIMDEC
 70
     4
  9
$DIMTDEC
 70
     4
  9
$DIMALTU
 70
     2
  9
$DIMALTTD
 70
     2
  9
$DIMTXSTY
  7
STANDARD
  9
$DIMAUNIT
 70
     0
  9
$DIMADEC
 70
     0
  9
$DIMALTRND
 40
0.0
  9
$DIMAZIN
 70
     0
  9
$DIMDSEP
 70
     0
  9
$DIMATFIT
 70
     3
  9
$DIMFRAC
 70
     0
  9
$DIMLDRBLK
  1

  9
$DIMLUNIT
 70
     2
  9
$DIMLWD
 70
     0
  9
$DIMLWE
 70
     0
  9
$DIMTMOVE
 70
     0
  9
$LUNITS
 70
     2
  9
$LUPREC
 70
     4
  9
$SKETCHINC
 40
0.1
  9
$FILLETRAD
 40
0.0
  9
$AUNITS
 70
     0
  9
$AUPREC
 70
     0
  9
$MENU
  1
acad
  9
$ELEVATION
 40
0.0
  9
$PELEVATION
 40
0.0
  9
$THICKNESS
 40
0.0
  9
$LIMCHECK
 70
     0
  9
$CHAMFERA
 40
0.0
  9
$CHAMFERB
 40
0.0
  9
$CHAMFERC
 40
0.0
  9
$CHAMFERD
 40
0.0
  9
$SKPOLY
 70
     0
  9
$TDCREATE
 40
2454000.495313611
  9
$TDUCREATE
 40
2454000.453646945
  9
$TDUPDATE
 40
2454000.496502245
  9
$TDUUPDATE
 40
2454000.454835579
  9
$TDINDWG
 40
0.0003208333
  9
$TDUSRTIMER
 40
0.0003208333
  9
$USRTIMER
 70
     1
  9
$ANGBASE
 50
0.0
  9
$ANGDIR
 70
     0
  9
$PDMODE
 70
     3
  9
$PDSIZE
 40
1.0
  9
$PLINEWID
 40
0.0
  9
$SPLFRAME
 70
     0
  9
$SPLINETYPE
 70
     6
  9
$SPLINESEGS
 70
     8
  9
$HANDSEED
  5
17E
  9
$SURFTAB1
 70
     6
  9
$SURFTAB2
 70
     6
  9
$SURFTYPE
 70
     6
  9
$SURFU
 70
     6
  9
$SURFV
 70
     6
  9
$UCSBASE
  2

  9
$UCSNAME
  2

  9
$UCSORG
 10
0.0
 20
0.0
 30
0.0
  9
$UCSXDIR
 10
1.0
 20
0.0
 30
0.0
  9
$UCSYDIR
 10
0.0
 20
1.0
 30
0.0
  9
$UCSORTHOREF
  2

  9
$UCSORTHOVIEW
 70
     0
  9
$UCSORGTOP
 10
0.0
 20
0.0
 30
0.0
  9
$UCSORGBOTTOM
 10
0.0
 20
0.0
 30
0.0
  9
$UCSORGLEFT
 10
0.0
 20
0.0
 30
0.0
  9
$UCSORGRIGHT
 10
0.0
 20
0.0
 30
0.0
  9
$UCSORGFRONT
 10
0.0
 20
0.0
 30
0.0
  9
$UCSORGBACK
 10
0.0
 20
0.0
 30
0.0
  9
$PUCSBASE
  2

  9
$PUCSNAME
  2

  9
$PUCSORG
 10
0.0
 20
0.0
 30
0.0
  9
$PUCSXDIR
 10
1.0
 20
0.0
 30
0.0
  9
$PUCSYDIR
 10
0.0
 20
1.0
 30
0.0
  9
$PUCSORTHOREF
  2

  9
$PUCSORTHOVIEW
 70
     0
  9
$PUCSORGTOP
 10
0.0
 20
0.0
 30
0.0
  9
$PUCSORGBOTTOM
 10
0.0
 20
0.0
 30
0.0
  9
$PUCSORGLEFT
 10
0.0
 20
0.0
 30
0.0
  9
$PUCSORGRIGHT
 10
0.0
 20
0.0
 30
0.0
  9
$PUCSORGFRONT
 10
0.0
 20
0.0
 30
0.0
  9
$PUCSORGBACK
 10
0.0
 20
0.0
 30
0.0
  9
$USERI1
 70
     0
  9
$USERI2
 70
     0
  9
$USERI3
 70
     0
  9
$USERI4
 70
     0
  9
$USERI5
 70
     0
  9
$USERR1
 40
0.0
  9
$USERR2
 40
0.0
  9
$USERR3
 40
0.0
  9
$USERR4
 40
0.0
  9
$USERR5
 40
0.0
  9
$WORLDVIEW
 70
     1
  9
$SHADEDGE
 70
     3
  9
$SHADEDIF
 70
    70
  9
$TILEMODE
 70
     1
  9
$MAXACTVP
 70
    16
  9
$PINSBASE
 10
0.0
 20
0.0
 30
0.0
  9
$PLIMCHECK
 70
     0
  9
$PEXTMIN
 10
1.000000000000000E+20
 20
1.000000000000000E+20
 30
1.000000000000000E+20
  9
$PEXTMAX
 10
-1.000000000000000E+20
 20
-1.000000000000000E+20
 30
-1.000000000000000E+20
  9
$PLIMMIN
 10
0.0
 20
0.0
  9
$PLIMMAX
 10
12.0
 20
9.0
  9
$UNITMODE
 70
     0
  9
$VISRETAIN
 70
     0
  9
$PLINEGEN
 70
     1
  9
$PSLTSCALE
 70
     0
  9
$TREEDEPTH
 70
  3020
  9
$CMLSTYLE
  2
Standard
  9
$CMLJUST
 70
     0
  9
$CMLSCALE
 40
1.0
  9
$PROXYGRAPHICS
 70
     0
  9
$MEASUREMENT
 70
     1
  9
$CELWEIGHT
370
    -1
  9
$ENDCAPS
280
     0
  9
$JOINSTYLE
280
     0
  9
$LWDISPLAY
290
     0
  9
$INSUNITS
 70
     4
  9
$HYPERLINKBASE
  1

  9
$STYLESHEET
  1

  9
$XEDIT
290
     1
  9
$CEPSNTYPE
380
     0
  9
$PSTYLEMODE
290
     1
  9
$FINGERPRINTGUID
  2
{7B753A33-FC51-499C-A8A3-50E6BEC8DFF2}
  9
$VERSIONGUID
  2
{1776D109-A370-42F2-AF84-52FEDEB373B1}
  9
$EXTNAMES
290
     1
  9
$PSVPSCALE
 40
0.0
  9
$OLESTARTUP
290
     0
  0
ENDSEC
  0
SECTION
  2
CLASSES
  0
CLASS
  1
ACDBDICTIONARYWDFLT
  2
AcDbDictionaryWithDefault
  3
ObjectDBX Classes
 90
        0
280
     0
281
     0
  0
CLASS
  1
ACDBPLACEHOLDER
  2
AcDbPlaceHolder
  3
ObjectDBX Classes
 90
        0
280
     0
281
     0
  0
CLASS
  1
LAYOUT
  2
AcDbLayout
  3
ObjectDBX Classes
 90
        0
280
     0
281
     0
  0
CLASS
  1
IMAGE
  2
AcDbRasterImage
  3
ISM
 90
    32895
280
     0
281
     1
  0
CLASS
  1
DICTIONARYVAR
  2
AcDbDictionaryVar
  3
ObjectDBX Classes
 90
        0
280
     0
281
     0
  0
CLASS
  1
RASTERVARIABLES
  2
AcDbRasterVariables
  3
ISM
 90
    32768
280
     0
281
     0
  0
CLASS
  1
IMAGEDEF
  2
AcDbRasterImageDef
  3
ISM
 90
    32768
280
     0
281
     0
  0
CLASS
  1
IMAGEDEF_REACTOR
  2
AcDbRasterImageDefReactor
  3
ISM
 90
    32769
280
     0
281
     0
  0
CLASS
  1
IDBUFFER
  2
AcDbIdBuffer
  3
ObjectDBX Classes
 90
    32768
280
     0
281
     0
  0
CLASS
  1
SPATIAL_FILTER
  2
AcDbSpatialFilter
  3
ObjectDBX Classes
 90
    32768
280
     0
281
     0
  0
CLASS
  1
SORTENTSTABLE
  2
AcDbSortentsTable
  3
ObjectDBX Classes
 90
    32768
280
     0
281
     0
  0
CLASS
  1
LAYER_INDEX
  2
AcDbLayerIndex
  3
ObjectDBX Classes
 90
    32768
280
     0
281
     0
  0
CLASS
  1
SPATIAL_INDEX
  2
AcDbSpatialIndex
  3
ObjectDBX Classes
 90
    32768
280
     0
281
     0
  0
CLASS
  1
OBJECT_PTR
  2
CAseDLPNTableRecord
  3
ASE-LPNTableRecord
 90
    32769
280
     0
281
     0
  0
CLASS
  1
PLOTSETTINGS
  2
AcDbPlotSettings
  3
ObjectDBX Classes
 90
    32768
280
     0
281
     0
  0
CLASS
  1
VBA_PROJECT
  2
AcDbVbaProject
  3
acad
 90
    32768
280
     0
281
     0
  0
CLASS
  1
WIPEOUT
  2
AcDbWipeout
  3
"WipeOut|Product Desc: Object Enabler for WipeOut entity^I^I^I^I^I^I|Company: Autodesk, Inc.^I^I^I^I^I^I|WEB Address: www.autodesk.com"
 90
    32895
280
     0
281
     1
  0
CLASS
  1
WIPEOUTVARIABLES
  2
AcDbWipeoutVariables
  3
"WipeOut|Product Desc:     WipeOut Dbx Application|Company:          Autodesk, Inc.|WEB Address:      www.autodesk.com"
 90
    32768
280
     0
281
     0
  0
CLASS
  1
RTEXT
  2
RText
  3
RText|AutoCAD Express Tool|expresstools@autodesk.com
 90
    33791
280
     0
281
     1
  0
CLASS
  1
ARCALIGNEDTEXT
  2
AcDbArcAlignedText
  3
ATEXT|AutoCAD Express Tool|expresstools@autodesk.com
 90
    32768
280
     0
281
     1
  0
CLASS
  1
TABLESTYLE
  2
AcDbTableStyle
  3
ObjectDBX Classes
 90
     2047
280
     0
281
     0
  0
ENDSEC
  0
SECTION
  2
TABLES
  0
TABLE
  2
VPORT
  5
18
330
0
100
AcDbSymbolTable
 70
     3
  0
VPORT
  5
178
330
18
100
AcDbSymbolTableRecord
100
AcDbViewportTableRecord
  2
*Active
 70
     0
 10
0.0
 20
0.0
 11
1.0
 21
1.0
 12
199.7153088261514
 22
83.06355076005894
 13
0.0
 23
0.0
 14
1.0
 24
1.0
 15
0.0
 25
0.0
 16
0.0
 26
0.0
 36
1.0
 17
0.0
 27
0.0
 37
0.0
 40
164.7265977890648
 41
1.251533742331288
 42
50.0
 43
0.0
 44
0.0
 50
0.0
 51
0.0
 71
     0
 72
   100
 73
     1
 74
     1
 75
     0
 76
     0
 77
     0
 78
     0
281
     0
 65
     0
110
0.0
120
0.0
130
0.0
111
1.0
121
0.0
131
0.0
112
0.0
122
1.0
132
0.0
 79
     0
146
0.0
  0
ENDTAB
  0
TABLE
  2
LTYPE
  5
13
330
0
100
AcDbSymbolTable
 70
     2
  0
LTYPE
  5
14
330
13
100
AcDbSymbolTableRecord
100
AcDbLinetypeTableRecord
  2
ByBlock
 70
     0
  3

 72
    65
 73
     0
 40
0.0
  0
LTYPE
  5
15
330
13
100
AcDbSymbolTableRecord
100
AcDbLinetypeTableRecord
  2
ByLayer
 70
     0
  3

 72
    65
 73
     0
 40
0.0
  0
LTYPE
  5
6
330
13
100
AcDbSymbolTableRecord
100
AcDbLinetypeTableRecord
  2
CONTINUOUS
 70
     0
  3
Solid line
 72
    65
 73
     0
 40
0.0
  0
LTYPE
  5
58
330
13
100
AcDbSymbolTableRecord
100
AcDbLinetypeTableRecord
  2
HIDDEN
 70
     0
  3
- - - - - - - - - - - - - - - - - - - -
 72
    65
 73
     2
 40
0.2
 49
0.1
 74
     0
 49
-0.1
 74
     0
  0
ENDTAB
  0
TABLE
  2
LAYER
  5
F
330
0
100
AcDbSymbolTable
 70
     2
  0
LAYER
  5
4
330
F
100
AcDbSymbolTableRecord
100
AcDbLayerTableRecord
  2
0
 70
     0
 62
     7
  6
CONTINUOUS
370
    -3
390
5
  0
LAYER
  5
57
330
F
100
AcDbSymbolTableRecord
100
AcDbLayerTableRecord
  2
DEFAULT_2
 70
     0
 62
     8
  6
HIDDEN
370
    -3
390
5
  0
ENDTAB
  0
TABLE
  2
STYLE
  5
10
330
0
100
AcDbSymbolTable
 70
     1
  0
STYLE
  5
11
330
10
100
AcDbSymbolTableRecord
100
AcDbTextStyleTableRecord
  2
STANDARD
 70
     0
 40
0.0
 41
0.8
 50
0.0
 71
     0
 42
0.2
  3
txt
  4

  0
ENDTAB
  0
TABLE
  2
VIEW
  5
16
330
0
100
AcDbSymbolTable
 70
     0
  0
ENDTAB
  0
TABLE
  2
UCS
  5
17
330
0
100
AcDbSymbolTable
 70
     0
  0
ENDTAB
  0
TABLE
  2
APPID
  5
1A
330
0
100
AcDbSymbolTable
 70
     2
  0
APPID
  5
1B
330
1A
100
AcDbSymbolTableRecord
100
AcDbRegAppTableRecord
  2
ACAD
 70
     0
  0
APPID
  5
16C
330
1A
100
AcDbSymbolTableRecord
100
AcDbRegAppTableRecord
  2
DCO15
 70
     0
  0
ENDTAB
  0
TABLE
  2
DIMSTYLE
  5
1C
330
0
100
AcDbSymbolTable
 70
     1
100
AcDbDimStyleTable
 71
     0
  0
DIMSTYLE
105
27
330
1C
100
AcDbSymbolTableRecord
100
AcDbDimStyleTableRecord
  2
STANDARD
 70
     0
 41
2.5
 47
0.005
 48
0.005
 73
     0
 74
     0
 77
     1
140
2.5
178
     5
271
     3
272
     3
340
11
  0
ENDTAB
  0
TABLE
  2
BLOCK_RECORD
  5
1
330
0
100
AcDbSymbolTable
 70
     0
  0
BLOCK_RECORD
  5
2
330
1
100
AcDbSymbolTableRecord
100
AcDbBlockTableRecord
  2
*MODEL_SPACE
340
8
  0
BLOCK_RECORD
  5
B
330
1
100
AcDbSymbolTableRecord
100
AcDbBlockTableRecord
  2
*PAPER_SPACE
340
E
  0
ENDTAB
  0
ENDSEC
  0
SECTION
  2
BLOCKS
  0
BLOCK
  5
3
330
2
100
AcDbEntity
  8
0
100
AcDbBlockBegin
  2
*MODEL_SPACE
 70
     0
 10
0.0
 20
0.0
 30
0.0
  3
*MODEL_SPACE
  1

  0
ENDBLK
  5
7
330
2
100
AcDbEntity
  8
0
100
AcDbBlockEnd
  0
BLOCK
  5
C
330
B
100
AcDbEntity
 67
     1
  8
0
100
AcDbBlockBegin
  2
*PAPER_SPACE
 70
     0
 10
0.0
 20
0.0
 30
0.0
  3
*PAPER_SPACE
  1

  0
ENDBLK
  5
D
330
B
100
AcDbEntity
 67
     1
  8
0
100
AcDbBlockEnd
  0
ENDSEC
  0
SECTION
  2
ENTITIES
  0
LINE
  5
28
330
2
100
AcDbEntity
  8
0
  6
Continuous
 62
     7
100
AcDbLine
 10
147.7739457495
 20
104.5429614987
 30
0.0
 11
147.6398767803
 21
104.4088925295
 31
0.0
  0
LINE
  5
29
330
2
100
AcDbEntity
  8
0
  6
Continuous
 62
     7
100
AcDbLine
 10
147.7739457506
 20
25.9264262553
 30
0.0
 11
147.6398767801
 21
26.0604952258
 31
0.0
  0
LINE
  5
2A
330
2
100
AcDbEntity
  8
0
  6
Continuous
 62
     7
100
AcDbLine
 10
214.8381093172
 20
15.9061901431
 30
0.0
 11
153.7333192411
 21
15.9061901431
 31
0.0
  0
LINE
  5
2B
330
2
100
AcDbEntity
  8
0
  6
Continuous
 62
     7
100
AcDbLine
 10
153.9317672197
 20
16.1046381217
 30
0.0
 11
214.6396613385
 21
16.1046381217
 31
0.0
  0
LINE
  5
2C
330
2
100
AcDbEntity
  8
0
  6
Continuous
 62
     7
100
AcDbLine
 10
214.6308044679
 20
16.5530031156
 30
0.0
 11
153.9406243305
 21
16.5530031156
 31
0.0
  0
LINE
  5
2D
330
2
100
AcDbEntity
  8
0
  6
Continuous
 62
     7
100
AcDbLine
 10
214.63080399
 20
16.9925109841
 30
0.0
 11
153.9414439574
 21
16.9925109841
 31
0.0
  0
LINE
  5
2E
330
2
100
AcDbEntity
  8
0
  6
Continuous
 62
     7
100
AcDbLine
 10
213.2687656316
 20
18.9463563664
 30
0.0
 11
199.6074129399
 21
18.9463563664
 31
0.0
  0
LINE
  5
2F
330
2
100
AcDbEntity
  8
0
  6
Continuous
 62
     7
100
AcDbLine
 10
197.3840156316
 20
18.9463563664
 30
0.0
 11
185.3974129399
 21
18.9463563664
 31
0.0
  0
LINE
  5
30
330
2
100
AcDbEntity
  8
0
  6
Continuous
 62
     7
100
AcDbLine
 10
183.1740156316
 20
18.9463563664
 30
0.0
 11
171.1874129399
 21
18.9463563664
 31
0.0
  0
LINE
  5
31
330
2
100
AcDbEntity
  8
0
  6
Continuous
 62
     7
100
AcDbLine
 10
168.9640156316
 20
18.9463563664
 30
0.0
 11
155.3026629399
 21
18.9463563664
 31
0.0
  0
LINE
  5
32
330
2
100
AcDbEntity
  8
0
  6
Continuous
 62
     7
100
AcDbLine
 10
199.6074129399
 20
19.0521938776
 30
0.0
 11
197.3840156316
 21
19.0521938776
 31
0.0
  0
LINE
  5
33
330
2
100
AcDbEntity
  8
0
  6
Continuous
 62
     7
100
AcDbLine
 10
185.3974129399
 20
19.0521938776
 30
0.0
 11
183.1740156316
 21
19.0521938776
 31
0.0
  0
LINE
  5
34
330
2
100
AcDbEntity
  8
0
  6
Continuous
 62
     7
100
AcDbLine
 10
171.1874129399
 20
19.0521938776
 30
0.0
 11
168.9640156316
 21
19.0521938776
 31
0.0
  0
LINE
  5
35
330
2
100
AcDbEntity
  8
0
  6
Continuous
 62
     7
100
AcDbLine
 10
155.460855252
 20
19.1045486806
 30
0.0
 11
168.8058233164
 21
19.1045486806
 31
0.0
  0
LINE
  5
36
330
2
100
AcDbEntity
  8
0
  6
Continuous
 62
     7
100
AcDbLine
 10
171.3456052528
 20
19.1045486806
 30
0.0
 11
183.0158233164
 21
19.1045486806
 31
0.0
  0
LINE
  5
37
330
2
100
AcDbEntity
  8
0
  6
Continuous
 62
     7
100
AcDbLine
 10
185.5556052546
 20
19.1045486806
 30
0.0
 11
197.2258233164
 21
19.1045486806
 31
0.0
  0
LINE
  5
38
330
2
100
AcDbEntity
  8
0
  6
Continuous
 62
     7
100
AcDbLine
 10
199.7656052585
 20
19.1045486806
 30
0.0
 11
213.1105733194
 21
19.1045486806
 31
0.0
  0
LINE
  5
39
330
2
100
AcDbEntity
  8
0
  6
Continuous
 62
     7
100
AcDbLine
 10
158.4915710805
 20
100.4186202154
 30
0.0
 11
158.5532755307
 21
100.4937492056
 31
0.0
  0
LINE
  5
3A
330
2
100
AcDbEntity
  8
0
  6
Continuous
 62
     7
100
AcDbLine
 10
168.9640156275
 20
111.5230313891
 30
0.0
 11
168.8058233129
 21
111.3648390745
 31
0.0
  0
LINE
  5
3B
330
2
100
AcDbEntity
  8
0
  6
Continuous
 62
     7
100
AcDbLine
 10
157.0848299555
 20
99.0091967552
 30
0.0
 11
157.0582381909
 21
98.9873339568
 31
0.0
  0
LINE
  5
3C
330
2
100
AcDbEntity
  8
0
  6
Continuous
 62
     7
100
AcDbLine
 10
156.9952989383
 20
98.9353322932
 30
0.0
 11
157.0643667686
 21
98.9873339568
 31
0.0
  0
LINE
  5
3D
330
2
100
AcDbEntity
  8
0
  6
Continuous
 62
     7
100
AcDbLine
 10
157.0685156371
 20
31.4736152757
 30
0.0
 11
156.9951557279
 21
31.5338490628
 31
0.0
  0
LINE
  5
3E
330
2
100
AcDbEntity
  8
0
  6
Continuous
 62
     7
100
AcDbLine
 10
168.8058233129
 20
19.1045486806
 30
0.0
 11
168.9640156275
 21
18.946356366
 31
0.0
  0
LINE
  5
3F
330
2
100
AcDbEntity
  8
0
  6
Continuous
 62
     7
100
AcDbLine
 10
158.5541570011
 20
29.9745308239
 30
0.0
 11
158.5008253732
 21
30.0394666123
 31
0.0
  0
LINE
  5
40
330
2
100
AcDbEntity
  8
0
  6
Continuous
 62
     7
100
AcDbLine
 10
157.0756124531
 20
31.4635859668
 30
0.0
 11
157.0685156371
 21
31.4736152757
 31
0.0
  0
LINE
  5
41
330
2
100
AcDbEntity
  8
0
  6
Continuous
 62
     7
100
AcDbLine
 10
144.798158536
 20
105.2311409374
 30
0.0
 11
144.798158536
 21
25.2382468184
 31
0.0
  0
LINE
  5
42
330
2
100
AcDbEntity
  8
0
  6
Continuous
 62
     7
100
AcDbLine
 10
145.2465235248
 20
25.2471036954
 30
0.0
 11
145.2465235248
 21
105.2222838328
 31
0.0
  0
LINE
  5
43
330
2
100
AcDbEntity
  8
0
  6
Continuous
 62
     7
100
AcDbLine
 10
145.6860313973
 20
25.2474476719
 30
0.0
 11
145.6860313973
 21
105.2219407041
 31
0.0
  0
LINE
  5
44
330
2
100
AcDbEntity
  8
0
  6
Continuous
 62
     7
100
AcDbLine
 10
220.93155179
 20
25.141730185
 30
0.0
 11
220.7949115995
 21
25.141730185
 31
0.0
  0
LINE
  5
45
330
2
100
AcDbEntity
  8
0
  6
Continuous
 62
     7
100
AcDbLine
 10
147.7765169723
 20
25.1417301856
 30
0.0
 11
147.6398767801
 21
25.1417301856
 31
0.0
  0
LINE
  5
46
330
2
100
AcDbEntity
  8
0
  6
Continuous
 62
     7
100
AcDbLine
 10
223.7732700354
 20
25.2471039223
 30
0.0
 11
222.8853971589
 21
25.2471039244
 31
0.0
  0
LINE
  5
47
330
2
100
AcDbEntity
  8
0
  6
Continuous
 62
     7
100
AcDbLine
 10
145.6860313973
 20
25.2470987163
 30
0.0
 11
144.798158536
 21
25.2471036954
 31
0.0
  0
LINE
  5
48
330
2
100
AcDbEntity
  8
0
  6
Continuous
 62
     7
100
AcDbLine
 10
220.7974828208
 20
25.9264262552
 30
0.0
 11
219.4048264652
 21
25.9264262552
 31
0.0
  0
LINE
  5
49
330
2
100
AcDbEntity
  8
0
  6
Continuous
 62
     7
100
AcDbLine
 10
149.1666021062
 20
25.9264262552
 30
0.0
 11
147.7739457485
 21
25.9264262552
 31
0.0
  0
LINE
  5
4A
330
2
100
AcDbEntity
  8
0
  6
Continuous
 62
     7
100
AcDbLine
 10
147.6398767801
 20
26.0604952234
 30
0.0
 11
149.1352468904
 21
26.0604952234
 31
0.0
  0
LINE
  5
4B
330
2
100
AcDbEntity
  8
0
  6
Continuous
 62
     7
100
AcDbLine
 10
219.436181681
 20
26.0604952234
 30
0.0
 11
220.93155179
 21
26.0604952234
 31
0.0
  0
LINE
  5
4C
330
2
100
AcDbEntity
  8
0
  6
Continuous
 62
     7
100
AcDbLine
 10
168.8321359633
 20
26.6075747725
 30
0.0
 11
171.3192926024
 21
26.6075747725
 31
0.0
  0
LINE
  5
4D
330
2
100
AcDbEntity
  8
0
  6
Continuous
 62
     7
100
AcDbLine
 10
183.0421359672
 20
26.6075747725
 30
0.0
 11
185.5292926043
 21
26.6075747725
 31
0.0
  0
LINE
  5
4E
330
2
100
AcDbEntity
  8
0
  6
Continuous
 62
     7
100
AcDbLine
 10
197.252135969
 20
26.6075747725
 30
0.0
 11
199.7392926081
 21
26.6075747725
 31
0.0
  0
LINE
  5
4F
330
2
100
AcDbEntity
  8
0
  6
Continuous
 62
     7
100
AcDbLine
 10
147.6398767801
 20
25.1412450476
 30
0.0
 11
147.6398767801
 21
26.0604952234
 31
0.0
  0
LINE
  5
50
330
2
100
AcDbEntity
  8
0
  6
Continuous
 62
     7
100
AcDbLine
 10
147.6398767746
 20
28.2838925317
 30
0.0
 11
147.6398767746
 21
102.1854952234
 31
0.0
  0
LINE
  5
51
330
2
100
AcDbEntity
  8
0
  6
Continuous
 62
     7
100
AcDbLine
 10
147.6398767815
 20
104.4088925317
 30
0.0
 11
147.6398767815
 21
105.3281531564
 31
0.0
  0
LINE
  5
52
330
2
100
AcDbEntity
  8
0
  6
Continuous
 62
     7
100
AcDbLine
 10
183.1740156313
 20
111.5230313891
 30
0.0
 11
183.0158233168
 21
111.3648390745
 31
0.0
  0
LINE
  5
53
330
2
100
AcDbEntity
  8
0
  6
Continuous
 62
     7
100
AcDbLine
 10
220.9315517969
 20
28.2838925317
 30
0.0
 11
219.4361816814
 21
28.2838925317
 31
0.0
  0
LINE
  5
54
330
2
100
AcDbEntity
  8
0
  6
Continuous
 62
     7
100
AcDbLine
 10
149.135246898
 20
28.2838925317
 30
0.0
 11
147.6398767746
 21
28.2838925317
 31
0.0
  0
LINE
  5
55
330
2
100
AcDbEntity
  8
0
  6
Continuous
 62
     7
100
AcDbLine
 10
147.7661531893
 20
28.4101689504
 30
0.0
 11
149.135246898
 21
28.4101689504
 31
0.0
  0
LINE
  5
56
330
2
100
AcDbEntity
  8
DEFAULT_2
  6
HIDDEN
 62
     8
100
AcDbLine
 10
149.135246898
 20
28.4101689504
 30
0.0
 11
149.1646763992
 21
28.4101689504
 31
0.0
  0
LINE
  5
59
330
2
100
AcDbEntity
  8
0
  6
Continuous
 62
     7
100
AcDbLine
 10
219.4067521802
 20
28.4101689505
 30
0.0
 11
220.805275377
 21
28.4101689505
 31
0.0
  0
LINE
  5
5A
330
2
100
AcDbEntity
  8
0
  6
Continuous
 62
     7
100
AcDbLine
 10
183.0158233168
 20
19.1045486806
 30
0.0
 11
183.1740156313
 21
18.946356366
 31
0.0
  0
LINE
  5
5B
330
2
100
AcDbEntity
  8
0
  6
Continuous
 62
     7
100
AcDbLine
 10
153.0792656316
 20
111.4767722553
 30
0.0
 11
153.0792656316
 21
108.3529112733
 31
0.0
  0
LINE
  5
5C
330
2
100
AcDbEntity
  8
0
  6
Continuous
 62
     7
100
AcDbLine
 10
153.0792656316
 20
22.1164764818
 30
0.0
 11
153.0792656316
 21
18.9926123775
 31
0.0
  0
LINE
  5
5D
330
2
100
AcDbEntity
  8
0
  6
Continuous
 62
     7
100
AcDbLine
 10
153.9406191244
 20
113.4768767659
 30
0.0
 11
153.9406241035
 21
114.3647496334
 31
0.0
  0
LINE
  5
5E
330
2
100
AcDbEntity
  8
0
  6
Continuous
 62
     7
100
AcDbLine
 10
153.9406243305
 20
16.1046381217
 30
0.0
 11
153.9406243249
 21
16.9925109841
 31
0.0
  0
LINE
  5
5F
330
2
100
AcDbEntity
  8
0
  6
Continuous
 62
     7
100
AcDbLine
 10
155.3026629399
 20
18.9463563664
 30
0.0
 11
155.3026629399
 21
22.1164764853
 31
0.0
  0
LINE
  5
60
330
2
100
AcDbEntity
  8
0
  6
Continuous
 62
     7
100
AcDbLine
 10
155.3026629399
 20
108.3529112699
 30
0.0
 11
155.3026629399
 21
111.5230313887
 31
0.0
  0
LINE
  5
61
330
2
100
AcDbEntity
  8
0
  6
Continuous
 62
     7
100
AcDbLine
 10
213.2740369029
 20
36.0541811293
 30
0.0
 11
216.7657142846
 21
36.15974521870001
 31
0.0
  0
LINE
  5
62
330
2
100
AcDbEntity
  8
0
  6
Continuous
 62
     7
100
AcDbLine
 10
220.8259877017
 20
36.05418112920001
 30
0.0
 11
213.2740368999
 21
36.05418112920001
 31
0.0
  0
LINE
  5
63
330
2
100
AcDbEntity
  8
0
  6
Continuous
 62
     7
100
AcDbLine
 10
216.7657142857
 20
36.1597452234
 30
0.0
 11
220.9315517969
 21
36.1597452234
 31
0.0
  0
LINE
  5
64
330
2
100
AcDbEntity
  8
0
  6
Continuous
 62
     7
100
AcDbLine
 10
220.9315517969
 20
39.4996425317
 30
0.0
 11
216.7657142857
 21
39.4996425317
 31
0.0
  0
LINE
  5
65
330
2
100
AcDbEntity
  8
0
  6
Continuous
 62
     7
100
AcDbLine
 10
213.5367482444
 20
39.5972640568
 30
0.0
 11
220.8339302692
 21
39.5972640568
 31
0.0
  0
LINE
  5
66
330
2
100
AcDbEntity
  8
0
  6
Continuous
 62
     7
100
AcDbLine
 10
197.3840156332
 20
111.5230313891
 30
0.0
 11
197.2258233186
 21
111.3648390745
 31
0.0
  0
LINE
  5
67
330
2
100
AcDbEntity
  8
0
  6
Continuous
 62
     7
100
AcDbLine
 10
216.7657142846
 20
39.4996425349
 30
0.0
 11
213.5367482401
 21
39.5972640568
 31
0.0
  0
LINE
  5
68
330
2
100
AcDbEntity
  8
0
  6
Continuous
 62
     7
100
AcDbLine
 10
197.2258233186
 20
19.1045486806
 30
0.0
 11
197.3840156332
 21
18.946356366
 31
0.0
  0
LINE
  5
69
330
2
100
AcDbEntity
  8
0
  6
Continuous
 62
     7
100
AcDbLine
 10
168.8321359633
 20
26.6075747725
 30
0.0
 11
168.9640156275
 21
19.0521938753
 31
0.0
  0
LINE
  5
6A
330
2
100
AcDbEntity
  8
0
  6
Continuous
 62
     7
100
AcDbLine
 10
171.1874129383
 20
111.417193882
 30
0.0
 11
171.3192925988
 21
103.8618131926
 31
0.0
  0
LINE
  5
6B
330
2
100
AcDbEntity
  8
0
  6
Continuous
 62
     7
100
AcDbLine
 10
168.9640156316
 20
111.5230313887
 30
0.0
 11
168.9640156316
 21
111.4171938776
 31
0.0
  0
LINE
  5
6C
330
2
100
AcDbEntity
  8
0
  6
Continuous
 62
     7
100
AcDbLine
 10
168.9640156316
 20
19.0521938776
 30
0.0
 11
168.9640156316
 21
18.9463563664
 31
0.0
  0
LINE
  5
6D
330
2
100
AcDbEntity
  8
0
  6
Continuous
 62
     7
100
AcDbLine
 10
171.1874129399
 20
18.9463563664
 30
0.0
 11
171.1874129399
 21
19.0521938776
 31
0.0
  0
LINE
  5
6E
330
2
100
AcDbEntity
  8
0
  6
Continuous
 62
     7
100
AcDbLine
 10
171.1874129399
 20
111.4171938776
 30
0.0
 11
171.1874129399
 21
111.5230313887
 31
0.0
  0
LINE
  5
6F
330
2
100
AcDbEntity
  8
0
  6
Continuous
 62
     7
100
AcDbLine
 10
168.832135967
 20
103.8618131925
 30
0.0
 11
168.9640156275
 21
111.417193882
 31
0.0
  0
LINE
  5
70
330
2
100
AcDbEntity
  8
0
  6
Continuous
 62
     7
100
AcDbLine
 10
171.1874129383
 20
19.0521938753
 30
0.0
 11
171.3192926024
 21
26.6075747725
 31
0.0
  0
LINE
  5
71
330
2
100
AcDbEntity
  8
0
  6
Continuous
 62
     7
100
AcDbLine
 10
214.6396613449
 20
114.3647496334
 30
0.0
 11
214.8381093228
 21
114.5631976121
 31
0.0
  0
LINE
  5
72
330
2
100
AcDbEntity
  8
0
  6
Continuous
 62
     7
100
AcDbLine
 10
213.268765634
 20
111.5230313891
 30
0.0
 11
213.1105733194
 21
111.3648390745
 31
0.0
  0
LINE
  5
73
330
2
100
AcDbEntity
  8
0
  6
Continuous
 62
     7
100
AcDbLine
 10
214.8381093172
 20
15.9061901431
 30
0.0
 11
214.6396613385
 21
16.1046381217
 31
0.0
  0
LINE
  5
74
330
2
100
AcDbEntity
  8
0
  6
Continuous
 62
     7
100
AcDbLine
 10
213.268765634
 20
18.946356366
 30
0.0
 11
213.1105733194
 21
19.1045486806
 31
0.0
  0
LINE
  5
75
330
2
100
AcDbEntity
  8
0
  6
Continuous
 62
     7
100
AcDbLine
 10
211.5891901034
 20
98.93403189430001
 30
0.0
 11
207.3626590878
 21
94.55743744020001
 31
0.0
  0
LINE
  5
76
330
2
100
AcDbEntity
  8
0
  6
Continuous
 62
     7
100
AcDbLine
 10
205.4813006106
 20
96.1254508999
 30
0.0
 11
210.0174461809
 21
100.506055557
 31
0.0
  0
LINE
  5
77
330
2
100
AcDbEntity
  8
0
  6
Continuous
 62
     7
100
AcDbLine
 10
205.4813006106
 20
34.3439368553
 30
0.0
 11
210.0058082108
 21
29.9746706543
 31
0.0
  0
LINE
  5
78
330
2
100
AcDbEntity
  8
0
  6
Continuous
 62
     7
100
AcDbLine
 10
211.5779870308
 20
31.5468504473
 30
0.0
 11
207.3626590878
 21
35.9119503149
 31
0.0
  0
LINE
  5
79
330
2
100
AcDbEntity
  8
0
  6
Continuous
 62
     7
100
AcDbLine
 10
183.0421359672
 20
26.6075747725
 30
0.0
 11
183.1740156313
 21
19.0521938753
 31
0.0
  0
LINE
  5
7A
330
2
100
AcDbEntity
  8
0
  6
Continuous
 62
     7
100
AcDbLine
 10
183.1740156316
 20
111.5230313887
 30
0.0
 11
183.1740156316
 21
111.4171938776
 31
0.0
  0
LINE
  5
7B
330
2
100
AcDbEntity
  8
0
  6
Continuous
 62
     7
100
AcDbLine
 10
183.1740156316
 20
19.0521938776
 30
0.0
 11
183.1740156316
 21
18.9463563664
 31
0.0
  0
LINE
  5
7C
330
2
100
AcDbEntity
  8
0
  6
Continuous
 62
     7
100
AcDbLine
 10
183.0421359708
 20
103.8618131926
 30
0.0
 11
183.1740156313
 21
111.417193882
 31
0.0
  0
LINE
  5
7D
330
2
100
AcDbEntity
  8
0
  6
Continuous
 62
     7
100
AcDbLine
 10
223.9373507062
 20
105.3952216207
 30
0.0
 11
223.7732700354
 21
105.2311409498
 31
0.0
  0
LINE
  5
7E
330
2
100
AcDbEntity
  8
0
  6
Continuous
 62
     7
100
AcDbLine
 10
220.9315517911
 20
102.1854952187
 30
0.0
 11
220.8052753771
 21
102.0592188047
 31
0.0
  0
LINE
  5
7F
330
2
100
AcDbEntity
  8
0
  6
Continuous
 62
     7
100
AcDbLine
 10
147.6398767803
 20
28.2838925364
 30
0.0
 11
147.7661531943
 21
28.4101689504
 31
0.0
  0
LINE
  5
80
330
2
100
AcDbEntity
  8
0
  6
Continuous
 62
     7
100
AcDbLine
 10
144.6340778652
 20
25.074166147
 30
0.0
 11
144.798158536
 21
25.2382468184
 31
0.0
  0
LINE
  5
81
330
2
100
AcDbEntity
  8
0
  6
Continuous
 62
     7
100
AcDbLine
 10
216.7624644975
 20
64.0520709342
 30
0.0
 11
220.8257142889
 21
64.12299522319999
 31
0.0
  0
LINE
  5
82
330
2
100
AcDbEntity
  8
0
  6
Continuous
 62
     7
100
AcDbLine
 10
220.8606275011
 20
64.0520709331
 30
0.0
 11
216.7624644274
 21
64.0520709331
 31
0.0
  0
LINE
  5
83
330
2
100
AcDbEntity
  8
0
  6
Continuous
 62
     7
100
AcDbLine
 10
220.8257142857
 20
64.12299522339999
 30
0.0
 11
220.9315517969
 21
64.12299522339999
 31
0.0
  0
LINE
  5
84
330
2
100
AcDbEntity
  8
DEFAULT_2
  6
HIDDEN
 62
     8
100
AcDbLine
 10
149.6433411424
 20
65.23470075929999
 30
0.0
 11
151.8316441703
 21
65.2346938798
 31
0.0
  0
LINE
  5
85
330
2
100
AcDbEntity
  8
0
  6
Continuous
 62
     7
100
AcDbLine
 10
223.7732700354
 20
25.2382468184
 30
0.0
 11
223.9373507062
 21
25.074166147
 31
0.0
  0
LINE
  5
86
330
2
100
AcDbEntity
  8
0
  6
Continuous
 62
     7
100
AcDbLine
 10
220.9315517911
 20
28.2838925364
 30
0.0
 11
220.805275377
 21
28.4101689505
 31
0.0
  0
LINE
  5
87
330
2
100
AcDbEntity
  8
0
  6
Continuous
 62
     7
100
AcDbLine
 10
147.7661531943
 20
102.0592188047
 30
0.0
 11
147.6398767803
 21
102.1854952187
 31
0.0
  0
LINE
  5
88
330
2
100
AcDbEntity
  8
0
  6
Continuous
 62
     7
100
AcDbLine
 10
144.798158536
 20
105.2311409374
 30
0.0
 11
144.6340778652
 21
105.3952216081
 31
0.0
  0
LINE
  5
89
330
2
100
AcDbEntity
  8
0
  6
Continuous
 62
     7
100
AcDbLine
 10
185.3974129401
 20
111.417193882
 30
0.0
 11
185.5292926006
 21
103.8618131926
 31
0.0
  0
LINE
  5
8A
330
2
100
AcDbEntity
  8
0
  6
Continuous
 62
     7
100
AcDbLine
 10
185.3974129399
 20
18.9463563664
 30
0.0
 11
185.3974129399
 21
19.0521938776
 31
0.0
  0
LINE
  5
8B
330
2
100
AcDbEntity
  8
0
  6
Continuous
 62
     7
100
AcDbLine
 10
185.3974129399
 20
111.4171938776
 30
0.0
 11
185.3974129399
 21
111.5230313887
 31
0.0
  0
LINE
  5
8C
330
2
100
AcDbEntity
  8
0
  6
Continuous
 62
     7
100
AcDbLine
 10
185.3974129401
 20
19.0521938753
 30
0.0
 11
185.5292926043
 21
26.6075747725
 31
0.0
  0
LINE
  5
8D
330
2
100
AcDbEntity
  8
0
  6
Continuous
 62
     7
100
AcDbLine
 10
156.982238468
 20
31.5353558608
 30
0.0
 11
161.2087694836
 21
35.9119503149
 31
0.0
  0
LINE
  5
8E
330
2
100
AcDbEntity
  8
0
  6
Continuous
 62
     7
100
AcDbLine
 10
220.9315517969
 20
66.3463925317
 30
0.0
 11
220.8257142857
 21
66.3463925317
 31
0.0
  0
LINE
  5
8F
330
2
100
AcDbEntity
  8
0
  6
Continuous
 62
     7
100
AcDbLine
 10
216.7624644279
 20
66.417316822
 30
0.0
 11
220.8606275011
 21
66.417316822
 31
0.0
  0
LINE
  5
90
330
2
100
AcDbEntity
  8
0
  6
Continuous
 62
     7
100
AcDbLine
 10
220.8257142889
 20
66.34639253189999
 30
0.0
 11
216.7624644975
 21
66.4173168209
 31
0.0
  0
LINE
  5
91
330
2
100
AcDbEntity
  8
0
  6
Continuous
 62
     7
100
AcDbLine
 10
156.9934415406
 20
98.9225373078
 30
0.0
 11
161.2087694837
 21
94.55743744020001
 31
0.0
  0
LINE
  5
92
330
2
100
AcDbEntity
  8
0
  6
Continuous
 62
     7
100
AcDbLine
 10
220.8339302692
 20
90.8721236983
 30
0.0
 11
220.9315517911
 21
90.9697452202
 31
0.0
  0
LINE
  5
93
330
2
100
AcDbEntity
  8
0
  6
Continuous
 62
     7
100
AcDbLine
 10
163.0901279608
 20
34.3439368552
 30
0.0
 11
158.5539823905
 21
29.9633321981
 31
0.0
  0
LINE
  5
94
330
2
100
AcDbEntity
  8
0
  6
Continuous
 62
     7
100
AcDbLine
 10
163.0901279608
 20
96.12545089980001
 30
0.0
 11
158.565620363
 21
100.4947170985
 31
0.0
  0
LINE
  5
95
330
2
100
AcDbEntity
  8
0
  6
Continuous
 62
     7
100
AcDbLine
 10
220.9315517911
 20
39.4996425349
 30
0.0
 11
220.8339302692
 21
39.5972640568
 31
0.0
  0
LINE
  5
96
330
2
100
AcDbEntity
  8
0
  6
Continuous
 62
     7
100
AcDbLine
 10
197.252135969
 20
26.6075747725
 30
0.0
 11
197.3840156332
 21
19.0521938753
 31
0.0
  0
LINE
  5
97
330
2
100
AcDbEntity
  8
0
  6
Continuous
 62
     7
100
AcDbLine
 10
197.3840156316
 20
111.5230313887
 30
0.0
 11
197.3840156316
 21
111.4171938776
 31
0.0
  0
LINE
  5
98
330
2
100
AcDbEntity
  8
0
  6
Continuous
 62
     7
100
AcDbLine
 10
197.3840156316
 20
19.0521938776
 30
0.0
 11
197.3840156316
 21
18.9463563664
 31
0.0
  0
LINE
  5
99
330
2
100
AcDbEntity
  8
0
  6
Continuous
 62
     7
100
AcDbLine
 10
197.2521359727
 20
103.8618131926
 30
0.0
 11
197.3840156332
 21
111.417193882
 31
0.0
  0
LINE
  5
9A
330
2
100
AcDbEntity
  8
0
  6
Continuous
 62
     7
100
AcDbLine
 10
155.460855252
 20
19.1045486806
 30
0.0
 11
155.3026629374
 21
18.946356366
 31
0.0
  0
LINE
  5
9B
330
2
100
AcDbEntity
  8
0
  6
Continuous
 62
     7
100
AcDbLine
 10
155.460855252
 20
111.3648390745
 30
0.0
 11
155.3026629374
 21
111.5230313891
 31
0.0
  0
LINE
  5
9C
330
2
100
AcDbEntity
  8
0
  6
Continuous
 62
     7
100
AcDbLine
 10
199.607412944
 20
111.417193882
 30
0.0
 11
199.7392926045
 21
103.8618131925
 31
0.0
  0
LINE
  5
9D
330
2
100
AcDbEntity
  8
0
  6
Continuous
 62
     7
100
AcDbLine
 10
199.6074129399
 20
18.9463563664
 30
0.0
 11
199.6074129399
 21
19.0521938776
 31
0.0
  0
LINE
  5
9E
330
2
100
AcDbEntity
  8
0
  6
Continuous
 62
     7
100
AcDbLine
 10
199.6074129399
 20
111.4171938776
 30
0.0
 11
199.6074129399
 21
111.5230313887
 31
0.0
  0
LINE
  5
9F
330
2
100
AcDbEntity
  8
0
  6
Continuous
 62
     7
100
AcDbLine
 10
199.607412944
 20
19.0521938753
 30
0.0
 11
199.7392926081
 21
26.6075747725
 31
0.0
  0
LINE
  5
A0
330
2
100
AcDbEntity
  8
0
  6
Continuous
 62
     7
100
AcDbLine
 10
153.9317672197
 20
16.1046381217
 30
0.0
 11
153.7333192411
 21
15.9061901431
 31
0.0
  0
LINE
  5
A1
330
2
100
AcDbEntity
  8
0
  6
Continuous
 62
     7
100
AcDbLine
 10
153.7333192486
 20
114.5631976121
 30
0.0
 11
153.9317672265999
 21
114.3647496334
 31
0.0
  0
LINE
  5
A2
330
2
100
AcDbEntity
  8
0
  6
Continuous
 62
     7
100
AcDbLine
 10
171.3456052528
 20
19.1045486806
 30
0.0
 11
171.1874129383
 21
18.946356366
 31
0.0
  0
LINE
  5
A3
330
2
100
AcDbEntity
  8
0
  6
Continuous
 62
     7
100
AcDbLine
 10
216.7657142842
 20
90.9697452202
 30
0.0
 11
213.5367482402
 21
90.8721236983
 31
0.0
  0
LINE
  5
A4
330
2
100
AcDbEntity
  8
0
  6
Continuous
 62
     7
100
AcDbLine
 10
220.8339302692
 20
90.8721236983
 30
0.0
 11
213.5367482402
 21
90.8721236983
 31
0.0
  0
LINE
  5
A5
330
2
100
AcDbEntity
  8
0
  6
Continuous
 62
     7
100
AcDbLine
 10
216.7657142857
 20
90.9697452234
 30
0.0
 11
220.9315517969
 21
90.9697452234
 31
0.0
  0
LINE
  5
A6
330
2
100
AcDbEntity
  8
0
  6
Continuous
 62
     7
100
AcDbLine
 10
171.1874129383
 20
111.5230313891
 30
0.0
 11
171.3456052528
 21
111.3648390746
 31
0.0
  0
LINE
  5
A7
330
2
100
AcDbEntity
  8
0
  6
Continuous
 62
     7
100
AcDbLine
 10
213.2687656316
 20
111.5230313887
 30
0.0
 11
213.2687656316
 21
108.3529112698
 31
0.0
  0
LINE
  5
A8
330
2
100
AcDbEntity
  8
0
  6
Continuous
 62
     7
100
AcDbLine
 10
213.2687656316
 20
22.1164764852
 30
0.0
 11
213.2687656316
 21
18.9463563664
 31
0.0
  0
LINE
  5
A9
330
2
100
AcDbEntity
  8
0
  6
Continuous
 62
     7
100
AcDbLine
 10
220.8606275011
 20
64.0520709331
 30
0.0
 11
220.9315517911
 21
64.12299522319999
 31
0.0
  0
LINE
  5
AA
330
2
100
AcDbEntity
  8
0
  6
Continuous
 62
     7
100
AcDbLine
 10
220.9315517969
 20
94.30964253170001
 30
0.0
 11
216.7657142857
 21
94.30964253170001
 31
0.0
  0
LINE
  5
AB
330
2
100
AcDbEntity
  8
0
  6
Continuous
 62
     7
100
AcDbLine
 10
213.2740369021
 20
94.4152066258
 30
0.0
 11
220.8259877018
 21
94.4152066258
 31
0.0
  0
LINE
  5
AC
330
2
100
AcDbEntity
  8
0
  6
Continuous
 62
     7
100
AcDbLine
 10
216.7657142846
 20
94.3096425364
 30
0.0
 11
213.274036903
 21
94.4152066258
 31
0.0
  0
LINE
  5
AD
330
2
100
AcDbEntity
  8
0
  6
Continuous
 62
     7
100
AcDbLine
 10
220.9315517911
 20
66.34639253189999
 30
0.0
 11
220.8606275011
 21
66.417316822
 31
0.0
  0
LINE
  5
AE
330
2
100
AcDbEntity
  8
0
  6
Continuous
 62
     7
100
AcDbLine
 10
214.630804241
 20
114.3647496334
 30
0.0
 11
214.6308042466
 21
113.4768767659
 31
0.0
  0
LINE
  5
AF
330
2
100
AcDbEntity
  8
0
  6
Continuous
 62
     7
100
AcDbLine
 10
214.6308037721
 20
16.9925109841
 30
0.0
 11
214.6308044679
 21
16.1046381217
 31
0.0
  0
LINE
  5
B0
330
2
100
AcDbEntity
  8
0
  6
Continuous
 62
     7
100
AcDbLine
 10
215.4921629399
 20
18.9926154903
 30
0.0
 11
215.4921629399
 21
22.1164764818
 31
0.0
  0
LINE
  5
B1
330
2
100
AcDbEntity
  8
0
  6
Continuous
 62
     7
100
AcDbLine
 10
215.4921629399
 20
108.3529112733
 30
0.0
 11
215.4921629399
 21
111.476773336
 31
0.0
  0
LINE
  5
B2
330
2
100
AcDbEntity
  8
0
  6
Continuous
 62
     7
100
AcDbLine
 10
216.7657142857
 20
94.30964253170001
 30
0.0
 11
216.7657142857
 21
90.9697452234
 31
0.0
  0
LINE
  5
B3
330
2
100
AcDbEntity
  8
0
  6
Continuous
 62
     7
100
AcDbLine
 10
216.7657142857
 20
39.4996425317
 30
0.0
 11
216.7657142857
 21
36.1597452234
 31
0.0
  0
LINE
  5
B4
330
2
100
AcDbEntity
  8
0
  6
Continuous
 62
     7
100
AcDbLine
 10
185.5556052546
 20
19.1045486806
 30
0.0
 11
185.3974129401
 21
18.946356366
 31
0.0
  0
LINE
  5
B5
330
2
100
AcDbEntity
  8
0
  6
Continuous
 62
     7
100
AcDbLine
 10
185.3974129401
 20
111.5230313891
 30
0.0
 11
185.5556052546
 21
111.3648390746
 31
0.0
  0
LINE
  5
B6
330
2
100
AcDbEntity
  8
0
  6
Continuous
 62
     7
100
AcDbLine
 10
220.8257142857
 20
66.3463925317
 30
0.0
 11
220.8257142857
 21
64.12299522339999
 31
0.0
  0
LINE
  5
B7
330
2
100
AcDbEntity
  8
0
  6
Continuous
 62
     7
100
AcDbLine
 10
220.9315517911
 20
105.3281428383
 30
0.0
 11
220.9315517911
 21
104.4088925317
 31
0.0
  0
LINE
  5
B8
330
2
100
AcDbEntity
  8
0
  6
Continuous
 62
     7
100
AcDbLine
 10
220.9315517969
 20
102.1854952234
 30
0.0
 11
220.9315517969
 21
94.30964253170001
 31
0.0
  0
LINE
  5
B9
330
2
100
AcDbEntity
  8
0
  6
Continuous
 62
     7
100
AcDbLine
 10
220.9315517969
 20
90.9697452234
 30
0.0
 11
220.9315517969
 21
66.3463925317
 31
0.0
  0
LINE
  5
BA
330
2
100
AcDbEntity
  8
0
  6
Continuous
 62
     7
100
AcDbLine
 10
220.9315517969
 20
64.12299522339999
 30
0.0
 11
220.9315517969
 21
39.4996425317
 31
0.0
  0
LINE
  5
BB
330
2
100
AcDbEntity
  8
0
  6
Continuous
 62
     7
100
AcDbLine
 10
220.9315517969
 20
36.1597452234
 30
0.0
 11
220.9315517969
 21
28.2838925317
 31
0.0
  0
LINE
  5
BC
330
2
100
AcDbEntity
  8
0
  6
Continuous
 62
     7
100
AcDbLine
 10
220.93155179
 20
26.0604952234
 30
0.0
 11
220.93155179
 21
25.1412349872
 31
0.0
  0
LINE
  5
BD
330
2
100
AcDbEntity
  8
DEFAULT_2
  6
HIDDEN
 62
     8
100
AcDbLine
 10
219.4361816735
 20
102.0592188047
 30
0.0
 11
219.4067521723
 21
102.0592188047
 31
0.0
  0
LINE
  5
BE
330
2
100
AcDbEntity
  8
0
  6
Continuous
 62
     7
100
AcDbLine
 10
220.8052753821
 20
102.0592188047
 30
0.0
 11
219.4361816735
 21
102.0592188047
 31
0.0
  0
LINE
  5
BF
330
2
100
AcDbEntity
  8
0
  6
Continuous
 62
     7
100
AcDbLine
 10
149.1646763912
 20
102.0592188046
 30
0.0
 11
147.7661531975
 21
102.0592188046
 31
0.0
  0
LINE
  5
C0
330
2
100
AcDbEntity
  8
0
  6
Continuous
 62
     7
100
AcDbLine
 10
147.6398767746
 20
102.1854952234
 30
0.0
 11
149.13524689
 21
102.1854952234
 31
0.0
  0
LINE
  5
C1
330
2
100
AcDbEntity
  8
0
  6
Continuous
 62
     7
100
AcDbLine
 10
219.4361816735
 20
102.1854952234
 30
0.0
 11
220.9315517969
 21
102.1854952234
 31
0.0
  0
LINE
  5
C2
330
2
100
AcDbEntity
  8
0
  6
Continuous
 62
     7
100
AcDbLine
 10
222.8853971741
 20
105.2219400832
 30
0.0
 11
222.8853971741
 21
25.2465781834
 31
0.0
  0
LINE
  5
C3
330
2
100
AcDbEntity
  8
0
  6
Continuous
 62
     7
100
AcDbLine
 10
223.3249050494
 20
105.2222840597
 30
0.0
 11
223.3249050494
 21
25.2471039223
 31
0.0
  0
LINE
  5
C4
330
2
100
AcDbEntity
  8
0
  6
Continuous
 62
     7
100
AcDbLine
 10
223.7732700354
 20
25.2382468184
 30
0.0
 11
223.7732700354
 21
105.2311409498
 31
0.0
  0
LINE
  5
C5
330
2
100
AcDbEntity
  8
0
  6
Continuous
 62
     7
100
AcDbLine
 10
210.079880311
 20
30.0507953636
 30
0.0
 11
210.0181529784
 21
29.9756384695
 31
0.0
  0
LINE
  5
C6
330
2
100
AcDbEntity
  8
0
  6
Continuous
 62
     7
100
AcDbLine
 10
199.7392926015
 20
103.8618129826
 30
0.0
 11
197.2521359674
 21
103.8618129826
 31
0.0
  0
LINE
  5
C7
330
2
100
AcDbEntity
  8
0
  6
Continuous
 62
     7
100
AcDbLine
 10
185.5292926046
 20
103.8618129826
 30
0.0
 11
183.0421359674
 21
103.8618129826
 31
0.0
  0
LINE
  5
C8
330
2
100
AcDbEntity
  8
0
  6
Continuous
 62
     7
100
AcDbLine
 10
171.3192926015
 20
103.8618129826
 30
0.0
 11
168.8321359674
 21
103.8618129826
 31
0.0
  0
LINE
  5
C9
330
2
100
AcDbEntity
  8
0
  6
Continuous
 62
     7
100
AcDbLine
 10
220.9315517911
 20
104.4088925317
 30
0.0
 11
219.436181681
 21
104.4088925317
 31
0.0
  0
LINE
  5
CA
330
2
100
AcDbEntity
  8
0
  6
Continuous
 62
     7
100
AcDbLine
 10
149.1352468904
 20
104.4088925317
 30
0.0
 11
147.6398767815
 21
104.4088925317
 31
0.0
  0
LINE
  5
CB
330
2
100
AcDbEntity
  8
0
  6
Continuous
 62
     7
100
AcDbLine
 10
147.7739457495
 20
104.5429614987
 30
0.0
 11
149.1666021059
 21
104.5429614987
 31
0.0
  0
LINE
  5
CC
330
2
100
AcDbEntity
  8
0
  6
Continuous
 62
     7
100
AcDbLine
 10
219.4048264653
 20
104.5429614997
 30
0.0
 11
220.7974828209
 21
104.5429614997
 31
0.0
  0
LINE
  5
CD
330
2
100
AcDbEntity
  8
0
  6
Continuous
 62
     7
100
AcDbLine
 10
144.798158536
 20
105.2222838328
 30
0.0
 11
145.6860313973
 21
105.2222838384
 31
0.0
  0
LINE
  5
CE
330
2
100
AcDbEntity
  8
0
  6
Continuous
 62
     7
100
AcDbLine
 10
222.8853971589
 20
105.2222890388
 30
0.0
 11
223.7732700354
 21
105.2222840597
 31
0.0
  0
LINE
  5
CF
330
2
100
AcDbEntity
  8
0
  6
Continuous
 62
     7
100
AcDbLine
 10
147.6398767815
 20
105.3276575702
 30
0.0
 11
147.776516972
 21
105.3276575702
 31
0.0
  0
LINE
  5
D0
330
2
100
AcDbEntity
  8
0
  6
Continuous
 62
     7
100
AcDbLine
 10
220.7949115991
 20
105.3276575702
 30
0.0
 11
220.9315517911
 21
105.3276575702
 31
0.0
  0
LINE
  5
D1
330
2
100
AcDbEntity
  8
0
  6
Continuous
 62
     7
100
AcDbLine
 10
210.0172715703
 20
100.4948569312
 30
0.0
 11
210.0706032007
 21
100.4299211404
 31
0.0
  0
LINE
  5
D2
330
2
100
AcDbEntity
  8
0
  6
Continuous
 62
     7
100
AcDbLine
 10
211.495858721
 20
99.00575636470001
 30
0.0
 11
211.5029381593
 21
98.9957632794
 31
0.0
  0
LINE
  5
D3
330
2
100
AcDbEntity
  8
0
  6
Continuous
 62
     7
100
AcDbLine
 10
199.7656052585
 20
19.1045486806
 30
0.0
 11
199.607412944
 21
18.946356366
 31
0.0
  0
LINE
  5
D4
330
2
100
AcDbEntity
  8
0
  6
Continuous
 62
     7
100
AcDbLine
 10
220.8259877017
 20
36.05418112920001
 30
0.0
 11
220.9315517911
 21
36.15974521870001
 31
0.0
  0
LINE
  5
D5
330
2
100
AcDbEntity
  8
0
  6
Continuous
 62
     7
100
AcDbLine
 10
211.4865985418
 20
31.4601909279
 30
0.0
 11
211.5131903805
 21
31.4820537983
 31
0.0
  0
LINE
  5
D6
330
2
100
AcDbEntity
  8
0
  6
Continuous
 62
     7
100
AcDbLine
 10
211.5761606289
 20
31.5340104219
 30
0.0
 11
211.5070617691
 21
31.4820537983
 31
0.0
  0
LINE
  5
D7
330
2
100
AcDbEntity
  8
0
  6
Continuous
 62
     7
100
AcDbLine
 10
213.1105733164
 20
111.3648390746
 30
0.0
 11
199.7656052585
 21
111.3648390746
 31
0.0
  0
LINE
  5
D8
330
2
100
AcDbEntity
  8
0
  6
Continuous
 62
     7
100
AcDbLine
 10
197.2258233164
 20
111.3648390746
 30
0.0
 11
185.5556052546
 21
111.3648390746
 31
0.0
  0
LINE
  5
D9
330
2
100
AcDbEntity
  8
0
  6
Continuous
 62
     7
100
AcDbLine
 10
183.0158233164
 20
111.3648390746
 30
0.0
 11
171.3456052528
 21
111.3648390746
 31
0.0
  0
LINE
  5
DA
330
2
100
AcDbEntity
  8
0
  6
Continuous
 62
     7
100
AcDbLine
 10
168.8058233164
 20
111.3648390745
 30
0.0
 11
155.460855255
 21
111.3648390745
 31
0.0
  0
LINE
  5
DB
330
2
100
AcDbEntity
  8
0
  6
Continuous
 62
     7
100
AcDbLine
 10
168.9640156316
 20
111.4171938776
 30
0.0
 11
171.1874129399
 21
111.4171938776
 31
0.0
  0
LINE
  5
DC
330
2
100
AcDbEntity
  8
0
  6
Continuous
 62
     7
100
AcDbLine
 10
183.1740156316
 20
111.4171938776
 30
0.0
 11
185.3974129399
 21
111.4171938776
 31
0.0
  0
LINE
  5
DD
330
2
100
AcDbEntity
  8
0
  6
Continuous
 62
     7
100
AcDbLine
 10
197.3840156316
 20
111.4171938776
 30
0.0
 11
199.6074129399
 21
111.4171938776
 31
0.0
  0
LINE
  5
DE
330
2
100
AcDbEntity
  8
0
  6
Continuous
 62
     7
100
AcDbLine
 10
155.3026629399
 20
111.5230313887
 30
0.0
 11
168.9640156316
 21
111.5230313887
 31
0.0
  0
LINE
  5
DF
330
2
100
AcDbEntity
  8
0
  6
Continuous
 62
     7
100
AcDbLine
 10
171.1874129399
 20
111.5230313887
 30
0.0
 11
183.1740156316
 21
111.5230313887
 31
0.0
  0
LINE
  5
E0
330
2
100
AcDbEntity
  8
0
  6
Continuous
 62
     7
100
AcDbLine
 10
185.3974129399
 20
111.5230313887
 30
0.0
 11
197.3840156316
 21
111.5230313887
 31
0.0
  0
LINE
  5
E1
330
2
100
AcDbEntity
  8
0
  6
Continuous
 62
     7
100
AcDbLine
 10
199.6074129399
 20
111.5230313887
 30
0.0
 11
213.2687656316
 21
111.5230313887
 31
0.0
  0
LINE
  5
E2
330
2
100
AcDbEntity
  8
0
  6
Continuous
 62
     7
100
AcDbLine
 10
211.5029381593
 20
98.9957632794
 30
0.0
 11
211.5762407423
 21
98.93549425499999
 31
0.0
  0
LINE
  5
E3
330
2
100
AcDbEntity
  8
0
  6
Continuous
 62
     7
100
AcDbLine
 10
199.607412944
 20
111.5230313891
 30
0.0
 11
199.7656052585
 21
111.3648390746
 31
0.0
  0
LINE
  5
E4
330
2
100
AcDbEntity
  8
0
  6
Continuous
 62
     7
100
AcDbLine
 10
220.9315517911
 20
94.3096425364
 30
0.0
 11
220.8259877018
 21
94.4152066258
 31
0.0
  0
LINE
  5
E5
330
2
100
AcDbEntity
  8
0
  6
Continuous
 62
     7
100
AcDbLine
 10
153.9414388458
 20
113.4768767659
 30
0.0
 11
214.6299846856
 21
113.4768767659
 31
0.0
  0
LINE
  5
E6
330
2
100
AcDbEntity
  8
0
  6
Continuous
 62
     7
100
AcDbLine
 10
153.9406241035
 20
113.9163846412
 30
0.0
 11
214.630804241
 21
113.9163846412
 31
0.0
  0
LINE
  5
E7
330
2
100
AcDbEntity
  8
0
  6
Continuous
 62
     7
100
AcDbLine
 10
214.6396613449
 20
114.3647496334
 30
0.0
 11
153.9317672265999
 21
114.3647496334
 31
0.0
  0
LINE
  5
E8
330
2
100
AcDbEntity
  8
0
  6
Continuous
 62
     7
100
AcDbLine
 10
153.7333192486
 20
114.5631976121
 30
0.0
 11
214.8381093228
 21
114.5631976121
 31
0.0
  0
LINE
  5
E9
330
2
100
AcDbEntity
  8
0
  6
Continuous
 62
     7
100
AcDbLine
 10
220.7974828208
 20
25.9264262552
 30
0.0
 11
220.9315517911
 21
26.0604952256
 31
0.0
  0
LINE
  5
EA
330
2
100
AcDbEntity
  8
0
  6
Continuous
 62
     7
100
AcDbLine
 10
220.9315517911
 20
104.4088925295
 30
0.0
 11
220.7974828209
 21
104.5429614997
 31
0.0
  0
ARC
  5
EB
330
2
100
AcDbEntity
  8
DEFAULT_2
  6
HIDDEN
 62
     8
100
AcDbCircle
 10
216.7657142857
 20
65.23469387759999
 30
0.0
 40
2.938698654199999
100
AcDbArc
 50
245.1854984939
 51
114.8145014486
  0
ARC
  5
EC
330
2
100
AcDbEntity
  8
DEFAULT_2
  6
HIDDEN
 62
     8
100
AcDbCircle
 10
184.2857142857
 20
65.23469387759999
 30
0.0
 40
31.3603250191
100
AcDbArc
 50
4.879224162499999
 51
355.1207758408
  0
ARC
  5
ED
330
2
100
AcDbEntity
  8
0
  6
Continuous
 62
     7
100
AcDbCircle
 10
214.3804642857
 20
27.1721938775
 30
0.0
 40
5.176499999999999
100
AcDbArc
 50
147.2731237669
 51
257.5986260848
  0
ARC
  5
EE
330
2
100
AcDbEntity
  8
0
  6
Continuous
 62
     7
100
AcDbCircle
 10
214.3804642857
 20
27.1721938776
 30
0.0
 40
5.1765000056
100
AcDbArc
 50
123.8855768928
 51
146.3423193077
  0
ARC
  5
EF
330
2
100
AcDbEntity
  8
0
  6
Continuous
 62
     7
100
AcDbCircle
 10
214.3804642857
 20
27.1721938776
 30
0.0
 40
5.1765000029
100
AcDbArc
 50
12.4013739071
 51
122.7378169364
  0
ARC
  5
F0
330
2
100
AcDbEntity
  8
0
  6
Continuous
 62
     7
100
AcDbCircle
 10
214.3804642857
 20
103.2971938776
 30
0.0
 40
5.1764999951
100
AcDbArc
 50
237.2622289953
 51
347.598626074
  0
ARC
  5
F1
330
2
100
AcDbEntity
  8
0
  6
Continuous
 62
     7
100
AcDbCircle
 10
214.3804642857
 20
103.2971938775
 30
0.0
 40
5.1765000056
100
AcDbArc
 50
213.6351054521
 51
236.1801297258
  0
ARC
  5
F2
330
2
100
AcDbEntity
  8
0
  6
Continuous
 62
     7
100
AcDbCircle
 10
214.3804642857
 20
103.2971938775
 30
0.0
 40
5.176499999999999
100
AcDbArc
 50
102.401373915
 51
212.7113155445
  0
ARC
  5
F3
330
2
100
AcDbEntity
  8
0
  6
Continuous
 62
     7
100
AcDbCircle
 10
154.1909642857
 20
103.2971938776
 30
0.0
 40
5.176499999999999
100
AcDbArc
 50
327.2731226508
 51
77.5986260848
  0
ARC
  5
F4
330
2
100
AcDbEntity
  8
0
  6
Continuous
 62
     7
100
AcDbCircle
 10
154.1909642858
 20
103.2971938775
 30
0.0
 40
5.1765000056
100
AcDbArc
 50
303.885576134
 51
326.3427223444
  0
ARC
  5
F5
330
2
100
AcDbEntity
  8
0
  6
Continuous
 62
     7
100
AcDbCircle
 10
154.1909642857
 20
103.2971938776
 30
0.0
 40
5.1765000029
100
AcDbArc
 50
192.4013739071
 51
302.7378358825
  0
ARC
  5
F6
330
2
100
AcDbEntity
  8
0
  6
Continuous
 62
     7
100
AcDbCircle
 10
154.1909642857
 20
27.1721938775
 30
0.0
 40
5.1764999951
100
AcDbArc
 50
57.2622618196
 51
167.598626074
  0
ARC
  5
F7
330
2
100
AcDbEntity
  8
0
  6
Continuous
 62
     7
100
AcDbCircle
 10
154.1909642858
 20
27.1721938776
 30
0.0
 40
5.1765000056
100
AcDbArc
 50
33.6351054152
 51
56.17931946630001
  0
ARC
  5
F8
330
2
100
AcDbEntity
  8
0
  6
Continuous
 62
     7
100
AcDbCircle
 10
154.1909642857
 20
27.1721938776
 30
0.0
 40
5.176499999999999
100
AcDbArc
 50
282.401373915
 51
32.71131554450001
  0
ARC
  5
F9
330
2
100
AcDbEntity
  8
0
  6
Continuous
 62
     7
100
AcDbCircle
 10
154.1909642857
 20
103.2971938776
 30
0.0
 40
5.1765000029
100
AcDbArc
 50
102.401373907
 51
167.598626092
  0
ARC
  5
FA
330
2
100
AcDbEntity
  8
0
  6
Continuous
 62
     7
100
AcDbCircle
 10
214.3804642857
 20
103.2971938776
 30
0.0
 40
5.1765000029
100
AcDbArc
 50
12.4013739081
 51
77.59862609299999
  0
ARC
  5
FB
330
2
100
AcDbEntity
  8
0
  6
Continuous
 62
     7
100
AcDbCircle
 10
154.1909642857
 20
27.1721938775
 30
0.0
 40
5.1765000029
100
AcDbArc
 50
192.4013739081
 51
257.598626093
  0
ARC
  5
FC
330
2
100
AcDbEntity
  8
0
  6
Continuous
 62
     7
100
AcDbCircle
 10
214.3804642857
 20
27.1721938775
 30
0.0
 40
5.1765000029
100
AcDbArc
 50
282.401373907
 51
347.598626092
  0
CIRCLE
  5
FD
330
2
100
AcDbEntity
  8
0
  6
Continuous
 62
     7
100
AcDbCircle
 10
214.3804642857
 20
27.1721938776
 30
0.0
 40
2.131499999999999
  0
CIRCLE
  5
FE
330
2
100
AcDbEntity
  8
0
  6
Continuous
 62
     7
100
AcDbCircle
 10
154.1909642857
 20
103.2971938776
 30
0.0
 40
2.131499999999999
  0
CIRCLE
  5
FF
330
2
100
AcDbEntity
  8
0
  6
Continuous
 62
     7
100
AcDbCircle
 10
214.3804642857
 20
103.2971938776
 30
0.0
 40
2.131499999999999
  0
CIRCLE
  5
100
330
2
100
AcDbEntity
  8
0
  6
Continuous
 62
     7
100
AcDbCircle
 10
154.1909642857
 20
27.1721938776
 30
0.0
 40
2.131499999999999
  0
CIRCLE
  5
101
330
2
100
AcDbEntity
  8
0
  6
Continuous
 62
     7
100
AcDbCircle
 10
184.2857142857
 20
65.23469387759999
 30
0.0
 40
29.2485171661
  0
ARC
  5
102
330
2
100
AcDbEntity
  8
0
  6
Continuous
 62
     7
100
AcDbCircle
 10
214.6312803974
 20
105.2227600605
 30
0.0
 40
8.254035854599999
100
AcDbArc
 50
359.9943081442
 51
90.0089941567
  0
ARC
  5
103
330
2
100
AcDbEntity
  8
0
  6
Continuous
 62
     7
100
AcDbCircle
 10
214.6313297385
 20
25.2465784043
 30
0.0
 40
8.254067457299999
100
AcDbArc
 50
269.9963505055
 51
359.9999984669
  0
ARC
  5
104
330
2
100
AcDbEntity
  8
0
  6
Continuous
 62
     7
100
AcDbCircle
 10
153.940148174
 20
25.2466276946
 30
0.0
 40
8.254035854599999
100
AcDbArc
 50
179.9943081442
 51
270.0089946532
  0
ARC
  5
105
330
2
100
AcDbEntity
  8
0
  6
Continuous
 62
     7
100
AcDbCircle
 10
153.9401481027
 20
105.2227599892
 30
0.0
 40
8.254035854499999
100
AcDbArc
 50
89.9910403337
 51
180.0056870509
  0
ARC
  5
106
330
2
100
AcDbEntity
  8
0
  6
Continuous
 62
     7
100
AcDbCircle
 10
153.8348703847
 20
105.3280177324
 30
0.0
 40
6.195007724899999
100
AcDbArc
 50
97.00580738390002
 51
179.9987475012
  0
ARC
  5
107
330
2
100
AcDbEntity
  8
0
  6
Continuous
 62
     7
100
AcDbCircle
 10
214.7365583674
 20
105.3280203284
 30
0.0
 40
6.195006198699999
100
AcDbArc
 50
0.0011330604
 51
82.99419256540002
  0
ARC
  5
108
330
2
100
AcDbEntity
  8
0
  6
Continuous
 62
     7
100
AcDbCircle
 10
153.8348702304
 20
25.1413673965
 30
0.0
 40
6.195006208499999
100
AcDbArc
 50
180.0011315708
 51
262.9941945916
  0
ARC
  5
109
330
2
100
AcDbEntity
  8
0
  6
Continuous
 62
     7
100
AcDbCircle
 10
214.7365581599
 20
25.1413699929
 30
0.0
 40
6.195007708
100
AcDbArc
 50
277.0058076528
 51
359.9987513699
  0
ARC
  5
10A
330
2
100
AcDbEntity
  8
0
  6
Continuous
 62
     7
100
AcDbCircle
 10
214.6313297385
 20
25.2465784043
 30
0.0
 40
8.693532726
100
AcDbArc
 50
269.9965126109
 51
0.0034844294
  0
ARC
  5
10B
330
2
100
AcDbEntity
  8
0
  6
Continuous
 62
     7
100
AcDbCircle
 10
214.6312803974
 20
105.2227600605
 30
0.0
 40
8.6935811537
100
AcDbArc
 50
359.9968769365
 51
90.00313471069999
  0
ARC
  5
10C
330
2
100
AcDbEntity
  8
0
  6
Continuous
 62
     7
100
AcDbCircle
 10
153.940148174
 20
25.2466276946
 30
0.0
 40
8.6935811537
100
AcDbArc
 50
179.9968769365
 51
270.0031347107
  0
ARC
  5
10D
330
2
100
AcDbEntity
  8
0
  6
Continuous
 62
     7
100
AcDbCircle
 10
153.9401481027
 20
105.2227599892
 30
0.0
 40
8.6935811536
100
AcDbArc
 50
89.9968769364
 51
180.0031347107
  0
SPLINE
  5
10E
330
2
100
AcDbEntity
  8
DEFAULT_2
  6
HIDDEN
 62
     8
100
AcDbSpline
210
0.0
220
0.0
230
1.0
 70
     8
 71
     3
 72
    28
 73
    24
 74
    22
 42
0.0000000001
 43
0.0000000001
 44
0.0000000001
 12
-0.0658204858515851
 22
0.9978314805828995
 32
0.0
 13
-0.000022322494812
 23
-0.9999999997508531
 33
0.0
 40
0.0
 40
0.0
 40
0.0
 40
0.0
 40
4.886695450082704
 40
9.800434964785281
 40
14.74547100774783
 40
19.73225665560434
 40
24.79947660471598
 40
29.88714159770287
 40
34.98874911866487
 40
40.08303536873632
 40
45.18329243133336
 40
50.283448483777
 40
55.37818634005392
 40
60.46837649524816
 40
65.55087381251062
 40
70.62060214790593
 40
75.68843387372888
 40
80.73423615432895
 40
85.759692939599
 40
90.71300969108026
 40
95.63674252630057
 40
100.5400338474533
 40
105.4231088334525
 40
105.4231088334525
 40
105.4231088334525
 40
105.4231088334525
 10
218.8560902153
 20
67.4241138606
 30
0.0
 10
218.7488753257222
 20
69.04948004597125
 30
0.0
 10
218.2893755629274
 20
72.2979208137404
 30
0.0
 10
216.8964304841607
 20
77.02878943317807
 30
0.0
 10
214.8114549265464
 20
81.53701602681387
 30
0.0
 10
212.051839782679
 20
85.72778023733397
 30
0.0
 10
208.6777217227537
 20
89.5062246973284
 30
0.0
 10
204.7500394409784
 20
92.76622248422112
 30
0.0
 10
200.3786846979656
 20
95.41776788426286
 30
0.0
 10
195.6653838724198
 20
97.40951793683086
 30
0.0
 10
190.7127870861264
 20
98.69257537585159
 30
0.0
 10
185.627953435591
 20
99.25541972649698
 30
0.0
 10
180.5180542001942
 20
99.0801424354978
 30
0.0
 10
175.4927210377632
 20
98.17284463376076
 30
0.0
 10
170.6559943400609
 20
96.55978455339329
 30
0.0
 10
166.1123651144786
 20
94.26257697957552
 30
0.0
 10
161.958530924198
 20
91.33979448290288
 30
0.0
 10
158.2885177413354
 20
87.8491709476494
 30
0.0
 10
155.1986892922767
 20
83.88470703322672
 30
0.0
 10
152.7386777793804
 20
79.54854718222249
 30
0.0
 10
150.9637164699595
 20
74.93291439309553
 30
0.0
 10
149.887863018181
 20
70.132173502639
 30
0.0
 10
149.6434086287387
 20
66.8652288389942
 30
0.0
 10
149.6433722946
 20
65.2375371774
 30
0.0
 11
218.8560902153
 21
67.4241138606
 31
0.0
 11
218.1747091019
 21
72.2630716203
 31
0.0
 11
216.7867825646
 21
76.97672158029999
 31
0.0
 11
214.7101132799
 21
81.4645747584
 31
0.0
 11
211.9705440454
 21
85.6314430677
 31
0.0
 11
208.5947741328
 21
89.4104502799
 31
0.0
 11
204.6810421716
 21
92.66114823829999
 31
0.0
 11
200.3201274508
 21
95.3085662438
 31
0.0
 11
195.627320813
 21
97.2908170498
 31
0.0
 11
190.6907309655
 21
98.572496722
 31
0.0
 11
185.6214095011999
 21
99.1324714097
 31
0.0
 11
180.5296645933
 21
98.95786437360001
 31
0.0
 11
175.5203296286
 21
98.05420568389999
 31
0.0
 11
170.6997555818
 21
96.4436638995
 31
0.0
 11
166.1750582214
 21
94.15690654649999
 31
0.0
 11
162.0316287963
 21
91.2388745041
 31
0.0
 11
158.3765350917
 21
87.7603100494
 31
0.0
 11
155.286552058
 21
83.79707642619999
 31
0.0
 11
152.8455387992
 21
79.48699509159999
 31
0.0
 11
151.0770923259
 21
74.8918082506
 31
0.0
 11
150.0046946722
 21
70.10722581820001
 31
0.0
 11
149.6433722946
 21
65.2375371774
 31
0.0
  0
SPLINE
  5
10F
330
2
100
AcDbEntity
  8
DEFAULT_2
  6
HIDDEN
 62
     8
100
AcDbSpline
210
0.0
220
0.0
230
1.0
 70
     8
 71
     3
 72
    10
 73
     6
 74
     4
 42
0.0000000001
 43
0.0000000001
 44
0.0000000001
 12
0.0000000006147013
 22
1.0
 32
0.0
 13
-0.7233628039118912
 23
0.6904681411308759
 33
0.0
 40
0.0
 40
0.0
 40
0.0
 40
0.0
 40
0.8133373205783474
 40
1.626850747344738
 40
2.44020939612302
 40
2.44020939612302
 40
2.44020939612302
 40
2.44020939612302
 10
219.7930003473
 20
65.2346854493
 30
0.0
 10
219.7930003474667
 20
65.50579788949278
 30
0.0
 10
219.7191463276779
 20
66.0509763708949
 30
0.0
 10
219.3956059175939
 20
66.80707732104536
 30
0.0
 10
219.0522080128888
 20
67.23691444916845
 30
0.0
 10
218.8560902153
 20
67.4241138606
 30
0.0
 11
219.7930003473
 21
65.2346854493
 31
0.0
 11
219.6837006281
 21
66.04064523019999
 31
0.0
 11
219.3636554283
 21
66.78855910599999
 31
0.0
 11
218.8560902153
 21
67.4241138606
 31
0.0
  0
SPLINE
  5
110
330
2
100
AcDbEntity
  8
DEFAULT_2
  6
HIDDEN
 62
     8
100
AcDbSpline
210
0.0
220
0.0
230
1.0
 70
     8
 71
     3
 72
    10
 73
     6
 74
     4
 42
0.0000000001
 43
0.0000000001
 44
0.0000000001
 12
0.7234499012049625
 22
0.6903768829027594
 32
0.0
 13
0.0000000006966829
 23
1.0
 33
0.0
 40
0.0
 40
0.0
 40
0.0
 40
0.0
 40
0.8133425296016447
 40
1.62683520942787
 40
2.440134530976143
 40
2.440134530976143
 40
2.440134530976143
 40
2.440134530976143
 10
218.8561360335
 20
63.0453129202
 30
0.0
 10
219.0522735577287
 20
63.2324838803062
 30
0.0
 10
219.39561424313
 20
63.66236035080024
 30
0.0
 10
219.7191534758331
 20
64.41842333147588
 30
0.0
 10
219.7930003471111
 20
64.96358567545057
 30
0.0
 10
219.7930003473
 20
65.2346854493
 30
0.0
 11
218.8561360335
 21
63.0453129202
 31
0.0
 11
219.3636790921
 21
63.6808647388
 31
0.0
 11
219.6837080135
 21
64.42876301370001
 31
0.0
 11
219.7930003473
 21
65.2346854493
 31
0.0
  0
SPLINE
  5
111
330
2
100
AcDbEntity
  8
DEFAULT_2
  6
HIDDEN
 62
     8
100
AcDbSpline
210
0.0
220
0.0
230
1.0
 70
     8
 71
     3
 72
    28
 73
    24
 74
    22
 42
0.0000000001
 43
0.0000000001
 44
0.0000000001
 12
-0.0000236748469065
 22
-0.9999999997197509
 32
0.0
 13
0.0658188296166641
 23
0.9978315898326192
 33
0.0
 40
0.0
 40
0.0
 40
0.0
 40
0.0
 40
4.908690205149049
 40
9.832613341198417
 40
14.77573281848503
 40
19.73906299429266
 40
24.75790169553938
 40
29.79979145004106
 40
34.84191616670224
 40
39.89589212793239
 40
44.98455390733777
 40
50.10131276912479
 40
55.2229013925312
 40
60.3334319598621
 40
65.42496158427721
 40
70.49463134904958
 40
75.54987631008943
 40
80.59275514998672
 40
85.60878427000151
 40
90.57419897705212
 40
95.52864351269342
 40
100.4782653562693
 40
105.4282931527972
 40
105.4282931527972
 40
105.4282931527972
 40
105.4282931527972
 10
149.6433722946
 20
65.2375371774
 30
0.0
 10
149.6433335571036
 20
63.60130710947554
 30
0.0
 10
149.8889226597759
 20
60.31882366796423
 30
0.0
 10
150.973940948562
 20
55.49736975219954
 30
0.0
 10
152.7633360707436
 20
50.86926870256644
 30
0.0
 10
155.2341270263321
 20
46.53051235020022
 30
0.0
 10
158.3312076169633
 20
42.57177942317734
 30
0.0
 10
162.0009357463548
 20
39.09838627933335
 30
0.0
 10
166.1466557603219
 20
36.19115137557554
 30
0.0
 10
170.6799817962338
 20
33.90032105410136
 30
0.0
 10
175.5229058116651
 20
32.28655264391988
 30
0.0
 10
180.5702351136028
 20
31.38783932060936
 30
0.0
 10
185.7012967236545
 20
31.21841196008328
 30
0.0
 10
190.7954434937935
 20
31.78800795187535
 30
0.0
 10
195.7363169247039
 20
33.08575048060433
 30
0.0
 10
200.4217515639068
 20
35.07389084901415
 30
0.0
 10
204.7570682918038
 20
37.71004014778657
 30
0.0
 10
208.6479238939279
 20
40.93887888648665
 30
0.0
 10
212.0060480895384
 20
44.67855184241123
 30
0.0
 10
214.763025846689
 20
48.8458222657185
 30
0.0
 10
216.8642291866621
 20
53.35526744240013
 30
0.0
 10
218.2783260503249
 20
58.11788798815001
 30
0.0
 10
218.7475343547875
 20
61.39888155155833
 30
0.0
 10
218.8561360335
 20
63.0453129202
 30
0.0
 11
149.6433722946
 21
65.2375371774
 31
0.0
 11
150.0072843643
 21
60.3423551036
 31
0.0
 11
151.0885712751
 21
55.5386234639
 31
0.0
 11
152.8716107662
 21
50.9282872137
 31
0.0
 11
155.3251270144
 21
46.6137878854
 31
0.0
 11
158.4186936233
 21
42.6617520119
 31
0.0
 11
162.0787224534
 21
39.1940667235
 31
0.0
 11
166.2055630743
 21
36.2971359083
 31
0.0
 11
170.717044016
 21
34.0191515516
 31
0.0
 11
175.5442746775
 21
32.4090823463
 31
0.0
 11
180.5813948902
 21
31.5098375451
 31
0.0
 11
185.700228699
 21
31.3418778318
 31
0.0
 11
190.7789599341
 21
31.9110981066
 31
0.0
 11
195.7035604391
 21
33.20415022560001
 31
0.0
 11
200.3701054305
 21
35.1852886274
 31
0.0
 11
204.6887492907
 21
37.8129904417
 31
0.0
 11
208.5690834855
 21
41.0338029992
 31
0.0
 11
211.9192414019
 21
44.7670308342
 31
0.0
 11
214.657486196
 21
48.90917504469999
 31
0.0
 11
216.7506286936
 21
53.3997513041
 31
0.0
 11
218.1599896709
 21
58.1444808043
 31
0.0
 11
218.8561360335
 21
63.0453129202
 31
0.0
  0
SPLINE
  5
112
330
2
100
AcDbEntity
  8
DEFAULT_2
  6
HIDDEN
 62
     8
100
AcDbSpline
210
0.0
220
0.0
230
1.0
 70
     8
 71
     3
 72
    10
 73
     6
 74
     4
 42
0.0000000001
 43
0.0000000001
 44
0.0000000001
 12
-0.9999497232679333
 22
-0.0100275089819688
 32
0.0
 13
-0.9977445529120105
 23
-0.0671253091941673
 33
0.0
 40
0.0
 40
0.0
 40
0.0
 40
0.0
 40
0.0571932883771397
 40
0.1145020758567807
 40
0.1717198361709729
 40
0.1717198361709729
 40
0.1717198361709729
 40
0.1717198361709729
 10
216.7657142857
 20
68.24129982569999
 30
0.0
 10
216.7466508147382
 20
68.24110865696235
 30
0.0
 10
216.7084882281942
 20
68.24035024566256
 30
0.0
 10
216.6512876788135
 20
68.23814658586686
 30
0.0
 10
216.6131728959611
 20
68.23594479988416
 30
0.0
 10
216.5941433264
 20
68.2346645466
 30
0.0
 11
216.7657142857
 21
68.24129982569999
 31
0.0
 11
216.7085320865
 21
68.2401736241
 31
0.0
 11
216.6512659856
 21
68.23796210650001
 31
0.0
 11
216.5941433264
 21
68.2346645466
 31
0.0
  0
SPLINE
  5
113
330
2
100
AcDbEntity
  8
DEFAULT_2
  6
HIDDEN
 62
     8
100
AcDbSpline
210
0.0
220
0.0
230
1.0
 70
     8
 71
     3
 72
    10
 73
     6
 74
     4
 42
0.0000000001
 43
0.0000000001
 44
0.0000000001
 12
-0.728084867060462
 22
0.6854869994081213
 32
0.0
 13
-0.9999497232655544
 23
-0.0100275092191989
 33
0.0
 40
0.0
 40
0.0
 40
0.0
 40
0.0
 40
0.8090903742896703
 40
1.570122348909533
 40
2.293879975384171
 40
2.293879975384171
 40
2.293879975384171
 40
2.293879975384171
 10
218.8560923716
 20
67.42411711139999
 30
0.0
 10
218.6597302190651
 20
67.60899075570726
 30
0.0
 10
218.2276437687427
 20
67.91775578499581
 30
0.0
 10
217.5045572311596
 20
68.18845595453486
 30
0.0
 10
217.0069546984682
 20
68.24371898779064
 30
0.0
 10
216.7657142857
 20
68.24129982569999
 30
0.0
 11
218.8560923716
 21
67.42411711139999
 31
0.0
 11
218.1977282599
 21
67.8944190678
 31
0.0
 11
217.4850415258
 21
68.1613409392
 31
0.0
 11
216.7657142857
 21
68.24129982569999
 31
0.0
  0
SPLINE
  5
114
330
2
100
AcDbEntity
  8
DEFAULT_2
  6
HIDDEN
 62
     8
100
AcDbSpline
210
0.0
220
0.0
230
1.0
 70
     8
 71
     3
 72
    10
 73
     6
 74
     4
 42
0.0000000001
 43
0.0000000001
 44
0.0000000001
 12
-0.9859736703295027
 22
0.1669009329421772
 32
0.0
 13
-0.9877242127138515
 23
0.1562078090839327
 33
0.0
 40
0.0
 40
0.0
 40
0.0
 40
0.0
 40
0.1192019926672001
 40
0.2384002112582016
 40
0.357607613387547
 40
0.357607613387547
 40
0.357607613387547
 40
0.357607613387547
 10
189.809947586
 20
96.5764287836
 30
0.0
 10
189.7707709105931
 20
96.58306042486158
 30
0.0
 10
189.692248261452
 20
96.59529861973366
 30
0.0
 10
189.5749163579182
 20
96.61639552532029
 30
0.0
 10
189.4962960326726
 20
96.62802493142892
 30
0.0
 10
189.4570480202
 20
96.6342319738
 30
0.0
 11
189.809947586
 21
96.5764287836
 31
0.0
 11
189.6923227648
 21
96.5957553584
 31
0.0
 11
189.5748196594
 21
96.615786223
 31
0.0
 11
189.4570480202
 21
96.6342319738
 31
0.0
  0
SPLINE
  5
115
330
2
100
AcDbEntity
  8
DEFAULT_2
  6
HIDDEN
 62
     8
100
AcDbSpline
210
0.0
220
0.0
230
1.0
 70
     8
 71
     3
 72
    10
 73
     6
 74
     4
 42
0.0000000001
 43
0.0000000001
 44
0.0000000001
 12
-0.9930437634965068
 22
-0.1177458440060375
 32
0.0
 13
-0.8827570097667381
 23
-0.4698298220714466
 33
0.0
 40
0.0
 40
0.0
 40
0.0
 40
0.0
 40
0.3782336054854768
 40
0.749097714740159
 40
1.11832725492385
 40
1.11832725492385
 40
1.11832725492385
 40
1.11832725492385
 10
216.5941429996
 20
68.2346658212
 30
0.0
 10
216.4689421585759
 20
68.21982067616355
 30
0.0
 10
216.2225422614286
 20
68.17477120980035
 30
0.0
 10
215.8661321477673
 20
68.06266072312344
 30
0.0
 10
215.6410425243367
 20
67.95989128338934
 30
0.0
 10
215.5323958694
 20
67.90206626699999
 30
0.0
 11
216.5941429996
 21
68.2346658212
 31
0.0
 11
216.2220718449
 21
68.1666679083
 31
0.0
 11
215.8683175529
 21
68.0553212046
 31
0.0
 11
215.5323958694
 21
67.90206626699999
 31
0.0
  0
SPLINE
  5
116
330
2
100
AcDbEntity
  8
DEFAULT_2
  6
HIDDEN
 62
     8
100
AcDbSpline
210
0.0
220
0.0
230
1.0
 70
     8
 71
     3
 72
    16
 73
    12
 74
    10
 42
0.0000000001
 43
0.0000000001
 44
0.0000000001
 12
0.9859736703191202
 22
-0.1669009330035115
 32
0.0
 13
0.0961884383176635
 23
-0.9953631419406733
 33
0.0
 40
0.0
 40
0.0
 40
0.0
 40
0.0
 40
4.718633693052419
 40
9.42371577115194
 40
14.11241502432253
 40
18.78416806067013
 40
23.43960351977571
 40
28.07638755314297
 40
32.69799237874305
 40
37.29995680558505
 40
41.87873592869609
 40
41.87873592869609
 40
41.87873592869609
 40
41.87873592869609
 10
189.809947586
 20
96.5764287836
 30
0.0
 10
191.3607637797434
 20
96.31391399497591
 30
0.0
 10
194.4248851687205
 20
95.56664995473074
 30
0.0
 10
198.8036907683892
 20
93.806038055432
 30
0.0
 10
202.8727649069605
 20
91.44409676953666
 30
0.0
 10
206.5473161313967
 20
88.53250745170972
 30
0.0
 10
209.7499915800655
 20
85.13220495293985
 30
0.0
 10
212.4166475843727
 20
81.31749009406076
 30
0.0
 10
214.4898129280001
 20
77.16977482530997
 30
0.0
 10
215.9275336474496
 20
72.78282256345405
 30
0.0
 10
216.4473344618488
 20
69.75384847927738
 30
0.0
 10
216.5941429996
 20
68.2346658212
 30
0.0
 11
189.809947586
 21
96.5764287836
 31
0.0
 11
194.394158848
 21
95.4581662766
 31
0.0
 11
198.7593165023
 21
93.70226308600001
 31
0.0
 11
202.8139651734
 21
91.34775149319999
 31
0.0
 11
206.4748019659
 21
88.44541615569999
 31
0.0
 11
209.6663438274
 21
85.05614781869999
 31
0.0
 11
212.3218390427
 21
81.2550806878
 31
0.0
 11
214.3875930127
 21
77.120846575
 31
0.0
 11
215.8202691741
 21
72.74757370419999
 31
0.0
 11
216.5941429996
 21
68.2346658212
 31
0.0
  0
SPLINE
  5
117
330
2
100
AcDbEntity
  8
DEFAULT_2
  6
HIDDEN
 62
     8
100
AcDbSpline
210
0.0
220
0.0
230
1.0
 70
     8
 71
     3
 72
    10
 73
     6
 74
     4
 42
0.0000000001
 43
0.0000000001
 44
0.0000000001
 12
0.9999999956337392
 22
0.00009344796336
 32
0.0
 13
0.9877242126992268
 23
-0.1562078091764066
 33
0.0
 40
0.0
 40
0.0
 40
0.0
 40
0.0
 40
1.72992844481369
 40
3.460592741067149
 40
5.192028617366982
 40
5.192028617366982
 40
5.192028617366982
 40
5.192028617366982
 10
184.2857142857
 20
97.04067138480001
 30
0.0
 10
184.8623570981201
 20
97.04072527089664
 30
0.0
 10
186.0161173378524
 20
97.01049872838233
 30
0.0
 10
187.7422264071622
 20
96.87531761089969
 30
0.0
 10
188.8869876409475
 20
96.72438657545541
 30
0.0
 10
189.4570480202
 20
96.6342319738
 30
0.0
 11
184.2857142857
 21
97.04067138480001
 31
0.0
 11
186.0150539994
 21
96.99554291490001
 31
0.0
 11
187.7404139009
 21
96.86014676790001
 31
0.0
 11
189.4570480202
 21
96.6342319738
 31
0.0
  0
SPLINE
  5
118
330
2
100
AcDbEntity
  8
DEFAULT_2
  6
HIDDEN
 62
     8
100
AcDbSpline
210
0.0
220
0.0
230
1.0
 70
     8
 71
     3
 72
    17
 73
    13
 74
    11
 42
0.0000000001
 43
0.0000000001
 44
0.0000000001
 12
0.1452248270988726
 22
0.9893986808127969
 32
0.0
 13
0.9999999956337394
 23
0.0000934479624317
 33
0.0
 40
0.0
 40
0.0
 40
0.0
 40
0.0
 40
4.50886350917372
 40
9.039942704157454
 40
13.59056482565335
 40
18.15718482392555
 40
22.73854294429923
 40
27.33752875456552
 40
31.95381372365302
 40
36.58507264922898
 40
41.22995583450376
 40
45.88529475034596
 40
45.88529475034596
 40
45.88529475034596
 40
45.88529475034596
 10
152.1639226164
 20
69.7646230789
 30
0.0
 10
152.382188924244
 20
71.25164428154715
 30
0.0
 10
153.036790786344
 20
74.20566556775947
 30
0.0
 10
154.6479773460046
 20
78.45572411351942
 30
0.0
 10
156.8639777890628
 20
82.4473032328294
 30
0.0
 10
159.6392793946186
 20
86.09297773755072
 30
0.0
 10
162.9174370681951
 20
89.31700464406052
 30
0.0
 10
166.6330549694617
 20
92.05318456425066
 30
0.0
 10
170.712604808473
 20
94.24463144535943
 30
0.0
 10
175.0744441231948
 20
95.84551829775264
 30
0.0
 10
179.6294543980441
 20
96.82162827697666
 30
0.0
 10
182.7339346538614
 20
97.04052637415465
 30
0.0
 10
184.2857142857
 20
97.04067138480001
 30
0.0
 11
152.1639226164
 21
69.7646230789
 31
0.0
 11
153.138945228
 21
74.16680220419999
 31
0.0
 11
154.744705799
 21
78.4038072384
 31
0.0
 11
156.9527625772
 21
82.3828331188
 31
0.0
 11
159.7180562574
 21
86.0170000207
 31
0.0
 11
162.9837637472
 21
89.23009771889999
 31
0.0
 11
166.6864931684
 21
91.95781935360001
 31
0.0
 11
170.7527747753
 21
94.1430975531
 31
0.0
 11
175.10019223
 21
95.7395062446
 31
0.0
 11
179.6419244025
 21
96.71295818389999
 31
0.0
 11
184.2857142857
 21
97.04067138480001
 31
0.0
  0
SPLINE
  5
119
330
2
100
AcDbEntity
  8
DEFAULT_2
  6
HIDDEN
 62
     8
100
AcDbSpline
210
0.0
220
0.0
230
1.0
 70
     8
 71
     3
 72
    10
 73
     6
 74
     4
 42
0.0000000001
 43
0.0000000001
 44
0.0000000001
 12
0.0000002122272246
 22
0.9999999999999774
 32
0.0
 13
0.1452248270999313
 23
0.9893986808126413
 33
0.0
 40
0.0
 40
0.0
 40
0.0
 40
0.0
 40
1.564861887498408
 40
3.080087117165354
 40
4.545599659307149
 40
4.545599659307149
 40
4.545599659307149
 40
4.545599659307149
 10
151.8326296278
 20
65.23469387769999
 30
0.0
 10
151.8326297385021
 20
65.75631450686612
 30
0.0
 10
151.858656767941
 20
66.78320146467112
 30
0.0
 10
151.9715719606817
 20
68.2947249800588
 30
0.0
 10
152.0929796812182
 20
69.28129768693017
 30
0.0
 10
152.1639226164
 20
69.7646230789
 30
0.0
 11
151.8326296278
 21
65.23469387769999
 31
0.0
 11
151.8721072705
 21
66.7990577237
 31
0.0
 11
151.9850462566
 21
68.3100680751
 31
0.0
 11
152.1639226164
 21
69.7646230789
 31
0.0
  0
SPLINE
  5
11A
330
2
100
AcDbEntity
  8
DEFAULT_2
  6
HIDDEN
 62
     8
100
AcDbSpline
210
0.0
220
0.0
230
1.0
 70
     8
 71
     3
 72
    18
 73
    14
 74
    12
 42
0.0000000001
 43
0.0000000001
 44
0.0000000001
 12
-0.999999995760729
 22
0.0000920789982543
 32
0.0
 13
-0.0000001749145296
 23
0.9999999999999847
 33
0.0
 40
0.0
 40
0.0
 40
0.0
 40
0.0
 40
4.669619485522892
 40
9.329679720161013
 40
13.9734987772915
 40
18.59515802658448
 40
23.20004662344558
 40
27.78435401852129
 40
32.34991697141642
 40
36.90009544345237
 40
41.4317807933851
 40
45.9420359175987
 40
50.4274860504524
 40
50.4274860504524
 40
50.4274860504524
 40
50.4274860504524
 10
184.2857142857
 20
33.4289311395
 30
0.0
 10
182.729174463791
 20
33.42907446412816
 30
0.0
 10
179.6148065540241
 20
33.64852665971024
 30
0.0
 10
175.0464561208571
 20
34.63032018303572
 30
0.0
 10
170.6762201590784
 20
36.24072120983398
 30
0.0
 10
166.5926786931447
 20
38.44155732172262
 30
0.0
 10
162.877337894577
 20
41.18620815642699
 30
0.0
 10
159.6027282705357
 20
44.41760720469346
 30
0.0
 10
156.8340101408581
 20
48.06895878451922
 30
0.0
 10
154.6249040608337
 20
52.0636778450591
 30
0.0
 10
153.020347482299
 20
56.31786422649259
 30
0.0
 10
152.0496755057937
 20
60.73655339400152
 30
0.0
 10
151.8326314294234
 20
63.73954383341546
 30
0.0
 10
151.8326311679
 20
65.23469387769999
 30
0.0
 11
184.2857142857
 21
33.4289311395
 31
0.0
 11
179.6277033204
 21
33.7579903845
 31
0.0
 11
175.071724802
 21
34.7373887357
 31
0.0
 11
170.7144680375
 21
36.3434301186
 31
0.0
 11
166.6465236442
 21
38.5369575585
 31
0.0
 11
162.9432098315
 21
41.2738290926
 31
0.0
 11
159.6808961503
 21
44.4945718234
 31
0.0
 11
156.9228824762
 21
48.1329403658
 31
0.0
 11
154.7218063515
 21
52.1153250811
 31
0.0
 11
153.1229622337
 21
56.3555927139
 31
0.0
 11
152.1556001514
 21
60.7608863349
 31
0.0
 11
151.8326311679
 21
65.23469387769999
 31
0.0
  0
SPLINE
  5
11B
330
2
100
AcDbEntity
  8
DEFAULT_2
  6
HIDDEN
 62
     8
100
AcDbSpline
210
0.0
220
0.0
230
1.0
 70
     8
 71
     3
 72
    16
 73
    12
 74
    10
 42
0.0000000001
 43
0.0000000001
 44
0.0000000001
 12
-0.2397881627691063
 22
-0.970825235042753
 32
0.0
 13
-0.9999999957607291
 23
0.0000920789981251
 33
0.0
 40
0.0
 40
0.0
 40
0.0
 40
0.0
 40
4.688536117409593
 40
9.401583392564287
 40
14.13525882797036
 40
18.88627423541131
 40
23.654084373875
 40
28.4400865728745
 40
33.23988047927179
 40
38.05222207364801
 40
42.87307399489125
 40
42.87307399489125
 40
42.87307399489125
 40
42.87307399489125
 10
215.8272672357
 20
57.7504570122
 30
0.0
 10
215.4525154151432
 20
56.23320728613647
 30
0.0
 10
214.4703332240154
 20
53.2426899279636
 30
0.0
 10
212.3430416599408
 20
49.01972166279154
 30
0.0
 10
209.5971274008889
 20
45.14335594492452
 30
0.0
 10
206.2957975522005
 20
41.70291404872537
 30
0.0
 10
202.5096276710117
 20
38.77592672118221
 30
0.0
 10
198.3213167127249
 20
36.42767896511362
 30
0.0
 10
193.8209842579288
 20
34.71070963405448
 30
0.0
 10
189.1086040580544
 20
33.66416149377744
 30
0.0
 10
185.8926649193021
 20
33.428783173095
 30
0.0
 10
184.2857142857
 20
33.4289311395
 30
0.0
 11
215.8272672357
 21
57.7504570122
 31
0.0
 11
214.3652789982
 21
53.2956886324
 31
0.0
 11
212.2452493231
 21
49.0863788559
 31
0.0
 11
209.5101703688
 21
45.22282786729999
 31
0.0
 11
206.2213248618
 21
41.79417760329999
 31
0.0
 11
202.4499208229
 21
38.8772399811
 31
0.0
 11
198.2757135734
 21
36.53591324460001
 31
0.0
 11
193.7915020992
 21
34.8242272341
 31
0.0
 11
189.0937401714
 21
33.7803572754
 31
0.0
 11
184.2857142857
 21
33.4289311395
 31
0.0
  0
SPLINE
  5
11C
330
2
100
AcDbEntity
  8
DEFAULT_2
  6
HIDDEN
 62
     8
100
AcDbSpline
210
0.0
220
0.0
230
1.0
 70
     8
 71
     3
 72
    10
 73
     6
 74
     4
 42
0.0000000001
 43
0.0000000001
 44
0.0000000001
 12
-0.09618934484628
 22
-0.9953630543364784
 32
0.0
 13
-0.2375845026800559
 23
-0.9713668740935478
 33
0.0
 40
0.0
 40
0.0
 40
0.0
 40
0.0
 40
1.489329281853623
 40
2.983340441656152
 40
4.482006688907013
 40
4.482006688907013
 40
4.482006688907013
 40
4.482006688907013
 10
216.5941463177
 20
62.23472158229999
 30
0.0
 10
216.5463937817394
 20
61.74058046800047
 30
0.0
 10
216.4267670503302
 20
60.75289818340277
 30
0.0
 10
216.176773022456
 20
59.27943808830027
 30
0.0
 10
215.9625769945122
 20
58.30467772043386
 30
0.0
 10
215.8438903695
 20
57.8194261378
 30
0.0
 11
216.5941463177
 21
62.23472158229999
 31
0.0
 11
216.4152975083
 21
60.7561699893
 31
0.0
 11
216.1652512334
 21
59.2832320388
 31
0.0
 11
215.8438903695
 21
57.8194261378
 31
0.0
  0
SPLINE
  5
11D
330
2
100
AcDbEntity
  8
DEFAULT_2
  6
HIDDEN
 62
     8
100
AcDbSpline
210
0.0
220
0.0
230
1.0
 70
     8
 71
     3
 72
    10
 73
     6
 74
     4
 42
0.0000000001
 43
0.0000000001
 44
0.0000000001
 12
0.882757008042828
 22
-0.4698298253104784
 32
0.0
 13
0.9930438930565113
 23
-0.1177447513189796
 33
0.0
 40
0.0
 40
0.0
 40
0.0
 40
0.0
 40
0.3692308326737687
 40
0.7400962634833367
 40
1.118330585716782
 40
1.118330585716782
 40
1.118330585716782
 40
1.118330585716782
 10
215.5323958671
 20
62.5673214903
 30
0.0
 10
215.6410429021428
 20
62.50949627109521
 30
0.0
 10
215.8661333475493
 20
62.40672651848028
 30
0.0
 10
216.2225445969143
 20
62.29461590108802
 30
0.0
 10
216.4689452230872
 20
62.24956661770389
 30
0.0
 10
216.5941463177
 20
62.23472158229999
 30
0.0
 11
215.5323958671
 21
62.5673214903
 31
0.0
 11
215.8683187586
 21
62.4140660866
 31
0.0
 11
216.2220743831
 21
62.3027192146
 31
0.0
 11
216.5941463177
 21
62.23472158229999
 31
0.0
  0
SPLINE
  5
11E
330
2
100
AcDbEntity
  8
DEFAULT_2
  6
HIDDEN
 62
     8
100
AcDbSpline
210
0.0
220
0.0
230
1.0
 70
     8
 71
     3
 72
    10
 73
     6
 74
     4
 42
0.0000000001
 43
0.0000000001
 44
0.0000000001
 12
0.9977446265027445
 22
-0.067124215339169
 32
0.0
 13
0.7281719810056569
 23
0.6853944602039745
 33
0.0
 40
0.0
 40
0.0
 40
0.0
 40
0.0
 40
0.8520770478526056
 40
1.671013345388435
 40
2.463736348541039
 40
2.463736348541039
 40
2.463736348541039
 40
2.463736348541039
 10
216.5941466295
 20
62.2347228142
 30
0.0
 10
216.8775317281204
 20
62.21565781311812
 30
0.0
 10
217.4420146899254
 20
62.25802058880076
 30
0.0
 10
218.2210582785978
 20
62.54604633183799
 30
0.0
 10
218.6634008254018
 20
62.86390011382098
 30
0.0
 10
218.8558137186
 20
63.0450094321
 30
0.0
 11
216.5941466295
 21
62.2347228142
 31
0.0
 11
217.4438229653
 21
62.2986401034
 31
0.0
 11
218.2119778172
 21
62.5825323064
 31
0.0
 11
218.8558137186
 21
63.0450094321
 31
0.0
  0
SPLINE
  5
11F
330
2
100
AcDbEntity
  8
DEFAULT_2
  6
HIDDEN
 62
     8
100
AcDbSpline
210
0.0
220
0.0
230
1.0
 70
     8
 71
     3
 72
    10
 73
     6
 74
     4
 42
0.0000000001
 43
0.0000000001
 44
0.0000000001
 12
0.239788162594293
 22
0.9708252350859309
 32
0.0
 13
0.2375845026233821
 23
0.9713668741074096
 33
0.0
 40
0.0
 40
0.0
 40
0.0
 40
0.0
 40
0.0236101971571954
 40
0.0472583440586955
 40
0.0709445183920705
 40
0.0709445183920705
 40
0.0709445183920705
 40
0.0709445183920705
 10
215.8272672357
 20
57.7504570122
 30
0.0
 10
215.8291543842982
 20
57.75809747060185
 30
0.0
 10
215.8329291103368
 20
57.77339168165017
 30
0.0
 10
215.8382558739512
 20
57.79643268357819
 30
0.0
 10
215.8420145468507
 20
57.81175681609274
 30
0.0
 10
215.8438903695
 20
57.8194261378
 30
0.0
 11
215.8272672357
 21
57.7504570122
 31
0.0
 11
215.8328695691
 21
57.773392907
 31
0.0
 11
215.838304098
 21
57.7964081356
 31
0.0
 11
215.8438903695
 21
57.8194261378
 31
0.0
  0
SPLINE
  5
120
330
2
100
AcDbEntity
  8
0
  6
Continuous
 62
     7
100
AcDbSpline
210
0.0
220
0.0
230
1.0
 70
     8
 71
     3
 72
    13
 73
     9
 74
     7
 42
0.0000000001
 43
0.0000000001
 44
0.0000000001
 12
0.0033487442183305
 22
0.9999943929403604
 32
0.0
 13
-0.0033487443029896
 23
0.9999943929400771
 33
0.0
 40
0.0
 40
0.0
 40
0.0
 40
0.0
 40
13.29749615417934
 40
26.70219366422982
 40
40.16059962555816
 40
53.6190055869865
 40
67.02370309703699
 40
80.32119925061634
 40
80.32119925061634
 40
80.32119925061634
 40
80.32119925061634
 10
144.6340778652
 20
25.074166147
 30
0.0
 10
144.6489211696548
 20
29.50664001177512
 30
0.0
 10
144.6736171908685
 20
38.40733921930035
 30
0.0
 10
144.6957848023029
 20
51.79419001985024
 30
0.0
 10
144.7031839568929
 20
65.23469387783328
 30
0.0
 10
144.6957848023468
 20
78.67519773581659
 30
0.0
 10
144.6736171906951
 20
92.06204853619906
 30
0.0
 10
144.6489211700294
 20
100.9627477435261
 30
0.0
 10
144.6340778652
 20
105.3952216081
 30
0.0
 11
144.6340778652
 21
25.074166147
 31
0.0
 11
144.6710487156
 21
38.3716109063
 31
0.0
 11
144.6932904784
 21
51.776289964
 31
0.0
 11
144.7007142868
 21
65.2346938778
 31
0.0
 11
144.6932904784
 21
78.69309779169999
 31
0.0
 11
144.6710487156
 21
92.0977768494
 31
0.0
 11
144.6340778652
 21
105.3952216081
 31
0.0
  0
SPLINE
  5
121
330
2
100
AcDbEntity
  8
0
  6
Continuous
 62
     7
100
AcDbSpline
210
0.0
220
0.0
230
1.0
 70
     8
 71
     3
 72
    15
 73
    11
 74
     9
 42
0.0000000001
 43
0.0000000001
 44
0.0000000001
 12
-1.0
 22
0.0000000017233052
 32
0.0
 13
0.0033487442050345
 23
0.999994392940405
 33
0.0
 40
0.0
 40
0.0
 40
0.0
 40
0.0
 40
1.757704296170117
 40
3.512752413027977
 40
5.282539020840101
 40
7.05568467922031
 40
8.851462119644695
 40
10.65182648093588
 40
12.48229630136934
 40
14.3329229589054
 40
14.3329229589054
 40
14.3329229589054
 40
14.3329229589054
 10
153.7333192984
 20
15.9061901513
 30
0.0
 10
153.1474178663433
 20
15.90619015230968
 30
0.0
 10
151.9733287957298
 20
16.02002888999376
 30
0.0
 10
150.2762226006472
 20
16.52754064573422
 30
0.0
 10
148.7038497780974
 20
17.3562649988539
 30
0.0
 10
147.3117383739545
 20
18.48289996342723
 30
0.0
 10
146.1596976176047
 20
19.86779194854213
 30
0.0
 10
145.2921109550367
 20
21.46853671497256
 30
0.0
 10
144.7520373910947
 20
23.22625082695435
 30
0.0
 10
144.6320121095683
 20
24.45729503024597
 30
0.0
 10
144.634077868
 20
25.0741671239
 30
0.0
 11
153.7333192984
 21
15.9061901513
 31
0.0
 11
151.9838475237
 21
16.0761104335
 31
0.0
 11
150.3023494965
 21
16.5788611441
 31
0.0
 11
148.7366984588
 21
17.404016563
 31
0.0
 11
147.3583369225
 21
18.5194380085
 31
0.0
 11
146.2097201058
 21
19.8998350615
 31
0.0
 11
145.3516914829
 21
21.4825854258
 31
0.0
 11
144.8140266334
 21
23.2323100536
 31
0.0
 11
144.634077868
 21
25.0741671239
 31
0.0
  0
SPLINE
  5
122
330
2
100
AcDbEntity
  8
0
  6
Continuous
 62
     7
100
AcDbSpline
210
0.0
220
0.0
230
1.0
 70
     8
 71
     3
 72
    15
 73
    11
 74
     9
 42
0.0000000001
 43
0.0000000001
 44
0.0000000001
 12
0.0033487433002273
 22
-0.9999943929434351
 32
0.0
 13
-1.0
 23
-0.0000000002721008
 33
0.0
 40
0.0
 40
0.0
 40
0.0
 40
0.0
 40
1.827871275384482
 40
3.630581549885473
 40
5.434979560558073
 40
7.226345791917789
 40
9.019805260344154
 40
10.79515724738636
 40
12.57103452790848
 40
14.33292384535348
 40
14.33292384535348
 40
14.33292384535348
 40
14.33292384535348
 10
223.9373507062
 20
25.0741661516
 30
0.0
 10
223.939391063429
 20
24.46487914279772
 30
0.0
 10
223.822522364748
 20
23.25079897955432
 30
0.0
 10
223.294053362031
 20
21.50628350805401
 30
0.0
 10
222.4396147381978
 20
19.9090540033375
 30
0.0
 10
221.2907016919479
 20
18.51303515991108
 30
0.0
 10
219.8979714132517
 20
17.37525179024482
 30
0.0
 10
218.3142260701029
 20
16.53443924568154
 30
0.0
 10
216.6078540402656
 20
16.0210960741953
 30
0.0
 10
215.4254057114483
 20
15.9061901514598
 30
0.0
 10
214.8381092723
 20
15.9061901513
 30
0.0
 11
223.9373507062
 21
25.0741661516
 31
0.0
 11
223.7618537815
 21
23.2547392559
 31
0.0
 11
223.239225112
 21
21.5294498287
 31
0.0
 11
222.3878301152
 21
19.938544822
 31
0.0
 11
221.2493958747
 21
18.5554466856
 31
0.0
 11
219.8603768718
 21
17.4209322192
 31
0.0
 11
218.2923344925
 21
16.5883952683
 31
0.0
 11
216.5917070255
 21
16.0769206023
 31
0.0
 11
214.8381092723
 21
15.9061901513
 31
0.0
  0
SPLINE
  5
123
330
2
100
AcDbEntity
  8
0
  6
Continuous
 62
     7
100
AcDbSpline
210
0.0
220
0.0
230
1.0
 70
     8
 71
     3
 72
    13
 73
     9
 74
     7
 42
0.0000000001
 43
0.0000000001
 44
0.0000000001
 12
-0.0033487442178052
 22
-0.9999943929403622
 32
0.0
 13
0.0033487443024685
 23
-0.9999943929400789
 33
0.0
 40
0.0
 40
0.0
 40
0.0
 40
0.0
 40
13.29749615637933
 40
26.70219366842981
 40
40.16059963185814
 40
53.61900559528649
 40
67.02370310743697
 40
80.3211992632163
 40
80.3211992632163
 40
80.3211992632163
 40
80.3211992632163
 10
223.9373507062
 20
105.3952216207
 30
0.0
 10
223.922507401745
 20
100.9627477551915
 30
0.0
 10
223.8978113805318
 20
92.06204854626628
 30
0.0
 10
223.8756437690969
 20
78.67519774361642
 30
0.0
 10
223.8682446145071
 20
65.23469388360005
 30
0.0
 10
223.8756437690531
 20
51.79419002355007
 30
0.0
 10
223.8978113807052
 20
38.40733922106763
 30
0.0
 10
223.9225074013704
 20
29.5066400123072
 30
0.0
 10
223.9373507062
 20
25.074166147
 30
0.0
 11
223.9373507062
 21
105.3952216207
 31
0.0
 11
223.9003798558
 21
92.0977768592
 31
0.0
 11
223.878138093
 21
78.6930977995
 31
0.0
 11
223.8707142846
 21
65.2346938836
 31
0.0
 11
223.878138093
 21
51.7762899677
 31
0.0
 11
223.9003798558
 21
38.3716109079
 31
0.0
 11
223.9373507062
 21
25.074166147
 31
0.0
  0
SPLINE
  5
124
330
2
100
AcDbEntity
  8
0
  6
Continuous
 62
     7
100
AcDbSpline
210
0.0
220
0.0
230
1.0
 70
     8
 71
     3
 72
    15
 73
    11
 74
     9
 42
0.0000000001
 43
0.0000000001
 44
0.0000000001
 12
1.0
 22
-0.0000000013046885
 32
0.0
 13
-0.003348741451757
 23
-0.999994392949625
 33
0.0
 40
0.0
 40
0.0
 40
0.0
 40
0.0
 40
1.757704293444118
 40
3.512752403377958
 40
5.282539003303447
 40
7.055684654396815
 40
8.851462090028363
 40
10.65182645081616
 40
12.48229627676884
 40
14.33292297765539
 40
14.33292297765539
 40
14.33292297765539
 40
14.33292297765539
 10
214.8381092707
 20
114.5631976038
 30
0.0
 10
215.424010701848
 20
114.5631976030356
 30
0.0
 10
216.5980997692181
 20
114.4493588653136
 30
0.0
 10
218.2952059589097
 20
113.941847112587
 30
0.0
 10
219.8675787760879
 20
113.1131227653506
 30
0.0
 10
221.2596901777057
 20
111.986487808521
 30
0.0
 10
222.4117309359094
 20
110.6015958304496
 30
0.0
 10
223.2793176038446
 20
109.0008510670458
 30
0.0
 10
223.8193911798089
 20
107.2431369413135
 30
0.0
 10
223.9394164601816
 20
106.0120927213098
 30
0.0
 10
223.9373507034
 20
105.3952206132
 30
0.0
 11
214.8381092707
 21
114.5631976038
 31
0.0
 11
216.5875810427
 21
114.393277322
 31
0.0
 11
218.2690790636
 21
113.8905266145
 31
0.0
 11
219.8347300956
 21
113.0653712017
 31
0.0
 11
221.213091629
 21
111.9499497642
 31
0.0
 11
222.3617084471
 21
110.5695527186
 31
0.0
 11
223.2197370754
 21
108.9868023578
 31
0.0
 11
223.7574019323
 21
107.2370777265
 31
0.0
 11
223.9373507034
 21
105.3952206132
 31
0.0
  0
SPLINE
  5
125
330
2
100
AcDbEntity
  8
0
  6
Continuous
 62
     7
100
AcDbSpline
210
0.0
220
0.0
230
1.0
 70
     8
 71
     3
 72
    15
 73
    11
 74
     9
 42
0.0000000001
 43
0.0000000001
 44
0.0000000001
 12
-0.0033487432581091
 22
0.9999943929435762
 32
0.0
 13
1.0
 23
0.0000000000139539
 33
0.0
 40
0.0
 40
0.0
 40
0.0
 40
0.0
 40
1.827871275583554
 40
3.630581550333939
 40
5.434979561141887
 40
7.226345792551503
 40
9.019805261132766
 40
10.79515724830473
 40
12.57103452898958
 40
14.33292384650502
 40
14.33292384650502
 40
14.33292384650502
 40
14.33292384650502
 10
144.6340778653
 20
105.3952216036
 30
0.0
 10
144.6320375080963
 20
106.0045086124687
 30
0.0
 10
144.7489062066766
 20
107.2185887758812
 30
0.0
 10
145.277375209704
 20
108.9631042474932
 30
0.0
 10
146.1318138335257
 20
110.560333752383
 30
0.0
 10
147.2807268801145
 20
111.9563525956886
 30
0.0
 10
148.6734571589234
 20
113.0941359653821
 30
0.0
 10
150.2572025023206
 20
113.934948509809
 30
0.0
 10
151.9635745322987
 20
114.4482916812327
 30
0.0
 10
153.1460228612282
 20
114.5631976037918
 30
0.0
 10
153.7333193004
 20
114.5631976038
 30
0.0
 11
144.6340778653
 21
105.3952216036
 31
0.0
 11
144.80957479
 21
107.2146484995
 31
0.0
 11
145.3322034597
 21
108.9399379269
 31
0.0
 11
146.1835984566
 21
110.5308429337
 31
0.0
 11
147.3220326973
 21
111.91394107
 31
0.0
 11
148.7110517004
 21
113.0484555364
 31
0.0
 11
150.2790940799
 21
113.8809924872
 31
0.0
 11
151.9797215471
 21
114.3924671531
 31
0.0
 11
153.7333193004
 21
114.5631976038
 31
0.0
  0
SPLINE
  5
126
330
2
100
AcDbEntity
  8
0
  6
Continuous
 62
     7
100
AcDbSpline
210
0.0
220
0.0
230
1.0
 70
     8
 71
     3
 72
    10
 73
     6
 74
     4
 42
0.0000000001
 43
0.0000000001
 44
0.0000000001
 12
-0.0038250194559682
 22
0.9999926845863232
 32
0.0
 13
-0.0035671162508442
 23
0.9999936378205877
 33
0.0
 40
0.0
 40
0.0
 40
0.0
 40
0.0
 40
0.991753016963081
 40
1.984508383842421
 40
2.977247993440577
 40
2.977247993440577
 40
2.977247993440577
 40
2.977247993440577
 10
215.6500901274
 20
19.1738087774
 30
0.0
 10
215.6488256358715
 20
19.5043906980265
 30
0.0
 10
215.6463239289805
 20
20.16588876306018
 30
0.0
 10
215.6426561519042
 20
21.15829798425849
 30
0.0
 10
215.6402670823648
 20
21.82012533202978
 30
0.0
 10
215.6390866765
 20
22.1510364299
 30
0.0
 11
215.6500901274
 21
19.1738087774
 31
0.0
 11
215.6463394084
 21
20.1655547019
 31
0.0
 11
215.6426703657
 21
21.1583032887
 31
0.0
 11
215.6390866765
 21
22.1510364299
 31
0.0
  0
SPLINE
  5
127
330
2
100
AcDbEntity
  8
0
  6
Continuous
 62
     7
100
AcDbSpline
210
0.0
220
0.0
230
1.0
 70
     8
 71
     3
 72
    14
 73
    10
 74
     8
 42
0.0000000001
 43
0.0000000001
 44
0.0000000001
 12
-0.0032514702908378
 22
-0.9999947139565028
 32
0.0
 13
-0.9885718924835479
 23
-0.150750168794256
 33
0.0
 40
0.0
 40
0.0
 40
0.0
 40
0.0
 40
1.230615690835411
 40
2.457248472845423
 40
3.687792541434865
 40
4.920911035782409
 40
6.143043031753504
 40
7.362308773414039
 40
8.56385099944185
 40
8.56385099944185
 40
8.56385099944185
 40
8.56385099944185
 10
220.7949110187
 20
25.141618901
 30
0.0
 10
220.7935772485806
 20
24.73141583908422
 30
0.0
 10
220.7070901933351
 20
23.91016494836812
 30
0.0
 10
220.3315109771003
 20
22.73121996287459
 30
0.0
 10
219.7251987757553
 20
21.6510265885962
 30
0.0
 10
218.9138796816533
 20
20.71710275177423
 30
0.0
 10
217.9339540350105
 20
19.96827875094901
 30
0.0
 10
216.8338453280678
 20
19.43577432494706
 30
0.0
 10
216.0460270848278
 20
19.23418634186237
 30
0.0
 10
215.6500901274
 20
19.1738087774
 30
0.0
 11
220.7949110187
 21
25.141618901
 31
0.0
 11
220.6658749906
 21
23.9177869346
 31
0.0
 11
220.2936655001
 21
22.7489892288
 31
0.0
 11
219.6913122688
 21
21.6759518159
 31
0.0
 11
218.8826252558
 21
20.7450347755
 31
0.0
 11
217.9115923456
 21
20.0029419896
 31
0.0
 11
216.8140911368
 21
19.4718110778
 31
0.0
 11
215.6500901274
 21
19.1738087774
 31
0.0
  0
SPLINE
  5
128
330
2
100
AcDbEntity
  8
0
  6
Continuous
 62
     7
100
AcDbSpline
210
0.0
220
0.0
230
1.0
 70
     8
 71
     3
 72
    10
 73
     6
 74
     4
 42
0.0000000001
 43
0.0000000001
 44
0.0000000001
 12
-0.6514114230657602
 22
-0.7587246917686556
 32
0.0
 13
-0.6625796954953687
 23
-0.7489914199223277
 33
0.0
 40
0.0
 40
0.0
 40
0.0
 40
0.0
 40
0.0807187332687908
 40
0.1608340201221208
 40
0.2403599527052269
 40
0.2403599527052269
 40
0.2403599527052269
 40
0.2403599527052269
 10
215.6500901274
 20
19.1738087774
 30
0.0
 10
215.6325630924311
 20
19.15339434539356
 30
0.0
 10
215.5975284476418
 20
19.11281381422186
 30
0.0
 10
215.544883253969
 20
19.05241732864594
 30
0.0
 10
215.5097270341983
 20
19.01247023735535
 30
0.0
 10
215.4921629448
 20
18.9926154903
 30
0.0
 11
215.6500901274
 21
19.1738087774
 31
0.0
 11
215.5973485709
 21
19.1127036048
 31
0.0
 11
215.5447061759
 21
19.0523112424
 31
0.0
 11
215.4921629448
 21
18.9926154903
 31
0.0
  0
SPLINE
  5
129
330
2
100
AcDbEntity
  8
0
  6
Continuous
 62
     7
100
AcDbSpline
210
0.0
220
0.0
230
1.0
 70
     8
 71
     3
 72
    10
 73
     6
 74
     4
 42
0.0000000001
 43
0.0000000001
 44
0.0000000001
 12
-0.0032431809520666
 22
-0.9999947408748269
 32
0.0
 13
-0.0033102370009017
 23
-0.9999945211504901
 33
0.0
 40
0.0
 40
0.0
 40
0.0
 40
0.0
 40
0.2616210781899727
 40
0.5231816341434548
 40
0.7847002794923608
 40
0.7847002794923608
 40
0.7847002794923608
 40
0.7847002794923608
 10
220.7974828208
 20
25.9264262518
 30
0.0
 10
220.7971999926342
 20
25.83921968436934
 30
0.0
 10
220.7966324547411
 20
25.66482672978869
 30
0.0
 10
220.7957753811559
 20
25.40326137412497
 30
0.0
 10
220.7952001623988
 20
25.22890258917587
 30
0.0
 10
220.7949115995
 20
25.141730185
 30
0.0
 11
220.7974828208
 21
25.9264262518
 31
0.0
 11
220.7966314146
 21
25.664806559
 31
0.0
 11
220.7957743613
 21
25.4032474072
 31
0.0
 11
220.7949115995
 21
25.141730185
 31
0.0
  0
SPLINE
  5
12A
330
2
100
AcDbEntity
  8
0
  6
Continuous
 62
     7
100
AcDbSpline
210
0.0
220
0.0
230
1.0
 70
     8
 71
     3
 72
    10
 73
     6
 74
     4
 42
0.0000000001
 43
0.0000000001
 44
0.0000000001
 12
-0.0033102382638698
 22
0.9999945211463092
 32
0.0
 13
-0.0032431809409075
 23
0.9999947408748631
 33
0.0
 40
0.0
 40
0.0
 40
0.0
 40
0.0
 40
0.2614997605481253
 40
0.523069757353158
 40
0.7847002823936654
 40
0.7847002823936654
 40
0.7847002823936654
 40
0.7847002823936654
 10
147.7765169723
 20
25.1417301856
 30
0.0
 10
147.7762284301288
 20
25.2288962948764
 30
0.0
 10
147.7756532211771
 20
25.40325193185764
 30
0.0
 10
147.7747961475642
 20
25.66481728848838
 30
0.0
 10
147.7742285889774
 20
25.83921653893572
 30
0.0
 10
147.7739457506
 20
25.9264262553
 30
0.0
 11
147.7765169723
 21
25.1417301856
 31
0.0
 11
147.7756542722
 21
25.4032285231
 31
0.0
 11
147.7747971877
 21
25.6647971157
 31
0.0
 11
147.7739457506
 21
25.9264262553
 31
0.0
  0
SPLINE
  5
12B
330
2
100
AcDbEntity
  8
0
  6
Continuous
 62
     7
100
AcDbSpline
210
0.0
220
0.0
230
1.0
 70
     8
 71
     3
 72
    15
 73
    11
 74
     9
 42
0.0000000001
 43
0.0000000001
 44
0.0000000001
 12
1.0
 22
0.0000000001745341
 32
0.0
 13
0.0000000009075771
 23
1.0
 33
0.0
 40
0.0
 40
0.0
 40
0.0
 40
0.0
 40
2.023523590359653
 40
3.874769770441469
 40
5.606516158544968
 40
7.271627573309503
 40
8.92297530284874
 40
10.61354260749282
 40
12.39622884712707
 40
14.32385172991449
 40
14.32385172991449
 40
14.32385172991449
 40
14.32385172991449
 10
214.6396626877
 20
16.1046367859
 30
0.0
 10
215.3141705511532
 20
16.10463678601772
 30
0.0
 10
216.6105271995968
 20
16.24892468870223
 30
0.0
 10
218.3938080143666
 20
16.84711319156218
 30
0.0
 10
219.9213018019075
 20
17.72149652828016
 30
0.0
 10
221.2086599668318
 20
18.81957021940249
 30
0.0
 10
222.2675037741628
 20
20.12144611397891
 30
0.0
 10
223.0905090516118
 20
21.6296392328768
 30
0.0
 10
223.6417684373475
 20
23.35481090067185
 30
0.0
 10
223.7732713768168
 20
24.59570450797086
 30
0.0
 10
223.7732713774
 20
25.2382454689
 30
0.0
 11
214.6396626877
 21
16.1046367859
 31
0.0
 11
216.6507385233
 21
16.328738781
 31
0.0
 11
218.4059764492
 21
16.9171708015
 31
0.0
 11
219.9088752017
 21
17.7775433327
 31
0.0
 11
221.1757687648
 21
18.8580879747
 31
0.0
 11
222.2176986436
 21
20.1392325612
 31
0.0
 11
223.0275522642
 21
21.6231985058
 31
0.0
 11
223.5699082437
 21
23.3213799509
 31
0.0
 11
223.7732713774
 21
25.2382454689
 31
0.0
  0
SPLINE
  5
12C
330
2
100
AcDbEntity
  8
0
  6
Continuous
 62
     7
100
AcDbSpline
210
0.0
220
0.0
230
1.0
 70
     8
 71
     3
 72
    10
 73
     6
 74
     4
 42
0.0000000001
 43
0.0000000001
 44
0.0000000001
 12
-0.6625796841663855
 22
0.7489914299442772
 32
0.0
 13
-0.6514114087254432
 23
0.758724704080692
 33
0.0
 40
0.0
 40
0.0
 40
0.0
 40
0.0
 40
0.0795259400390521
 40
0.1596412286918629
 40
0.2403599639081658
 40
0.2403599639081658
 40
0.2403599639081658
 40
0.2403599639081658
 10
153.0792656266
 20
18.9926143841
 30
0.0
 10
153.0617015358553
 20
19.0124691332825
 30
0.0
 10
153.0265453147722
 20
19.05241622752841
 30
0.0
 10
152.9739001197445
 20
19.11281271687656
 30
0.0
 10
152.9388654748059
 20
19.15339324956974
 30
0.0
 10
152.9213384398
 20
19.1738076824
 30
0.0
 11
153.0792656266
 21
18.9926143841
 31
0.0
 11
153.0267223916
 21
19.0523101427
 31
0.0
 11
152.9740799965
 21
19.1127025074
 31
0.0
 11
152.9213384398
 21
19.1738076824
 31
0.0
  0
SPLINE
  5
12D
330
2
100
AcDbEntity
  8
0
  6
Continuous
 62
     7
100
AcDbSpline
210
0.0
220
0.0
230
1.0
 70
     8
 71
     3
 72
    14
 73
    10
 74
     8
 42
0.0000000001
 43
0.0000000001
 44
0.0000000001
 12
-0.9885718911858736
 22
0.1507501773039918
 32
0.0
 13
-0.0032510478895368
 23
0.9999947153298462
 33
0.0
 40
0.0
 40
0.0
 40
0.0
 40
0.0
 40
1.209876440167578
 40
2.417948182233011
 40
3.640567070538079
 40
4.864770341073587
 40
6.097862521574217
 40
7.331574252661126
 40
8.563836659980585
 40
8.563836659980585
 40
8.563836659980585
 40
8.563836659980585
 10
152.9213384398
 20
19.1738076824
 30
0.0
 10
152.5226551596141
 20
19.23460404502373
 30
0.0
 10
151.7357978889488
 20
19.43652939545984
 30
0.0
 10
150.6368277955846
 20
19.96910790452022
 30
0.0
 10
149.6617717525623
 20
20.71352728448234
 30
0.0
 10
148.8507987391134
 20
21.64493474132838
 30
0.0
 10
148.2425390557906
 20
22.72436014277338
 30
0.0
 10
147.8647644028978
 20
23.90668566895274
 30
0.0
 10
147.7778529619662
 20
24.73085196412697
 30
0.0
 10
147.7765175806
 20
25.1416039292
 30
0.0
 11
152.9213384398
 21
19.1738076824
 31
0.0
 11
151.7494709841
 21
19.4746858417
 31
0.0
 11
150.6622860113
 21
20.0014364173
 31
0.0
 11
149.6905424837
 21
20.7434010139
 31
0.0
 11
148.8866571508
 21
21.6666788806
 31
0.0
 11
148.281269169
 21
22.7409329088
 31
0.0
 11
147.9058976622
 21
23.9161524063
 31
0.0
 11
147.7765175806
 21
25.1416039292
 31
0.0
  0
SPLINE
  5
12E
330
2
100
AcDbEntity
  8
0
  6
Continuous
 62
     7
100
AcDbSpline
210
0.0
220
0.0
230
1.0
 70
     8
 71
     3
 72
    10
 73
     6
 74
     4
 42
0.0000000001
 43
0.0000000001
 44
0.0000000001
 12
0.0035671161449048
 22
0.9999936378209659
 32
0.0
 13
0.0038250195596629
 23
0.9999926845859265
 33
0.0
 40
0.0
 40
0.0
 40
0.0
 40
0.0
 40
0.9927392659953408
 40
1.985495340179836
 40
2.977249062948082
 40
2.977249062948082
 40
2.977249062948082
 40
2.977249062948082
 10
215.6390866766
 20
108.3183513252
 30
0.0
 10
215.6402670820211
 20
108.6492623085368
 30
0.0
 10
215.6426561517886
 20
109.3110897775422
 30
0.0
 10
215.6463239304231
 20
110.3034993552396
 30
0.0
 10
215.6488256390374
 20
110.9649978913069
 30
0.0
 10
215.6500901315
 20
111.2955800472
 30
0.0
 11
215.6390866766
 21
108.3183513252
 31
0.0
 11
215.6426703644
 21
109.3110841228
 31
0.0
 11
215.6463394098
 21
110.3038334169
 31
0.0
 11
215.6500901315
 21
111.2955800472
 31
0.0
  0
SPLINE
  5
12F
330
2
100
AcDbEntity
  8
0
  6
Continuous
 62
     7
100
AcDbSpline
210
0.0
220
0.0
230
1.0
 70
     8
 71
     3
 72
    14
 73
    10
 74
     8
 42
0.0000000001
 43
0.0000000001
 44
0.0000000001
 12
-0.0032510528624854
 22
0.9999947153136787
 32
0.0
 13
-0.988571891854735
 23
0.1507501729178124
 33
0.0
 40
0.0
 40
0.0
 40
0.0
 40
0.0
 40
1.229591160602807
 40
2.458012344298975
 40
3.681747384505752
 40
4.913509518458555
 40
6.132137769190078
 40
7.354141564785361
 40
8.563868930371977
 40
8.563868930371977
 40
8.563868930371977
 40
8.563868930371977
 10
220.7949109882
 20
105.3277843828
 30
0.0
 10
220.7935784995792
 20
105.7376459369997
 30
0.0
 10
220.7070495710636
 20
106.5591174539582
 30
0.0
 10
220.3323877879489
 20
107.7362787800899
 30
0.0
 10
219.7273869203177
 20
108.814642714657
 30
0.0
 10
218.9197447644871
 20
109.7465260845963
 30
0.0
 10
217.9416238055337
 20
110.4964669635001
 30
0.0
 10
216.8400344726119
 20
111.0317060351999
 30
0.0
 10
216.0487242883088
 20
111.2347911773514
 30
0.0
 10
215.6500901315
 20
111.2955800472
 30
0.0
 11
220.7949109882
 21
105.3277843828
 31
0.0
 11
220.6660686405
 21
106.5506065578
 31
0.0
 11
220.2934705646
 21
107.7211574018
 31
0.0
 11
219.6948018491
 21
108.7884545571
 31
0.0
 11
218.8880500336
 21
109.7192549991
 31
0.0
 11
217.9209638915
 21
110.460739461
 31
0.0
 11
216.8218160301
 21
110.9947499995
 31
0.0
 11
215.6500901315
 21
111.2955800472
 31
0.0
  0
SPLINE
  5
130
330
2
100
AcDbEntity
  8
0
  6
Continuous
 62
     7
100
AcDbSpline
210
0.0
220
0.0
230
1.0
 70
     8
 71
     3
 72
    10
 73
     6
 74
     4
 42
0.0000000001
 43
0.0000000001
 44
0.0000000001
 12
0.0033102384123979
 22
-0.9999945211458175
 32
0.0
 13
0.0032431809619858
 23
-0.9999947408747946
 33
0.0
 40
0.0
 40
0.0
 40
0.0
 40
0.0
 40
0.2614997337479461
 40
0.5230697428532326
 40
0.784700277293691
 40
0.784700277293691
 40
0.784700277293691
 40
0.784700277293691
 10
220.7949115991
 20
105.3276575702
 30
0.0
 10
220.7952001412545
 20
105.240491469857
 30
0.0
 10
220.7957753501261
 20
105.0661358377088
 30
0.0
 10
220.796632423875
 20
104.8045704827785
 30
0.0
 10
220.7971999824105
 20
104.6301712250976
 30
0.0
 10
220.7974828208
 20
104.5429615056
 30
0.0
 11
220.7949115991
 21
105.3276575702
 31
0.0
 11
220.7957742991
 21
105.0661592595
 31
0.0
 11
220.7966313837
 21
104.8045906546
 31
0.0
 11
220.7974828208
 21
104.5429615056
 31
0.0
  0
SPLINE
  5
131
330
2
100
AcDbEntity
  8
0
  6
Continuous
 62
     7
100
AcDbSpline
210
0.0
220
0.0
230
1.0
 70
     8
 71
     3
 72
    10
 73
     6
 74
     4
 42
0.0000000001
 43
0.0000000001
 44
0.0000000001
 12
0.662579686150285
 22
-0.7489914281892619
 32
0.0
 13
0.6514114113647031
 23
-0.7587247018147265
 33
0.0
 40
0.0
 40
0.0
 40
0.0
 40
0.0
 40
0.0795259323637884
 40
0.1596412241862921
 40
0.2403599627875923
 40
0.2403599627875923
 40
0.2403599627875923
 40
0.2403599627875923
 10
215.4921629448
 20
111.4767733441
 30
0.0
 10
215.5097270339021
 20
111.4569185968802
 30
0.0
 10
215.54488325424
 20
111.4169715039793
 30
0.0
 10
215.5975284492073
 20
111.3565750150734
 30
0.0
 10
215.6325630956881
 20
111.3159944808254
 30
0.0
 10
215.6500901315
 20
111.2955800472
 30
0.0
 11
215.4921629448
 21
111.4767733441
 31
0.0
 11
215.544706175
 21
111.4170775915
 31
0.0
 11
215.5973485724
 21
111.3566852246
 31
0.0
 11
215.6500901315
 21
111.2955800472
 31
0.0
  0
SPLINE
  5
132
330
2
100
AcDbEntity
  8
0
  6
Continuous
 62
     7
100
AcDbSpline
210
0.0
220
0.0
230
1.0
 70
     8
 71
     3
 72
    10
 73
     6
 74
     4
 42
0.0000000001
 43
0.0000000001
 44
0.0000000001
 12
0.0038250194556554
 22
-0.9999926845863244
 32
0.0
 13
0.0035671162482878
 23
-0.9999936378205969
 33
0.0
 40
0.0
 40
0.0
 40
0.0
 40
0.0
 40
0.9917530083631417
 40
1.984508366742534
 40
2.977247967540392
 40
2.977247967540392
 40
2.977247967540392
 40
2.977247967540392
 10
152.9213384441
 20
111.2955789518
 30
0.0
 10
152.9226029356174
 20
110.9649970340401
 30
0.0
 10
152.9251046425132
 20
110.3034989747065
 30
0.0
 10
152.9287724196351
 20
109.3110897621418
 30
0.0
 10
152.9311614890465
 20
108.6492624201368
 30
0.0
 10
152.9323418949
 20
108.3183513252
 30
0.0
 11
152.9213384441
 21
111.2955789518
 31
0.0
 11
152.9250891631
 21
110.3038330359
 31
0.0
 11
152.9287582058
 21
109.3110844576
 31
0.0
 11
152.9323418949
 21
108.3183513252
 31
0.0
  0
SPLINE
  5
133
330
2
100
AcDbEntity
  8
0
  6
Continuous
 62
     7
100
AcDbSpline
210
0.0
220
0.0
230
1.0
 70
     8
 71
     3
 72
    10
 73
     6
 74
     4
 42
0.0000000001
 43
0.0000000001
 44
0.0000000001
 12
0.6514113868417564
 22
0.7587247228691706
 32
0.0
 13
0.66257965871713
 23
0.7489914524574307
 33
0.0
 40
0.0
 40
0.0
 40
0.0
 40
0.0
 40
0.0807187376594669
 40
0.1608340287535028
 40
0.2403599659065664
 40
0.2403599659065664
 40
0.2403599659065664
 40
0.2403599659065664
 10
152.9213384441
 20
111.2955789518
 30
0.0
 10
152.9388654790476
 20
111.3159933857536
 30
0.0
 10
152.9739001238865
 20
111.3565739206834
 30
0.0
 10
153.0265453173783
 20
111.4169704122542
 30
0.0
 10
153.0617015371673
 20
111.4569175074412
 30
0.0
 10
153.0792656266
 20
111.4767722565
 30
0.0
 11
152.9213384441
 21
111.2955789518
 31
0.0
 11
152.9740800006
 21
111.3566841302
 31
0.0
 11
153.0267223954
 21
111.4170764984
 31
0.0
 11
153.0792656266
 21
111.4767722565
 31
0.0
  0
SPLINE
  5
134
330
2
100
AcDbEntity
  8
0
  6
Continuous
 62
     7
100
AcDbSpline
210
0.0
220
0.0
230
1.0
 70
     8
 71
     3
 72
    14
 73
    10
 74
     8
 42
0.0000000001
 43
0.0000000001
 44
0.0000000001
 12
0.0032514757007726
 22
0.9999947139389126
 32
0.0
 13
0.9885718931691615
 23
0.1507501642982194
 33
0.0
 40
0.0
 40
0.0
 40
0.0
 40
0.0
 40
1.230615155676515
 40
2.457247724932217
 40
3.687791560455203
 40
4.920909835903671
 40
6.143041605603448
 40
7.3623071164702
 40
8.563849114254034
 40
8.563849114254034
 40
8.563849114254034
 40
8.563849114254034
 10
147.7765175594
 20
105.3277707444
 30
0.0
 10
147.7778513311585
 20
105.7379736279232
 30
0.0
 10
147.86433872854
 20
106.5592242427328
 30
0.0
 10
148.2399180352205
 20
107.7381688315962
 30
0.0
 10
148.8462303295262
 20
108.8183619030001
 30
0.0
 10
149.6575493958417
 20
109.7522854547178
 30
0.0
 10
150.6374749354691
 20
110.5011092181859
 30
0.0
 10
151.7375834652748
 20
111.0336134748497
 30
0.0
 10
152.5254015616095
 20
111.2352014006076
 30
0.0
 10
152.9213384441
 20
111.2955789518
 30
0.0
 11
147.7765175594
 21
105.3277707444
 31
0.0
 11
147.9055538367
 21
106.5516021464
 31
0.0
 11
148.2777635097
 21
107.7203995708
 31
0.0
 11
148.8801168139
 21
108.7934366755
 31
0.0
 11
149.6888038106
 21
109.7243534401
 31
0.0
 11
150.659836615
 21
110.4664459918
 31
0.0
 11
151.7573376488
 21
110.9975767354
 31
0.0
 11
152.9213384441
 21
111.2955789518
 31
0.0
  0
SPLINE
  5
135
330
2
100
AcDbEntity
  8
0
  6
Continuous
 62
     7
100
AcDbSpline
210
0.0
220
0.0
230
1.0
 70
     8
 71
     3
 72
    15
 73
    11
 74
     9
 42
0.0000000001
 43
0.0000000001
 44
0.0000000001
 12
-0.0000000026808432
 22
1.0
 32
0.0
 13
-1.0
 23
0.000000001193813
 33
0.0
 40
0.0
 40
0.0
 40
0.0
 40
0.0
 40
2.023523586937714
 40
3.874769763167199
 40
5.606516147228894
 40
7.271627558128804
 40
8.922975284602145
 40
10.61354258709936
 40
12.39622882571618
 40
14.32385170977076
 40
14.32385170977076
 40
14.32385170977076
 40
14.32385170977076
 10
223.7732713773
 20
105.231142299
 30
0.0
 10
223.7732713754918
 20
105.9056501613125
 30
0.0
 10
223.628983470264
 20
107.2020068069557
 30
0.0
 10
223.030794965412
 20
108.9852876169967
 30
0.0
 10
222.1564116287666
 20
110.5127813999647
 30
0.0
 10
221.0583379390313
 20
111.8001395611812
 30
0.0
 10
219.75646204645
 20
112.8589833660728
 30
0.0
 10
218.2482689294455
 20
113.6819886425602
 30
0.0
 10
216.5230972624027
 20
114.233248028506
 30
0.0
 10
215.2822036550515
 20
114.3647509683329
 30
0.0
 10
214.6396626937
 20
114.3647509691
 30
0.0
 11
223.7732713773
 21
105.231142299
 31
0.0
 11
223.5491693781
 21
107.2422181307
 31
0.0
 11
222.9607373557
 21
108.9974560519
 31
0.0
 11
222.1003648246
 21
110.5003547998
 31
0.0
 11
221.0198201841
 21
111.7672483591
 31
0.0
 11
219.7386755996
 21
112.8091782355
 31
0.0
 11
218.2547096569
 21
113.6190318551
 31
0.0
 11
216.5565282129
 21
114.1613878347
 31
0.0
 11
214.6396626937
 21
114.3647509691
 31
0.0
  0
SPLINE
  5
136
330
2
100
AcDbEntity
  8
0
  6
Continuous
 62
     7
100
AcDbSpline
210
0.0
220
0.0
230
1.0
 70
     8
 71
     3
 72
    15
 73
    11
 74
     9
 42
0.0000000001
 43
0.0000000001
 44
0.0000000001
 12
-0.0000000000837763
 22
-1.0
 32
0.0
 13
1.0
 23
-0.0000000016126947
 33
0.0
 40
0.0
 40
0.0
 40
0.0
 40
0.0
 40
2.02352327047211
 40
3.874769299194054
 40
5.606515666151262
 40
7.271627151516052
 40
8.922975004061587
 40
10.61354244630525
 40
12.39622879939943
 40
14.32385172647348
 40
14.32385172647348
 40
14.32385172647348
 40
14.32385172647348
 10
144.7981571941
 20
25.2382454779
 30
0.0
 10
144.7981571940435
 20
24.56373772107597
 30
0.0
 10
144.9424450554337
 20
23.26738123191614
 30
0.0
 10
145.5406334267245
 20
21.48410054916888
 30
0.0
 10
146.4150166649517
 20
19.95660674496249
 30
0.0
 10
147.51309032891
 20
18.6692484798052
 30
0.0
 10
148.814966268389
 20
17.61040454957576
 30
0.0
 10
150.3231594776444
 20
16.78739917248703
 30
0.0
 10
152.048331234754
 20
16.23613973596305
 30
0.0
 10
153.2892248948086
 20
16.10463678693622
 30
0.0
 10
153.9317658705
 20
16.1046367859
 30
0.0
 11
144.7981571941
 21
25.2382454779
 31
0.0
 11
145.0222591177
 21
23.2271699562
 31
0.0
 11
145.6106910131
 21
21.471932148
 31
0.0
 11
146.4710634537
 21
19.969033368
 31
0.0
 11
147.5516080774
 21
18.7021396965
 31
0.0
 11
148.8327527177
 21
17.6602096889
 31
0.0
 11
150.3167187623
 21
16.8503559643
 31
0.0
 11
152.0149003091
 21
16.3079999303
 31
0.0
 11
153.9317658705
 21
16.1046367859
 31
0.0
  0
SPLINE
  5
137
330
2
100
AcDbEntity
  8
0
  6
Continuous
 62
     7
100
AcDbSpline
210
0.0
220
0.0
230
1.0
 70
     8
 71
     3
 72
    15
 73
    11
 74
     9
 42
0.0000000001
 43
0.0000000001
 44
0.0000000001
 12
-1.0
 22
0.0000000000837763
 32
0.0
 13
-0.0000000009424839
 23
-1.0
 33
0.0
 40
0.0
 40
0.0
 40
0.0
 40
0.0
 40
2.023523270891815
 40
3.874769300404606
 40
5.606515668180612
 40
7.271627154151806
 40
8.922975007036647
 40
10.61354244921634
 40
12.39622880133549
 40
14.3238517326328
 40
14.3238517326328
 40
14.3238517326328
 40
14.3238517326328
 10
153.9317658861
 20
114.3647509692
 30
0.0
 10
153.257258129136
 20
114.3647509692565
 30
0.0
 10
151.9609016395833
 20
114.2204631076433
 30
0.0
 10
150.1776209562416
 20
113.6222747360088
 30
0.0
 10
148.6501271514755
 20
112.7478914972366
 30
0.0
 10
147.3627688861275
 20
111.6498178325708
 30
0.0
 10
146.3039249561423
 20
110.3479418925052
 30
0.0
 10
145.48091957966
 20
108.8397486831969
 30
0.0
 10
144.9296601431443
 20
107.1145769249727
 30
0.0
 10
144.7981571947056
 20
105.8736832636991
 30
0.0
 10
144.7981571941
 20
105.2311422866
 30
0.0
 11
153.9317658861
 21
114.3647509692
 31
0.0
 11
151.920690364
 21
114.1406490454
 31
0.0
 11
150.1654525551
 21
113.5522171496
 31
0.0
 11
148.6625537745
 21
112.6918447084
 31
0.0
 11
147.3956601028
 21
111.611300084
 31
0.0
 11
146.3537300954
 21
110.3301554431
 31
0.0
 11
145.5438763713
 21
108.8461893983
 31
0.0
 11
145.001520338
 21
107.1480078523
 31
0.0
 11
144.7981571941
 21
105.2311422866
 31
0.0
  0
SPLINE
  5
138
330
2
100
AcDbEntity
  8
0
  6
Continuous
 62
     7
100
AcDbSpline
210
0.0
220
0.0
230
1.0
 70
     8
 71
     3
 72
    10
 73
     6
 74
     4
 42
0.0000000001
 43
0.0000000001
 44
0.0000000001
 12
0.0032431809524799
 22
0.9999947408748257
 32
0.0
 13
0.0033102372557733
 23
0.9999945211496465
 33
0.0
 40
0.0
 40
0.0
 40
0.0
 40
0.0
 40
0.2616216120929924
 40
0.5231827018491843
 40
0.7847002795926872
 40
0.7847002795926872
 40
0.7847002795926872
 40
0.7847002795926872
 10
147.7739457506
 20
104.5429615033
 30
0.0
 10
147.774228579343
 20
104.6301682486974
 30
0.0
 10
147.7747961185196
 20
104.8045615591777
 30
0.0
 10
147.7756531919157
 20
105.0661269148754
 30
0.0
 10
147.776228410257
 20
105.2404855218907
 30
0.0
 10
147.776516972
 20
105.3276575702
 30
0.0
 11
147.7739457506
 21
104.5429615033
 31
0.0
 11
147.7747971586
 21
104.80458173
 31
0.0
 11
147.7756542136
 21
105.0661414156
 31
0.0
 11
147.776516972
 21
105.3276575702
 31
0.0
  0
SPLINE
  5
139
330
2
100
AcDbEntity
  8
0
  6
Continuous
 62
     7
100
AcDbSpline
210
0.0
220
0.0
230
1.0
 70
     8
 71
     3
 72
    28
 73
    24
 74
    22
 42
0.0000000001
 43
0.0000000001
 44
0.0000000001
 12
-1.0
 22
0.0
 32
0.0
 13
0.9971571065097247
 23
-0.0753505470262397
 33
0.0
 40
0.0
 40
0.0
 40
0.0
 40
0.0
 40
4.596630194411744
 40
9.239130204990992
 40
13.84118846535514
 40
18.42032674335133
 40
22.96748273384688
 40
27.46816216395907
 40
31.95710600475505
 40
36.38877264831544
 40
40.83147265414539
 40
45.22250861316201
 40
49.6291611035075
 40
54.02260286783985
 40
58.45008167019869
 40
62.87360249104141
 40
67.34119417660301
 40
71.83613955291029
 40
76.36820197714171
 40
80.96991918554754
 40
85.56639824221054
 40
90.19313532755655
 40
94.80841825893291
 40
94.80841825893291
 40
94.80841825893291
 40
94.80841825893291
 10
184.2857142857
 20
95.89113547229999
 30
0.0
 10
182.7535042208961
 20
95.89113547229999
 30
0.0
 10
179.6692135606487
 20
95.66868893197277
 30
0.0
 10
175.1484395389091
 20
94.67162864681013
 30
0.0
 10
170.8248719472507
 20
93.03114425183556
 30
0.0
 10
166.8128370316227
 20
90.79673008840286
 30
0.0
 10
163.1945460734139
 20
88.02407364233692
 30
0.0
 10
160.0382420293029
 20
84.77717503922491
 30
0.0
 10
157.4105746602322
 20
81.13656927520516
 30
0.0
 10
155.3502493051372
 20
77.16949134962591
 30
0.0
 10
153.901634581159
 20
72.97474206040003
 30
0.0
 10
153.0830786085895
 20
68.62190390257014
 30
0.0
 10
152.9093662120813
 20
64.21240637549121
 30
0.0
 10
153.3831951723268
 20
59.81292492363425
 30
0.0
 10
154.4965818502389
 20
55.52431321901894
 30
0.0
 10
156.2339753988918
 20
51.42171589095865
 30
0.0
 10
158.5626695894177
 20
47.59681966858714
 30
0.0
 10
161.4472180065964
 20
44.12440776016618
 30
0.0
 10
164.8398042026002
 20
41.07884858180329
 30
0.0
 10
168.6690733517729
 20
38.54217474350152
 30
0.0
 10
172.8558367520551
 20
36.57753709056684
 30
0.0
 10
177.2868980903117
 20
35.24026401443
 30
0.0
 10
180.3466162344417
 20
34.78490942542002
 30
0.0
 10
181.8806702923
 20
34.6689880609
 30
0.0
 11
184.2857142857
 21
95.89113547229999
 31
0.0
 11
179.7010185744
 21
95.560115263
 31
0.0
 11
175.1675264255
 21
94.55998762909999
 31
0.0
 11
170.8650394828
 21
92.9267251457
 31
0.0
 11
166.8648827071
 21
90.69799161769999
 31
0.0
 11
163.2561542967
 21
87.9314582523
 31
0.0
 11
160.1197366988
 21
84.70361067469999
 31
0.0
 11
157.4933432643
 21
81.06318840070001
 31
0.0
 11
155.4514842615
 21
77.1299351604
 31
0.0
 11
154.0018554272
 21
72.9303923776
 31
0.0
 11
153.1906746914
 21
68.61493381479999
 31
0.0
 11
153.0172956467
 21
64.211693431
 31
0.0
 11
153.4875437101
 21
59.8434904486
 31
0.0
 11
154.5996432398
 21
55.5579562717
 31
0.0
 11
156.3239949929
 21
51.4843647993
 31
0.0
 11
158.6465260859
 21
47.66792342139999
 31
0.0
 11
161.5180100871
 21
44.20972829
 31
0.0
 11
164.889845802
 21
41.1814757033
 31
0.0
 11
168.7256683521
 21
38.6393768401
 31
0.0
 11
172.8864321895
 21
36.6860043698
 31
0.0
 11
177.3157381539
 21
35.3488638646
 31
0.0
 11
181.8806702923
 21
34.6689880609
 31
0.0
  0
SPLINE
  5
13A
330
2
100
AcDbEntity
  8
0
  6
Continuous
 62
     7
100
AcDbSpline
210
0.0
220
0.0
230
1.0
 70
     8
 71
     3
 72
    10
 73
     6
 74
     4
 42
0.0000000001
 43
0.0000000001
 44
0.0000000001
 12
0.9971571065110229
 22
-0.0753505470090603
 32
0.0
 13
1.0
 23
0.0
 33
0.0
 40
0.0
 40
0.0
 40
0.0
 40
0.0
 40
0.8018889658585909
 40
1.604474912766413
 40
2.40726209032332
 40
2.40726209032332
 40
2.40726209032332
 40
2.40726209032332
 10
181.8806702923
 20
34.6689880609
 30
0.0
 10
182.1472067192796
 20
34.64884713682734
 30
0.0
 10
182.6810428782721
 20
34.61524734994335
 30
0.0
 10
183.4829688258978
 20
34.58498368693963
 30
0.0
 10
184.0181185598477
 20
34.578252284
 30
0.0
 10
184.2857142857
 20
34.578252284
 30
0.0
 11
181.8806702923
 21
34.6689880609
 31
0.0
 11
182.6809756013
 21
34.6186161843
 31
0.0
 11
183.4829905934
 21
34.5883481381
 31
0.0
 11
184.2857142857
 21
34.578252284
 31
0.0
  0
SPLINE
  5
13B
330
2
100
AcDbEntity
  8
0
  6
Continuous
 62
     7
100
AcDbSpline
210
0.0
220
0.0
230
1.0
 70
     8
 71
     3
 72
    10
 73
     6
 74
     4
 42
0.0000000001
 43
0.0000000001
 44
0.0000000001
 12
-0.0000959339759521
 22
-0.9999999953983362
 32
0.0
 13
-0.002094583410729
 23
-0.9999978063577616
 33
0.0
 40
0.0
 40
0.0
 40
0.0
 40
0.0
 40
8.169003228952343
 40
16.32455477784803
 40
24.45482506819094
 40
24.45482506819094
 40
24.45482506819094
 40
24.45482506819094
 10
220.8606275011
 20
64.05207093299999
 30
0.0
 10
220.8603662727802
 20
61.32906986921288
 30
0.0
 10
220.8580418743939
 20
55.88755162768726
 30
0.0
 10
220.8491492333858
 20
47.73594758184812
 30
0.0
 10
220.8396067789583
 20
42.30734820201287
 30
0.0
 10
220.8339302692
 20
39.59726405020001
 30
0.0
 11
220.8606275011
 21
64.05207093299999
 31
0.0
 11
220.8571355233
 21
55.8830684504
 31
0.0
 11
220.8482321399
 21
47.7275217614
 31
0.0
 11
220.8339302692
 21
39.59726405020001
 31
0.0
  0
SPLINE
  5
13C
330
2
100
AcDbEntity
  8
0
  6
Continuous
 62
     7
100
AcDbSpline
210
0.0
220
0.0
230
1.0
 70
     8
 71
     3
 72
    10
 73
     6
 74
     4
 42
0.0000000001
 43
0.0000000001
 44
0.0000000001
 12
0.0054959706745183
 22
-0.9999848970391228
 32
0.0
 13
-0.0054959707590732
 23
-0.999984897038658
 33
0.0
 40
0.0
 40
0.0
 40
0.0
 40
0.0
 40
0.78842809229721
 40
1.576828385497208
 40
2.365256470694467
 40
2.365256470694467
 40
2.365256470694467
 40
2.365256470694467
 10
216.7624644975
 20
66.4173168209
 30
0.0
 10
216.7639088900581
 20
66.15451142600047
 30
0.0
 10
216.7658346344128
 20
65.62890408061822
 30
0.0
 10
216.7658346344177
 20
64.84048366974846
 30
0.0
 10
216.7639088900673
 20
64.31487632673278
 30
0.0
 10
216.7624644975
 20
64.0520709342
 30
0.0
 11
216.7624644975
 21
66.4173168209
 31
0.0
 11
216.7653532153
 21
65.6288940206
 31
0.0
 11
216.7653532153
 21
64.8404937274
 31
0.0
 11
216.7624644975
 21
64.0520709342
 31
0.0
  0
SPLINE
  5
13D
330
2
100
AcDbEntity
  8
0
  6
Continuous
 62
     7
100
AcDbSpline
210
0.0
220
0.0
230
1.0
 70
     8
 71
     3
 72
    10
 73
     6
 74
     4
 42
0.0000000001
 43
0.0000000001
 44
0.0000000001
 12
0.002094583410729
 22
-0.9999978063577616
 32
0.0
 13
0.0000959339718626
 23
-0.9999999953983365
 33
0.0
 40
0.0
 40
0.0
 40
0.0
 40
0.0
 40
8.130270302842902
 40
16.28582185163858
 40
24.45482506819093
 40
24.45482506819093
 40
24.45482506819093
 40
24.45482506819093
 10
220.8339302692
 20
90.8721237049
 30
0.0
 10
220.839606778967
 20
88.16203954892049
 30
0.0
 10
220.8491492333721
 20
82.73344016495183
 30
0.0
 10
220.8580418743856
 20
74.5818361191127
 30
0.0
 10
220.8603662727917
 20
69.14031788175378
 30
0.0
 10
220.8606275011
 20
66.4173168221
 30
0.0
 11
220.8339302692
 21
90.8721237049
 31
0.0
 11
220.8482321399
 21
82.7418659812
 31
0.0
 11
220.8571355233
 21
74.5863192923
 31
0.0
 11
220.8606275011
 21
66.4173168221
 31
0.0
  0
SPLINE
  5
13E
330
2
100
AcDbEntity
  8
0
  6
Continuous
 62
     7
100
AcDbSpline
210
0.0
220
0.0
230
1.0
 70
     8
 71
     3
 72
    10
 73
     6
 74
     4
 42
0.0000000001
 43
0.0000000001
 44
0.0000000001
 12
-0.0035671161480603
 22
-0.9999936378209547
 32
0.0
 13
-0.003825019560618
 23
-0.9999926845859228
 33
0.0
 40
0.0
 40
0.0
 40
0.0
 40
0.0
 40
0.9927392744956488
 40
1.985495357180078
 40
2.97724908844864
 40
2.97724908844864
 40
2.97724908844864
 40
2.97724908844864
 10
152.9323418949
 20
22.1510364299
 30
0.0
 10
152.9311614894677
 20
21.82012544372978
 30
0.0
 10
152.9287724195581
 20
21.15829796905814
 30
0.0
 10
152.9251046410301
 20
20.16588838286001
 30
0.0
 10
152.9226029322738
 20
19.50438984112645
 30
0.0
 10
152.9213384398
 20
19.1738076824
 30
0.0
 11
152.9323418949
 21
22.1510364299
 31
0.0
 11
152.928758207
 21
21.1583036238
 31
0.0
 11
152.9250891616
 21
20.1655543212
 31
0.0
 11
152.9213384398
 21
19.1738076824
 31
0.0
  0
SPLINE
  5
13F
330
2
100
AcDbEntity
  8
0
  6
Continuous
 62
     7
100
AcDbSpline
210
0.0
220
0.0
230
1.0
 70
     8
 71
     3
 72
    10
 73
     6
 74
     4
 42
0.0000000001
 43
0.0000000001
 44
0.0000000001
 12
0.0787787470722687
 22
-0.9968921250615451
 32
0.0
 13
0.0691157018285435
 23
-0.9976086506044079
 33
0.0
 40
0.0
 40
0.0
 40
0.0
 40
0.0
 40
1.183435393247525
 40
2.367721194931841
 40
3.552821645516367
 40
3.552821645516367
 40
3.552821645516367
 40
3.552821645516367
 10
213.274036903
 20
94.4152066258
 30
0.0
 10
213.3051134221737
 20
94.02195415111746
 30
0.0
 10
213.3660174448043
 20
93.23506552379811
 30
0.0
 10
213.4535861952718
 20
92.05403176887406
 30
0.0
 10
213.5094452234401
 20
91.2662125211461
 30
0.0
 10
213.5367482399
 20
90.8721237007
 30
0.0
 11
213.274036903
 21
94.4152066258
 31
0.0
 11
213.3653597199
 21
93.23530007310001
 31
0.0
 11
213.4529313514
 21
92.05425643739999
 31
0.0
 11
213.5367482399
 21
90.8721237007
 31
0.0
  0
SPLINE
  5
140
330
2
100
AcDbEntity
  8
0
  6
Continuous
 62
     7
100
AcDbSpline
210
0.0
220
0.0
230
1.0
 70
     8
 71
     3
 72
    10
 73
     6
 74
     4
 42
0.0000000001
 43
0.0000000001
 44
0.0000000001
 12
0.0030318606256755
 22
-0.9999954039000112
 32
0.0
 13
0.0023891408902662
 23
-0.9999971459988305
 33
0.0
 40
0.0
 40
0.0
 40
0.0
 40
0.0
 40
2.543212045272833
 40
5.091348186241464
 40
7.644040363787297
 40
7.644040363787297
 40
7.644040363787297
 40
7.644040363787297
 10
220.8052753771
 20
102.0592188047
 30
0.0
 10
220.8078455985876
 20
101.2114853525613
 30
0.0
 10
220.8128079886296
 20
99.51437652984338
 30
0.0
 10
220.8197115891954
 20
96.96637241005563
 30
0.0
 10
220.8239547880461
 20
95.26610158305313
 30
0.0
 10
220.8259877018
 20
94.415206619
 30
0.0
 11
220.8052753771
 21
102.0592188047
 31
0.0
 11
220.8127123115
 21
99.51601763310002
 31
0.0
 11
220.8196167523
 21
96.96789084629999
 31
0.0
 11
220.8259877018
 21
94.415206619
 31
0.0
  0
SPLINE
  5
141
330
2
100
AcDbEntity
  8
0
  6
Continuous
 62
     7
100
AcDbSpline
210
0.0
220
0.0
230
1.0
 70
     8
 71
     3
 72
    28
 73
    24
 74
    22
 42
0.0000000001
 43
0.0000000001
 44
0.0000000001
 12
1.0
 22
0.0
 32
0.0
 13
-0.9971604225818204
 23
0.0753066506787106
 33
0.0
 40
0.0
 40
0.0
 40
0.0
 40
0.0
 40
4.596693893650281
 40
9.2392663213488
 40
13.84140052026108
 40
18.42062051141266
 40
22.96784709058467
 40
27.4685993591577
 40
31.95760474161294
 40
36.38933353132758
 40
40.83208923149299
 40
45.22317884294614
 40
49.62989705990944
 40
54.02340001494071
 40
58.45094801512399
 40
62.87453466605571
 40
67.34220336102942
 40
71.83719027450007
 40
76.36931759393274
 40
80.97109577375306
 40
85.56763767201699
 40
90.19446540963745
 40
94.80981934868065
 40
94.80981934868065
 40
94.80981934868065
 40
94.80981934868065
 10
184.2857142857
 20
34.578252284
 30
0.0
 10
185.8179455835834
 20
34.578252284
 30
0.0
 10
188.9022818060915
 20
34.80070520064311
 30
0.0
 10
193.4231224415526
 20
35.79779508863475
 30
0.0
 10
197.7467534709154
 20
37.4383307768889
 30
0.0
 10
201.7588376233023
 20
39.67281468950999
 30
0.0
 10
205.3771594756634
 20
42.44555548285273
 30
0.0
 10
208.5334695313629
 20
45.69254463593994
 30
0.0
 10
211.1611199664346
 20
49.3332442718039
 30
0.0
 10
213.2214039176054
 20
53.30041185355535
 30
0.0
 10
214.6699556065807
 20
57.49524405755743
 30
0.0
 10
215.488429124807
 20
61.84815771027607
 30
0.0
 10
215.6620404046242
 20
66.25772016448071
 30
0.0
 10
215.1880918030645
 20
70.65725513565094
 30
0.0
 10
214.0745698353287
 20
74.94590003541365
 30
0.0
 10
212.3370263931713
 20
79.0485113608691
 30
0.0
 10
210.0081778932947
 20
82.87338646698051
 30
0.0
 10
207.1234736601735
 20
86.34574896009091
 30
0.0
 10
203.7307390165036
 20
89.39122722707699
 30
0.0
 10
199.9013239073143
 20
91.92779569704335
 30
0.0
 10
195.7144198683293
 20
93.89230340380059
 30
0.0
 10
191.2832318449348
 20
95.22941867456284
 30
0.0
 10
188.223440275207
 20
95.68464989698462
 30
0.0
 10
186.6893575138
 20
95.80050551259999
 30
0.0
 11
184.2857142857
 21
34.578252284
 31
0.0
 11
188.8704731996
 21
34.9092816684
 31
0.0
 11
193.4040329168
 21
35.9094391745
 31
0.0
 11
197.7065818528
 21
37.5427523221
 31
0.0
 11
201.7067920443
 21
39.7715578657
 31
0.0
 11
205.3155472238
 21
42.53817233409999
 31
0.0
 11
208.4519736441
 21
45.76611289939999
 31
0.0
 11
211.0783473859
 21
49.4066252661
 31
0.0
 11
213.1201663396
 21
53.33996931739999
 31
0.0
 11
214.569731352
 21
57.5395930489
 31
0.0
 11
215.3808294917
 21
61.8551217284
 31
0.0
 11
215.5541077864
 21
66.25843185559999
 31
0.0
 11
215.0837414647
 21
70.62668365
 31
0.0
 11
213.971506022
 21
74.9122540454
 31
0.0
 11
212.2470074518
 21
78.985854853
 31
0.0
 11
209.9243146852
 21
82.80228798880001
 31
0.0
 11
207.0526881711
 21
86.26041877229999
 31
0.0
 11
203.6806983173
 21
89.2885968492
 31
0.0
 11
199.8447317189
 21
91.8305887202
 31
0.0
 11
195.6838360636
 21
93.7838282775
 31
0.0
 11
191.2543890832
 21
95.12081532359999
 31
0.0
 11
186.6893575138
 21
95.80050551259999
 31
0.0
  0
SPLINE
  5
142
330
2
100
AcDbEntity
  8
0
  6
Continuous
 62
     7
100
AcDbSpline
210
0.0
220
0.0
230
1.0
 70
     8
 71
     3
 72
    10
 73
     6
 74
     4
 42
0.0000000001
 43
0.0000000001
 44
0.0000000001
 12
-0.997160422581077
 22
0.0753066506885532
 32
0.0
 13
-1.0
 23
0.0
 33
0.0
 40
0.0
 40
0.0
 40
0.0
 40
0.0
 40
0.8014189159033261
 40
1.603522596708568
 40
2.405857444852324
 40
2.405857444852324
 40
2.405857444852324
 40
2.405857444852324
 10
186.6893575138
 20
95.80050551259999
 30
0.0
 10
186.4229764388511
 20
95.8206229040517
 30
0.0
 10
185.889455980517
 20
95.85418320088873
 30
0.0
 10
185.0879973942474
 20
95.88441177117831
 30
0.0
 10
184.5531592350812
 20
95.89113547229999
 30
0.0
 10
184.2857142857
 20
95.89113547229999
 30
0.0
 11
186.6893575138
 21
95.80050551259999
 31
0.0
 11
185.8895194822
 21
95.8508185524
 31
0.0
 11
185.0879857558
 21
95.8810509887
 31
0.0
 11
184.2857142857
 21
95.89113547229999
 31
0.0
  0
SPLINE
  5
143
330
2
100
AcDbEntity
  8
0
  6
Continuous
 62
     7
100
AcDbSpline
210
0.0
220
0.0
230
1.0
 70
     8
 71
     3
 72
    10
 73
     6
 74
     4
 42
0.0000000001
 43
0.0000000001
 44
0.0000000001
 12
-0.0691157018940149
 22
-0.9976086505998722
 32
0.0
 13
-0.0787787471568669
 23
-0.99689212505486
 33
0.0
 40
0.0
 40
0.0
 40
0.0
 40
0.0
 40
1.185100464819696
 40
2.369386266910305
 40
3.552821647932484
 40
3.552821647932484
 40
3.552821647932484
 40
3.552821647932484
 10
213.5367482401
 20
39.5972640568
 30
0.0
 10
213.5094452232864
 20
39.20317523162199
 30
0.0
 10
213.453586194837
 20
38.41535597902128
 30
0.0
 10
213.3660174442392
 20
37.23432222329899
 30
0.0
 10
213.305113421786
 20
36.44743359991743
 30
0.0
 10
213.2740369029
 20
36.0541811293
 30
0.0
 11
213.5367482401
 21
39.5972640568
 31
0.0
 11
213.4529313506
 21
38.4151313059
 31
0.0
 11
213.365359719
 21
37.2340876698
 31
0.0
 11
213.2740369029
 21
36.0541811293
 31
0.0
  0
SPLINE
  5
144
330
2
100
AcDbEntity
  8
0
  6
Continuous
 62
     7
100
AcDbSpline
210
0.0
220
0.0
230
1.0
 70
     8
 71
     3
 72
    10
 73
     6
 74
     4
 42
0.0000000001
 43
0.0000000001
 44
0.0000000001
 12
-0.0023891408884221
 22
-0.999997145998835
 32
0.0
 13
-0.0030318606232957
 23
-0.9999954039000185
 33
0.0
 40
0.0
 40
0.0
 40
0.0
 40
0.0
 40
2.552692179245836
 40
5.10082832191445
 40
7.644040369687282
 40
7.644040369687282
 40
7.644040369687282
 40
7.644040369687282
 10
220.8259877018
 20
36.0541811361
 30
0.0
 10
220.8239547880463
 20
35.2032861714802
 30
0.0
 10
220.8197115891955
 20
33.50301534334441
 30
0.0
 10
220.8128079886279
 20
30.95501122158991
 30
0.0
 10
220.8078455985881
 20
29.25790239747199
 30
0.0
 10
220.8052753771
 20
28.4101689445
 30
0.0
 11
220.8259877018
 21
36.0541811361
 31
0.0
 11
220.8196167523
 21
33.5014969071
 31
0.0
 11
220.8127123115
 21
30.9533701186
 31
0.0
 11
220.8052753771
 21
28.4101689445
 31
0.0
  0
SPLINE
  5
145
330
2
100
AcDbEntity
  8
0
  6
Continuous
 62
     7
100
AcDbSpline
210
0.0
220
0.0
230
1.0
 70
     8
 71
     3
 72
    10
 73
     6
 74
     4
 42
0.0000000001
 43
0.0000000001
 44
0.0000000001
 12
0.7083042354010685
 22
0.7059072956932149
 32
0.0
 13
0.7084829051321702
 23
0.7057279738932562
 33
0.0
 40
0.0
 40
0.0
 40
0.0
 40
0.0
 40
2.038927924897881
 40
4.076855800204624
 40
6.074969408922612
 40
6.074969408922612
 40
6.074969408922612
 40
6.074969408922612
 10
207.3626590878
 20
94.55743744020001
 30
0.0
 10
207.8440528494276
 20
95.03720213939269
 30
0.0
 10
208.8066447887954
 20
95.99645555787164
 30
0.0
 10
210.2411354838847
 20
97.42572815495488
 30
0.0
 10
211.1942512020371
 20
98.37521718457031
 30
0.0
 10
211.6661276468
 20
98.84525874080001
 30
0.0
 11
207.3626590878
 21
94.55743744020001
 31
0.0
 11
208.8069012975
 21
95.9966704035
 31
0.0
 11
210.2505572297
 21
97.4350749274
 31
0.0
 11
211.6661276468
 21
98.84525874080001
 31
0.0
  0
SPLINE
  5
146
330
2
100
AcDbEntity
  8
0
  6
Continuous
 62
     7
100
AcDbSpline
210
0.0
220
0.0
230
1.0
 70
     8
 71
     3
 72
     8
 73
     4
 74
     2
 42
0.0000000001
 43
0.0000000001
 44
0.0000000001
 12
0.7084829050715653
 22
0.7057279739540978
 32
0.0
 13
0.7084840507263586
 23
0.7057268238251759
 33
0.0
 40
0.0
 40
0.0
 40
0.0
 40
0.0
 40
0.0387667405193942
 40
0.0387667405193942
 40
0.0387667405193942
 40
0.0387667405193942
 10
211.6661276468
 20
98.84525874080001
 30
0.0
 10
211.6752828377811
 20
98.8543783318812
 30
0.0
 10
211.6844380362145
 20
98.86349791548106
 30
0.0
 10
211.693593242
 20
98.87261749170001
 30
0.0
 11
211.6661276468
 21
98.84525874080001
 31
0.0
 11
211.693593242
 21
98.87261749170001
 31
0.0
  0
SPLINE
  5
147
330
2
100
AcDbEntity
  8
0
  6
Continuous
 62
     7
100
AcDbSpline
210
0.0
220
0.0
230
1.0
 70
     8
 71
     3
 72
    10
 73
     6
 74
     4
 42
0.0000000001
 43
0.0000000001
 44
0.0000000001
 12
0.7695663892785482
 22
-0.6385668112991611
 32
0.0
 13
0.7667804676289532
 23
-0.6419094285510411
 33
0.0
 40
0.0
 40
0.0
 40
0.0
 40
0.0
 40
0.8162669364866895
 40
1.632640530577054
 40
2.449119104456599
 40
2.449119104456599
 40
2.449119104456599
 40
2.449119104456599
 10
205.4813006066
 20
96.1254509031
 30
0.0
 10
205.6906911395998
 20
95.95170391149959
 30
0.0
 10
206.1092505946632
 20
95.60388704046065
 30
0.0
 10
206.7363696386631
 20
95.08121404780423
 30
0.0
 10
207.1539724834372
 20
94.73213920242773
 30
0.0
 10
207.362659091
 20
94.5574374375
 30
0.0
 11
205.4813006066
 21
96.1254509031
 31
0.0
 11
206.1090964883
 21
95.6037574658
 31
0.0
 11
206.7362168525
 21
95.081085586
 31
0.0
 11
207.362659091
 21
94.5574374375
 31
0.0
  0
SPLINE
  5
148
330
2
100
AcDbEntity
  8
0
  6
Continuous
 62
     7
100
AcDbSpline
210
0.0
220
0.0
230
1.0
 70
     8
 71
     3
 72
     8
 73
     4
 74
     2
 42
0.0000000001
 43
0.0000000001
 44
0.0000000001
 12
-0.7056474980128678
 22
-0.7085630589779431
 32
0.0
 13
-0.7056486989416169
 23
-0.7085618629886903
 33
0.0
 40
0.0
 40
0.0
 40
0.0
 40
0.0
 40
0.0397176740933083
 40
0.0397176740933083
 40
0.0397176740933083
 40
0.0397176740933083
 10
209.9532498697
 20
100.6146717874
 30
0.0
 10
209.9439076439164
 20
100.6052909618496
 30
0.0
 10
209.934565410183
 20
100.5959101442164
 30
0.0
 10
209.9252231685
 20
100.5865293345
 30
0.0
 11
209.9532498697
 21
100.6146717874
 31
0.0
 11
209.9252231685
 21
100.5865293345
 31
0.0
  0
SPLINE
  5
149
330
2
100
AcDbEntity
  8
0
  6
Continuous
 62
     7
100
AcDbSpline
210
0.0
220
0.0
230
1.0
 70
     8
 71
     3
 72
    10
 73
     6
 74
     4
 42
0.0000000001
 43
0.0000000001
 44
0.0000000001
 12
-0.705648698368023
 22
-0.7085618635599261
 32
0.0
 13
-0.7058373566106618
 23
-0.7083739309241084
 33
0.0
 40
0.0
 40
0.0
 40
0.0
 40
0.0
 40
2.071266055185539
 40
4.183456182545748
 40
6.296798290283812
 40
6.296798290283812
 40
6.296798290283812
 40
6.296798290283812
 10
209.9252231685
 20
100.5865293345
 30
0.0
 10
209.4380277698948
 20
100.0973226225031
 30
0.0
 10
208.4539673623392
 20
99.10928687677225
 30
0.0
 10
206.972661126512
 20
97.62225944202343
 30
0.0
 10
205.9785258795799
 20
96.62446305198194
 30
0.0
 10
205.4813006106
 20
96.1254508999
 30
0.0
 11
209.9252231685
 21
100.5865293345
 31
0.0
 11
208.4635723899
 21
99.1189735186
 31
0.0
 11
206.9729098313
 21
97.622553701
 31
0.0
 11
205.4813006106
 21
96.1254508999
 31
0.0
  0
SPLINE
  5
14A
330
2
100
AcDbEntity
  8
0
  6
Continuous
 62
     7
100
AcDbSpline
210
0.0
220
0.0
230
1.0
 70
     8
 71
     3
 72
     8
 73
     4
 74
     2
 42
0.0000000001
 43
0.0000000001
 44
0.0000000001
 12
-0.708484052153194
 22
0.7057268223927658
 32
0.0
 13
-0.7084829003382218
 23
0.7057279787059186
 33
0.0
 40
0.0
 40
0.0
 40
0.0
 40
0.0
 40
0.0389060068783301
 40
0.0389060068783301
 40
0.0389060068783301
 40
0.0389060068783301
 10
211.6935932364
 20
31.596770269
 30
0.0
 10
211.6844051412646
 20
31.60592260653541
 30
0.0
 10
211.6752170535979
 20
31.61507495156875
 30
0.0
 10
211.6660289734
 20
31.6242273041
 30
0.0
 11
211.6935932364
 21
31.596770269
 31
0.0
 11
211.6660289734
 21
31.6242273041
 31
0.0
  0
SPLINE
  5
14B
330
2
100
AcDbEntity
  8
0
  6
Continuous
 62
     7
100
AcDbSpline
210
0.0
220
0.0
230
1.0
 70
     8
 71
     3
 72
    10
 73
     6
 74
     4
 42
0.0000000001
 43
0.0000000001
 44
0.0000000001
 12
-0.7084829014177404
 22
0.7057279776221859
 32
0.0
 13
-0.7083042353949015
 23
0.7059072956994028
 33
0.0
 40
0.0
 40
0.0
 40
0.0
 40
0.0
 40
1.997973644585061
 40
4.03590186616258
 40
6.074830137614087
 40
6.074830137614087
 40
6.074830137614087
 40
6.074830137614087
 10
211.6660289734
 20
31.6242273041
 30
0.0
 10
211.194185585176
 20
32.09423593727848
 30
0.0
 10
210.2411028409825
 20
33.04369212449207
 30
0.0
 10
208.8066450321116
 20
34.47293195477784
 30
0.0
 10
207.8440529291452
 20
35.4321855362582
 30
0.0
 10
207.3626590857
 20
35.911950317
 30
0.0
 11
211.6660289734
 21
31.6242273041
 31
0.0
 11
210.2505577184
 21
33.0343123408
 31
0.0
 11
208.8069015409
 21
34.4727171091
 31
0.0
 11
207.3626590857
 21
35.911950317
 31
0.0
  0
SPLINE
  5
14C
330
2
100
AcDbEntity
  8
0
  6
Continuous
 62
     7
100
AcDbSpline
210
0.0
220
0.0
230
1.0
 70
     8
 71
     3
 72
    10
 73
     6
 74
     4
 42
0.0000000001
 43
0.0000000001
 44
0.0000000001
 12
-0.7667804676234321
 22
-0.6419094285576361
 32
0.0
 13
-0.7695663892636238
 23
-0.638566811317147
 33
0.0
 40
0.0
 40
0.0
 40
0.0
 40
0.0
 40
0.8164785712547683
 40
1.632852163501381
 40
2.449119095084202
 40
2.449119095084202
 40
2.449119095084202
 40
2.449119095084202
 10
207.3626590878
 20
35.9119503149
 30
0.0
 10
207.1539724809096
 20
35.73724855053209
 30
0.0
 10
206.7363696372654
 20
35.38817370612628
 30
0.0
 10
206.1092505956308
 20
34.86550071551154
 30
0.0
 10
205.6906911423378
 20
34.51768384586149
 30
0.0
 10
205.4813006106
 20
34.3439368553
 30
0.0
 11
207.3626590878
 21
35.9119503149
 31
0.0
 11
206.7362168513
 21
35.3883021681
 31
0.0
 11
206.1090964885
 21
34.8656302895
 31
0.0
 11
205.4813006106
 21
34.3439368553
 31
0.0
  0
SPLINE
  5
14D
330
2
100
AcDbEntity
  8
0
  6
Continuous
 62
     7
100
AcDbSpline
210
0.0
220
0.0
230
1.0
 70
     8
 71
     3
 72
    10
 73
     6
 74
     4
 42
0.0000000001
 43
0.0000000001
 44
0.0000000001
 12
0.7058373566045092
 22
-0.7083739309302392
 32
0.0
 13
0.7056487032851403
 23
-0.7085618586630247
 33
0.0
 40
0.0
 40
0.0
 40
0.0
 40
0.0
 40
2.113342100737829
 40
4.225532220814722
 40
6.296635441691098
 40
6.296635441691098
 40
6.296635441691098
 40
6.296635441691098
 10
205.4813006081
 20
34.3439368578
 30
0.0
 10
205.9785258754286
 20
33.84492470736666
 30
0.0
 10
206.9726611189061
 20
32.84712832060428
 30
0.0
 10
208.4539290450978
 20
31.36013934363993
 30
0.0
 10
209.437951151373
 20
30.37214206072238
 30
0.0
 10
209.9251082521
 20
29.8829738115
 30
0.0
 11
205.4813006081
 21
34.3439368578
 31
0.0
 11
206.9729098238
 21
32.8468340616
 31
0.0
 11
208.4635723773
 21
31.3504142492
 31
0.0
 11
209.9251082521
 21
29.8829738115
 31
0.0
  0
SPLINE
  5
14E
330
2
100
AcDbEntity
  8
0
  6
Continuous
 62
     7
100
AcDbSpline
210
0.0
220
0.0
230
1.0
 70
     8
 71
     3
 72
     8
 73
     4
 74
     2
 42
0.0000000001
 43
0.0000000001
 44
0.0000000001
 12
0.7056487029011846
 22
-0.7085618590454019
 32
0.0
 13
0.7056474993384962
 23
-0.7085630576577693
 33
0.0
 40
0.0
 40
0.0
 40
0.0
 40
0.0
 40
0.0398805262925393
 40
0.0398805262925393
 40
0.0398805262925393
 40
0.0398805262925393
 10
209.9251082521
 20
29.8829738115
 30
0.0
 10
209.9344887993164
 20
29.87355453821682
 30
0.0
 10
209.9438693384831
 20
29.86413525691695
 30
0.0
 10
209.9532498697
 20
29.8547159677
 30
0.0
 11
209.9251082521
 21
29.8829738115
 31
0.0
 11
209.9532498697
 21
29.8547159677
 31
0.0
  0
SPLINE
  5
14F
330
2
100
AcDbEntity
  8
0
  6
Continuous
 62
     7
100
AcDbSpline
210
0.0
220
0.0
230
1.0
 70
     8
 71
     3
 72
    10
 73
     6
 74
     4
 42
0.0000000001
 43
0.0000000001
 44
0.0000000001
 12
0.0038310477457093
 22
-0.9999926615096583
 32
0.0
 13
0.0035669380036982
 23
-0.9999936384564044
 33
0.0
 40
0.0
 40
0.0
 40
0.0
 40
0.0
 40
1.014801222462482
 40
2.030653121162724
 40
3.046508598836082
 40
3.046508598836082
 40
3.046508598836082
 40
3.046508598836082
 10
213.1105733194
 20
111.3648390745
 30
0.0
 10
213.1118692367119
 20
111.0265744827155
 30
0.0
 10
213.1144325175794
 20
110.3496949613788
 30
0.0
 10
213.118188631942
 20
109.3341990404519
 30
0.0
 10
213.1206340689301
 20
108.6569676624215
 30
0.0
 10
213.1218419001
 20
108.318351324
 30
0.0
 11
213.1105733194
 21
111.3648390745
 31
0.0
 11
213.1144162969
 21
110.3500451286
 31
0.0
 11
213.1181737515
 21
109.334200179
 31
0.0
 11
213.1218419001
 21
108.318351324
 31
0.0
  0
SPLINE
  5
150
330
2
100
AcDbEntity
  8
0
  6
Continuous
 62
     7
100
AcDbSpline
210
0.0
220
0.0
230
1.0
 70
     8
 71
     3
 72
    10
 73
     6
 74
     4
 42
0.0000000001
 43
0.0000000001
 44
0.0000000001
 12
-0.003566938201462
 22
-0.9999936384556988
 32
0.0
 13
-0.0038310477465896
 23
-0.999992661509655
 33
0.0
 40
0.0
 40
0.0
 40
0.0
 40
0.0
 40
1.015921749231401
 40
2.031740480620965
 40
3.046508598151624
 40
3.046508598151624
 40
3.046508598151624
 40
3.046508598151624
 10
213.1218419044
 20
22.1510364314
 30
0.0
 10
213.1206339943676
 20
21.81239800259994
 30
0.0
 10
213.1181885094055
 20
21.13515558992146
 30
0.0
 10
213.1144323931934
 20
20.11965966922997
 30
0.0
 10
213.1118691944366
 20
19.44280223848821
 30
0.0
 10
213.1105733194
 20
19.1045486816
 30
0.0
 11
213.1218419044
 21
22.1510364314
 31
0.0
 11
213.1181735093
 21
21.1351213053
 31
0.0
 11
213.114416173
 21
20.1193095228
 31
0.0
 11
213.1105733194
 21
19.1045486816
 31
0.0
  0
SPLINE
  5
151
330
2
100
AcDbEntity
  8
0
  6
Continuous
 62
     7
100
AcDbSpline
210
0.0
220
0.0
230
1.0
 70
     8
 71
     3
 72
    10
 73
     6
 74
     4
 42
0.0000000001
 43
0.0000000001
 44
0.0000000001
 12
-0.0038310477597675
 22
0.9999926615096043
 32
0.0
 13
-0.0031850941674718
 23
0.9999949275747075
 33
0.0
 40
0.0
 40
0.0
 40
0.0
 40
0.0
 40
2.495007845802053
 40
4.996149838759226
 40
7.50307213642899
 40
7.50307213642899
 40
7.50307213642899
 40
7.50307213642899
 10
199.7656052585
 20
19.1045486816
 30
0.0
 10
199.7624190937606
 20
19.93621186033698
 30
0.0
 10
199.7562197700403
 20
21.60158361710982
 30
0.0
 10
199.7474495265236
 20
24.10259230278788
 30
0.0
 10
199.7419541990295
 20
25.77193803663544
 30
0.0
 10
199.7392926045
 20
26.6075745638
 30
0.0
 11
199.7656052585
 21
19.1045486816
 31
0.0
 11
199.7563170082
 21
21.5995392385
 31
0.0
 11
199.7475457097
 21
24.1006658513
 31
0.0
 11
199.7392926045
 21
26.6075745638
 31
0.0
  0
SPLINE
  5
152
330
2
100
AcDbEntity
  8
0
  6
Continuous
 62
     7
100
AcDbSpline
210
0.0
220
0.0
230
1.0
 70
     8
 71
     3
 72
    10
 73
     6
 74
     4
 42
0.0000000001
 43
0.0000000001
 44
0.0000000001
 12
-0.0031850941678114
 22
-0.9999949275747063
 32
0.0
 13
-0.0038310477602271
 23
-0.9999926615096025
 33
0.0
 40
0.0
 40
0.0
 40
0.0
 40
0.0
 40
2.506922296670098
 40
5.008064289426921
 40
7.503072135629345
 40
7.503072135629345
 40
7.503072135629345
 40
7.503072135629345
 10
197.2521359727
 20
26.607574562
 30
0.0
 10
197.2494743781712
 20
25.77193803516866
 30
0.0
 10
197.2439790504746
 20
24.10259230172179
 30
0.0
 10
197.235208807258
 20
21.60158361630923
 30
0.0
 10
197.2290094833403
 20
19.93621185947043
 30
0.0
 10
197.2258233186
 20
19.1045486806
 30
0.0
 11
197.2521359727
 21
26.607574562
 31
0.0
 11
197.2438828674
 21
24.1006658505
 31
0.0
 11
197.235111569
 21
21.5995392379
 31
0.0
 11
197.2258233186
 21
19.1045486806
 31
0.0
  0
SPLINE
  5
153
330
2
100
AcDbEntity
  8
0
  6
Continuous
 62
     7
100
AcDbSpline
210
0.0
220
0.0
230
1.0
 70
     8
 71
     3
 72
    10
 73
     6
 74
     4
 42
0.0000000001
 43
0.0000000001
 44
0.0000000001
 12
-0.0038310477598186
 22
0.9999926615096043
 32
0.0
 13
-0.0031850941675143
 23
0.9999949275747074
 33
0.0
 40
0.0
 40
0.0
 40
0.0
 40
0.0
 40
2.495007845802053
 40
4.996149838658874
 40
7.503072136328967
 40
7.503072136328967
 40
7.503072136328967
 40
7.503072136328967
 10
185.5556052546
 20
19.1045486816
 30
0.0
 10
185.5524190898605
 20
19.93621186033698
 30
0.0
 10
185.5462197660875
 20
21.60158361707618
 30
0.0
 10
185.5374495228099
 20
24.10259230272173
 30
0.0
 10
185.5319541951296
 20
25.77193803653532
 30
0.0
 10
185.5292926006
 20
26.6075745637
 30
0.0
 11
185.5556052546
 21
19.1045486816
 31
0.0
 11
185.5463170043
 21
21.5995392385
 31
0.0
 11
185.5375457059
 21
24.1006658512
 31
0.0
 11
185.5292926006
 21
26.6075745637
 31
0.0
  0
SPLINE
  5
154
330
2
100
AcDbEntity
  8
0
  6
Continuous
 62
     7
100
AcDbSpline
210
0.0
220
0.0
230
1.0
 70
     8
 71
     3
 72
    10
 73
     6
 74
     4
 42
0.0000000001
 43
0.0000000001
 44
0.0000000001
 12
-0.0031850941678114
 22
-0.9999949275747063
 32
0.0
 13
-0.003831047760176
 23
-0.9999926615096029
 33
0.0
 40
0.0
 40
0.0
 40
0.0
 40
0.0
 40
2.506922296669769
 40
5.008064289426942
 40
7.503072135628993
 40
7.503072135628993
 40
7.503072135628993
 40
7.503072135628993
 10
183.0421359708
 20
26.607574562
 30
0.0
 10
183.0394743762712
 20
25.77193803516877
 30
0.0
 10
183.0339790487746
 20
24.10259230172121
 30
0.0
 10
183.0252088052581
 20
21.60158361630982
 30
0.0
 10
183.0190094815403
 20
19.93621185947031
 30
0.0
 10
183.0158233168
 20
19.1045486806
 30
0.0
 11
183.0421359708
 21
26.607574562
 31
0.0
 11
183.0338828656
 21
24.1006658505
 31
0.0
 11
183.0251115671
 21
21.5995392379
 31
0.0
 11
183.0158233168
 21
19.1045486806
 31
0.0
  0
SPLINE
  5
155
330
2
100
AcDbEntity
  8
0
  6
Continuous
 62
     7
100
AcDbSpline
210
0.0
220
0.0
230
1.0
 70
     8
 71
     3
 72
    10
 73
     6
 74
     4
 42
0.0000000001
 43
0.0000000001
 44
0.0000000001
 12
-0.0038310477598186
 22
0.9999926615096043
 32
0.0
 13
-0.0031850941675143
 23
0.9999949275747074
 33
0.0
 40
0.0
 40
0.0
 40
0.0
 40
0.0
 40
2.495007845802053
 40
4.996149838659225
 40
7.50307213642899
 40
7.50307213642899
 40
7.50307213642899
 40
7.50307213642899
 10
171.3456052528
 20
19.1045486816
 30
0.0
 10
171.3424190880605
 20
19.93621186033698
 30
0.0
 10
171.3362197643407
 20
21.60158361707649
 30
0.0
 10
171.327449520823
 20
24.10259230275454
 30
0.0
 10
171.3219541933296
 20
25.7719380366021
 30
0.0
 10
171.3192925988
 20
26.6075745638
 30
0.0
 11
171.3456052528
 21
19.1045486816
 31
0.0
 11
171.3363170025
 21
21.5995392385
 31
0.0
 11
171.327545704
 21
24.1006658512
 31
0.0
 11
171.3192925988
 21
26.6075745638
 31
0.0
  0
SPLINE
  5
156
330
2
100
AcDbEntity
  8
0
  6
Continuous
 62
     7
100
AcDbSpline
210
0.0
220
0.0
230
1.0
 70
     8
 71
     3
 72
    10
 73
     6
 74
     4
 42
0.0000000001
 43
0.0000000001
 44
0.0000000001
 12
-0.003185094167769
 22
-0.9999949275747065
 32
0.0
 13
-0.003831047760176
 23
-0.9999926615096029
 33
0.0
 40
0.0
 40
0.0
 40
0.0
 40
0.0
 40
2.50692229676977
 40
5.008064289526593
 40
7.503072135729016
 40
7.503072135729016
 40
7.503072135729016
 40
7.503072135729016
 10
168.8321359669
 20
26.6075745621
 30
0.0
 10
168.8294743723712
 20
25.77193803523543
 30
0.0
 10
168.8239790448213
 20
24.10259230175486
 30
0.0
 10
168.8152088015447
 20
21.60158361630927
 30
0.0
 10
168.8090094776403
 20
19.93621185947043
 30
0.0
 10
168.8058233129
 20
19.1045486806
 30
0.0
 11
168.8321359669
 21
26.6075745621
 31
0.0
 11
168.8238828617
 21
24.1006658505
 31
0.0
 11
168.8151115633
 21
21.5995392379
 31
0.0
 11
168.8058233129
 21
19.1045486806
 31
0.0
  0
SPLINE
  5
157
330
2
100
AcDbEntity
  8
0
  6
Continuous
 62
     7
100
AcDbSpline
210
0.0
220
0.0
230
1.0
 70
     8
 71
     3
 72
    10
 73
     6
 74
     4
 42
0.0000000001
 43
0.0000000001
 44
0.0000000001
 12
-0.0038310477469668
 22
0.9999926615096535
 32
0.0
 13
-0.003566938004869
 23
0.9999936384564001
 33
0.0
 40
0.0
 40
0.0
 40
0.0
 40
0.0
 40
1.014801218462514
 40
2.030653118662381
 40
3.046508597836088
 40
3.046508597836088
 40
3.046508597836088
 40
3.046508597836088
 10
155.460855252
 20
19.1045486816
 30
0.0
 10
155.4595593346928
 20
19.44281327205119
 30
0.0
 10
155.4569960537521
 20
20.11969279255417
 30
0.0
 10
155.4532399396461
 20
21.13518871314861
 30
0.0
 10
155.450794502472
 20
21.8124200921784
 30
0.0
 10
155.4495866713
 20
22.1510364311
 30
0.0
 11
155.460855252
 21
19.1045486816
 31
0.0
 11
155.4570122745
 21
20.1193426235
 31
0.0
 11
155.45325482
 21
21.1351875746
 31
0.0
 11
155.4495866713
 21
22.1510364311
 31
0.0
  0
SPLINE
  5
158
330
2
100
AcDbEntity
  8
0
  6
Continuous
 62
     7
100
AcDbSpline
210
0.0
220
0.0
230
1.0
 70
     8
 71
     3
 72
    10
 73
     6
 74
     4
 42
0.0000000001
 43
0.0000000001
 44
0.0000000001
 12
0.0031850941679812
 22
0.9999949275747058
 32
0.0
 13
0.0038310477604313
 23
0.9999926615096018
 33
0.0
 40
0.0
 40
0.0
 40
0.0
 40
0.0
 40
2.506922295269783
 40
5.008064286226968
 40
7.503072135228993
 40
7.503072135228993
 40
7.503072135228993
 40
7.503072135228993
 10
199.7392926045
 20
103.8618131925
 30
0.0
 10
199.7419541990274
 20
104.6974497188645
 30
0.0
 10
199.7474495265231
 20
106.3667954512455
 30
0.0
 10
199.7562197700542
 20
108.8678041365234
 30
0.0
 10
199.7624190937559
 20
110.5331758936964
 30
0.0
 10
199.7656052585
 20
111.3648390735
 30
0.0
 11
199.7392926045
 21
103.8618131925
 31
0.0
 11
199.7475457097
 21
106.3687219026
 31
0.0
 11
199.7563170082
 21
108.8698485134
 31
0.0
 11
199.7656052585
 21
111.3648390735
 31
0.0
  0
SPLINE
  5
159
330
2
100
AcDbEntity
  8
0
  6
Continuous
 62
     7
100
AcDbSpline
210
0.0
220
0.0
230
1.0
 70
     8
 71
     3
 72
     8
 73
     4
 74
     2
 42
0.0000000001
 43
0.0000000001
 44
0.0000000001
 12
0.7056474980128678
 22
0.7085630589779431
 32
0.0
 13
0.7056486989416169
 23
0.7085618629886903
 33
0.0
 40
0.0
 40
0.0
 40
0.0
 40
0.0
 40
0.0397176740227548
 40
0.0397176740227548
 40
0.0397176740227548
 40
0.0397176740227548
 10
158.6181787018
 20
29.8547159677
 30
0.0
 10
158.627520927567
 20
29.86409679323368
 30
0.0
 10
158.6368631612336
 20
29.87347761090029
 30
0.0
 10
158.6462054029
 20
29.8828584206
 30
0.0
 11
158.6181787018
 21
29.8547159677
 31
0.0
 11
158.6462054029
 21
29.8828584206
 31
0.0
  0
SPLINE
  5
15A
330
2
100
AcDbEntity
  8
0
  6
Continuous
 62
     7
100
AcDbSpline
210
0.0
220
0.0
230
1.0
 70
     8
 71
     3
 72
    10
 73
     6
 74
     4
 42
0.0000000001
 43
0.0000000001
 44
0.0000000001
 12
0.705648698368023
 22
0.7085618635599261
 32
0.0
 13
0.7058373566106618
 23
0.7083739309241084
 33
0.0
 40
0.0
 40
0.0
 40
0.0
 40
0.0
 40
2.071266055256411
 40
4.183456182545754
 40
6.296798290283818
 40
6.296798290283818
 40
6.296798290283818
 40
6.296798290283818
 10
158.6462054029
 20
29.8828584206
 30
0.0
 10
159.1334008015218
 20
30.37206513261363
 30
0.0
 10
160.1174612089842
 20
31.36010087843751
 30
0.0
 10
161.5987674449314
 20
32.84712831306648
 30
0.0
 10
162.59290269182
 20
33.84492470311805
 30
0.0
 10
163.0901279608
 20
34.3439368552
 30
0.0
 11
158.6462054029
 21
29.8828584206
 31
0.0
 11
160.1078561815
 21
31.3504142366
 31
0.0
 11
161.5985187401
 21
32.8468340541
 31
0.0
 11
163.0901279608
 21
34.3439368552
 31
0.0
  0
SPLINE
  5
15B
330
2
100
AcDbEntity
  8
0
  6
Continuous
 62
     7
100
AcDbSpline
210
0.0
220
0.0
230
1.0
 70
     8
 71
     3
 72
    10
 73
     6
 74
     4
 42
0.0000000001
 43
0.0000000001
 44
0.0000000001
 12
-0.7695663892785482
 22
0.6385668112991611
 32
0.0
 13
-0.7667804676289532
 23
0.6419094285510411
 33
0.0
 40
0.0
 40
0.0
 40
0.0
 40
0.0
 40
0.8162669365506028
 40
1.632640530640946
 40
2.449119104456355
 40
2.449119104456355
 40
2.449119104456355
 40
2.449119104456355
 10
163.0901279648
 20
34.343936852
 30
0.0
 10
162.8807374317837
 20
34.51768384361402
 30
0.0
 10
162.4621779767695
 20
34.86550071474546
 30
0.0
 10
161.8350589327697
 20
35.38817370740165
 30
0.0
 10
161.4174560879464
 20
35.737248552686
 30
0.0
 10
161.2087694804
 20
35.9119503176
 30
0.0
 11
163.0901279648
 21
34.343936852
 31
0.0
 11
162.4623320831
 21
34.8656302894
 31
0.0
 11
161.8352117189
 21
35.3883021692
 31
0.0
 11
161.2087694804
 21
35.9119503176
 31
0.0
  0
SPLINE
  5
15C
330
2
100
AcDbEntity
  8
0
  6
Continuous
 62
     7
100
AcDbSpline
210
0.0
220
0.0
230
1.0
 70
     8
 71
     3
 72
    10
 73
     6
 74
     4
 42
0.0000000001
 43
0.0000000001
 44
0.0000000001
 12
-0.7083042354023812
 22
-0.7059072956918979
 32
0.0
 13
-0.708482906729627
 23
-0.7057279722895635
 33
0.0
 40
0.0
 40
0.0
 40
0.0
 40
0.0
 40
2.038927924968485
 40
4.076855800346068
 40
6.075023512876281
 40
6.075023512876281
 40
6.075023512876281
 40
6.075023512876281
 10
161.2087694836
 20
35.9119503149
 30
0.0
 10
160.7273757219549
 20
35.4321856156916
 30
0.0
 10
159.7647837826516
 20
34.47293219708104
 30
0.0
 10
158.3302803117883
 20
33.04364687096629
 30
0.0
 10
157.3771518159355
 20
32.09414511428614
 30
0.0
 10
156.9052625929
 20
31.6240908316
 30
0.0
 11
161.2087694836
 21
35.9119503149
 31
0.0
 11
159.7645272739
 21
34.4727173515
 31
0.0
 11
158.3208713416
 21
33.0343128276
 31
0.0
 11
156.9052625929
 21
31.6240908316
 31
0.0
  0
SPLINE
  5
15D
330
2
100
AcDbEntity
  8
0
  6
Continuous
 62
     7
100
AcDbSpline
210
0.0
220
0.0
230
1.0
 70
     8
 71
     3
 72
     8
 73
     4
 74
     2
 42
0.0000000001
 43
0.0000000001
 44
0.0000000001
 12
-0.70848290704201
 22
-0.7057279719759611
 32
0.0
 13
-0.7084840517198538
 23
-0.7057268228277991
 33
0.0
 40
0.0
 40
0.0
 40
0.0
 40
0.0
 40
0.0387126365657083
 40
0.0387126365657083
 40
0.0387126365657083
 40
0.0387126365657083
 10
156.9052625929
 20
31.6240908316
 30
0.0
 10
156.8961201791355
 20
31.61498396810221
 30
0.0
 10
156.8869777579356
 20
31.60587711206894
 30
0.0
 10
156.8778353294
 20
31.5967702634
 30
0.0
 11
156.9052625929
 21
31.6240908316
 31
0.0
 11
156.8778353294
 21
31.5967702634
 31
0.0
  0
SPLINE
  5
15E
330
2
100
AcDbEntity
  8
0
  6
Continuous
 62
     7
100
AcDbSpline
210
0.0
220
0.0
230
1.0
 70
     8
 71
     3
 72
    10
 73
     6
 74
     4
 42
0.0000000001
 43
0.0000000001
 44
0.0000000001
 12
0.0038310477599718
 22
-0.9999926615096036
 32
0.0
 13
0.0031850941675992
 23
-0.999994927574707
 33
0.0
 40
0.0
 40
0.0
 40
0.0
 40
0.0
 40
2.495007846302424
 40
4.996149839159238
 40
7.503072136129344
 40
7.503072136129344
 40
7.503072136129344
 40
7.503072136129344
 10
197.2258233186
 20
111.3648390745
 30
0.0
 10
197.2290094833402
 20
110.5331758955962
 30
0.0
 10
197.235208807258
 20
108.8678041386908
 30
0.0
 10
197.2439790504751
 20
106.3667954531115
 30
0.0
 10
197.2494743781711
 20
104.6974497195313
 30
0.0
 10
197.2521359727
 20
103.8618131926
 30
0.0
 11
197.2258233186
 21
111.3648390745
 31
0.0
 11
197.235111569
 21
108.8698485171
 31
0.0
 11
197.2438828674
 21
106.3687219044
 31
0.0
 11
197.2521359727
 21
103.8618131926
 31
0.0
  0
SPLINE
  5
15F
330
2
100
AcDbEntity
  8
0
  6
Continuous
 62
     7
100
AcDbSpline
210
0.0
220
0.0
230
1.0
 70
     8
 71
     3
 72
    10
 73
     6
 74
     4
 42
0.0000000001
 43
0.0000000001
 44
0.0000000001
 12
0.0031850941680237
 22
0.9999949275747056
 32
0.0
 13
0.0038310477604824
 23
0.9999926615096018
 33
0.0
 40
0.0
 40
0.0
 40
0.0
 40
0.0
 40
2.506922296870104
 40
5.008064289426929
 40
7.503072135128975
 40
7.503072135128975
 40
7.503072135128975
 40
7.503072135128975
 10
185.5292926006
 20
103.8618131926
 30
0.0
 10
185.5319541951291
 20
104.697449719498
 30
0.0
 10
185.5374495228111
 20
106.3667954529449
 30
0.0
 10
185.546219766088
 20
108.8678041381905
 30
0.0
 10
185.5524190898601
 20
110.5331758947963
 30
0.0
 10
185.5556052546
 20
111.3648390735
 30
0.0
 11
185.5292926006
 21
103.8618131926
 31
0.0
 11
185.5375457059
 21
106.3687219043
 31
0.0
 11
185.5463170043
 21
108.8698485167
 31
0.0
 11
185.5556052546
 21
111.3648390735
 31
0.0
  0
SPLINE
  5
160
330
2
100
AcDbEntity
  8
0
  6
Continuous
 62
     7
100
AcDbSpline
210
0.0
220
0.0
230
1.0
 70
     8
 71
     3
 72
    13
 73
     9
 74
     7
 42
0.0000000001
 43
0.0000000001
 44
0.0000000001
 12
-0.0030318606269163
 22
0.9999954039000073
 32
0.0
 13
0.0030318606282741
 23
0.9999954039000034
 33
0.0
 40
0.0
 40
0.0
 40
0.0
 40
0.0
 40
12.20737807765895
 40
24.49570725691805
 40
36.82457911155547
 40
49.15345096619287
 40
61.44178014535214
 40
73.64915821581085
 40
73.64915821581085
 40
73.64915821581085
 40
73.64915821581085
 10
147.7661531943
 20
28.4101689504
 30
0.0
 10
147.7538161713161
 20
32.47927627417622
 30
0.0
 10
147.7332834300893
 20
40.64448789157077
 30
0.0
 10
147.7148442782711
 20
52.91933571419363
 30
0.0
 10
147.7086910654197
 20
65.23469388119998
 30
0.0
 10
147.7148442782262
 20
77.55005204817315
 30
0.0
 10
147.733283430264
 20
89.82489986836228
 30
0.0
 10
147.7538161713179
 20
97.99011148332386
 30
0.0
 10
147.7661531943
 20
102.0592188047
 30
0.0
 11
147.7661531943
 21
28.4101689504
 31
0.0
 11
147.735404402
 21
40.6175083019
 31
0.0
 11
147.7169144771
 21
52.90582357049999
 31
0.0
 11
147.7107443871
 21
65.2346938812
 31
0.0
 11
147.7169144771
 21
77.5635641919
 31
0.0
 11
147.7354044021
 21
89.85187946039999
 31
0.0
 11
147.7661531943
 21
102.0592188047
 31
0.0
  0
SPLINE
  5
161
330
2
100
AcDbEntity
  8
0
  6
Continuous
 62
     7
100
AcDbSpline
210
0.0
220
0.0
230
1.0
 70
     8
 71
     3
 72
    10
 73
     6
 74
     4
 42
0.0000000001
 43
0.0000000001
 44
0.0000000001
 12
0.0038310477599207
 22
-0.9999926615096038
 32
0.0
 13
0.0031850941675992
 23
-0.999994927574707
 33
0.0
 40
0.0
 40
0.0
 40
0.0
 40
0.0
 40
2.495007846402053
 40
4.996149839159215
 40
7.503072136128992
 40
7.503072136128992
 40
7.503072136128992
 40
7.503072136128992
 10
183.0158233168
 20
111.3648390745
 30
0.0
 10
183.0190094815403
 20
110.533175895563
 30
0.0
 10
183.0252088052575
 20
108.8678041386568
 30
0.0
 10
183.0339790487754
 20
106.3667954530788
 30
0.0
 10
183.0394743762711
 20
104.6974497195312
 30
0.0
 10
183.0421359708
 20
103.8618131926
 30
0.0
 11
183.0158233168
 21
111.3648390745
 31
0.0
 11
183.0251115671
 21
108.869848517
 31
0.0
 11
183.0338828656
 21
106.3687219044
 31
0.0
 11
183.0421359708
 21
103.8618131926
 31
0.0
  0
SPLINE
  5
162
330
2
100
AcDbEntity
  8
0
  6
Continuous
 62
     7
100
AcDbSpline
210
0.0
220
0.0
230
1.0
 70
     8
 71
     3
 72
     8
 73
     4
 74
     2
 42
0.0000000001
 43
0.0000000001
 44
0.0000000001
 12
0.7084840522798175
 22
-0.7057268222656476
 32
0.0
 13
0.7084828994920646
 23
-0.7057279795553788
 33
0.0
 40
0.0
 40
0.0
 40
0.0
 40
0.0
 40
0.0389597529647001
 40
0.0389597529647001
 40
0.0389597529647001
 40
0.0389597529647001
 10
156.877835335
 20
98.87261748610001
 30
0.0
 10
156.8870361228854
 20
98.86345250521465
 30
0.0
 10
156.8962369032853
 20
98.85428751681459
 30
0.0
 10
156.9054376762
 20
98.84512252090001
 30
0.0
 11
156.877835335
 21
98.87261748610001
 31
0.0
 11
156.9054376762
 21
98.84512252090001
 31
0.0
  0
SPLINE
  5
163
330
2
100
AcDbEntity
  8
0
  6
Continuous
 62
     7
100
AcDbSpline
210
0.0
220
0.0
230
1.0
 70
     8
 71
     3
 72
    10
 73
     6
 74
     4
 42
0.0000000001
 43
0.0000000001
 44
0.0000000001
 12
0.7084828998377254
 22
-0.7057279792083687
 32
0.0
 13
0.7083042353970296
 23
-0.7059072956972675
 33
0.0
 40
0.0
 40
0.0
 40
0.0
 40
0.0
 40
1.997919898498737
 40
4.035848120005672
 40
6.074776391527773
 40
6.074776391527773
 40
6.074776391527773
 40
6.074776391527773
 10
156.9054376762
 20
98.84512252090001
 30
0.0
 10
157.3772683706439
 20
98.37512653003743
 30
0.0
 10
158.3303384214992
 20
97.42568298561669
 30
0.0
 10
159.7647835393689
 20
95.99645580043636
 30
0.0
 10
160.7273756422367
 20
95.03720221885695
 30
0.0
 10
161.2087694857
 20
94.5574374381
 30
0.0
 11
156.9054376762
 21
98.84512252090001
 31
0.0
 11
158.320870853
 21
97.4350754143
 31
0.0
 11
159.7645270305
 21
95.99667064610001
 31
0.0
 11
161.2087694857
 21
94.5574374381
 31
0.0
  0
SPLINE
  5
164
330
2
100
AcDbEntity
  8
0
  6
Continuous
 62
     7
100
AcDbSpline
210
0.0
220
0.0
230
1.0
 70
     8
 71
     3
 72
    10
 73
     6
 74
     4
 42
0.0000000001
 43
0.0000000001
 44
0.0000000001
 12
0.7667804676234321
 22
0.6419094285576361
 32
0.0
 13
0.7695663892636238
 23
0.638566811317147
 33
0.0
 40
0.0
 40
0.0
 40
0.0
 40
0.0
 40
0.8164785712547464
 40
1.632852163501376
 40
2.449119095007278
 40
2.449119095007278
 40
2.449119095007278
 40
2.449119095007278
 10
161.2087694837
 20
94.55743744020001
 30
0.0
 10
161.4174560905904
 20
94.73213920456791
 30
0.0
 10
161.8350589342291
 20
95.08121404898032
 30
0.0
 10
162.4621779758685
 20
95.6038870395491
 30
0.0
 10
162.8807374290819
 20
95.95170390925488
 30
0.0
 10
163.0901279608
 20
96.12545089980001
 30
0.0
 11
161.2087694837
 21
94.55743744020001
 31
0.0
 11
161.8352117202
 21
95.081085587
 31
0.0
 11
162.462332083
 21
95.6037574656
 31
0.0
 11
163.0901279608
 21
96.12545089980001
 31
0.0
  0
SPLINE
  5
165
330
2
100
AcDbEntity
  8
0
  6
Continuous
 62
     7
100
AcDbSpline
210
0.0
220
0.0
230
1.0
 70
     8
 71
     3
 72
    10
 73
     6
 74
     4
 42
0.0000000001
 43
0.0000000001
 44
0.0000000001
 12
-0.7058373566098815
 22
0.708373930924886
 32
0.0
 13
-0.7056487032901306
 23
0.7085618586580549
 33
0.0
 40
0.0
 40
0.0
 40
0.0
 40
0.0
 40
2.113342100808416
 40
4.225532220814727
 40
6.296635428963217
 40
6.296635428963217
 40
6.296635428963217
 40
6.296635428963217
 10
163.0901279634
 20
96.1254508973
 30
0.0
 10
162.592902696051
 20
96.62446304774624
 30
0.0
 10
161.5987674524881
 20
97.6222594344237
 30
0.0
 10
160.1174995293951
 20
99.10924840848631
 30
0.0
 10
159.1334774261367
 20
100.0972456883872
 30
0.0
 10
158.6463203284
 20
100.5864139346
 30
0.0
 11
163.0901279634
 21
96.1254508973
 31
0.0
 11
161.5985187476
 21
97.6225536935
 31
0.0
 11
160.1078561942
 21
99.11897350590001
 31
0.0
 11
158.6463203284
 21
100.5864139346
 31
0.0
  0
SPLINE
  5
166
330
2
100
AcDbEntity
  8
0
  6
Continuous
 62
     7
100
AcDbSpline
210
0.0
220
0.0
230
1.0
 70
     8
 71
     3
 72
     8
 73
     4
 74
     2
 42
0.0000000001
 43
0.0000000001
 44
0.0000000001
 12
-0.70564870336701
 22
0.7085618585814917
 32
0.0
 13
-0.7056474985509725
 23
0.7085630584420524
 33
0.0
 40
0.0
 40
0.0
 40
0.0
 40
0.0
 40
0.039880539090999
 40
0.039880539090999
 40
0.039880539090999
 40
0.039880539090999
 10
158.6463203284
 20
100.5864139346
 30
0.0
 10
158.6369397781669
 20
100.5958332108998
 30
0.0
 10
158.6275592359168
 20
100.6052524951497
 30
0.0
 10
158.6181787017
 20
100.6146717874
 30
0.0
 11
158.6463203284
 21
100.5864139346
 31
0.0
 11
158.6181787017
 21
100.6146717874
 31
0.0
  0
SPLINE
  5
167
330
2
100
AcDbEntity
  8
0
  6
Continuous
 62
     7
100
AcDbSpline
210
0.0
220
0.0
230
1.0
 70
     8
 71
     3
 72
    10
 73
     6
 74
     4
 42
0.0000000001
 43
0.0000000001
 44
0.0000000001
 12
0.0031850941680237
 22
0.9999949275747056
 32
0.0
 13
0.0038310477604313
 23
0.9999926615096018
 33
0.0
 40
0.0
 40
0.0
 40
0.0
 40
0.0
 40
2.506922296869775
 40
5.00806428942695
 40
7.503072135128996
 40
7.503072135128996
 40
7.503072135128996
 40
7.503072135128996
 10
171.3192925988
 20
103.8618131926
 30
0.0
 10
171.3219541933291
 20
104.6974497194979
 30
0.0
 10
171.3274495208245
 20
106.3667954529454
 30
0.0
 10
171.3362197643411
 20
108.8678041381901
 30
0.0
 10
171.3424190880601
 20
110.5331758947963
 30
0.0
 10
171.3456052528
 20
111.3648390735
 30
0.0
 11
171.3192925988
 21
103.8618131926
 31
0.0
 11
171.327545704
 21
106.3687219043
 31
0.0
 11
171.3363170025
 21
108.8698485167
 31
0.0
 11
171.3456052528
 21
111.3648390735
 31
0.0
  0
SPLINE
  5
168
330
2
100
AcDbEntity
  8
0
  6
Continuous
 62
     7
100
AcDbSpline
210
0.0
220
0.0
230
1.0
 70
     8
 71
     3
 72
    10
 73
     6
 74
     4
 42
0.0000000001
 43
0.0000000001
 44
0.0000000001
 12
0.0035669382002912
 22
0.9999936384557029
 32
0.0
 13
0.003831047778156
 23
0.9999926615095342
 33
0.0
 40
0.0
 40
0.0
 40
0.0
 40
0.0
 40
1.01592174933176
 40
2.031740480920949
 40
3.046508599151604
 40
3.046508599151604
 40
3.046508599151604
 40
3.046508599151604
 10
155.449586667
 20
108.3183513237
 30
0.0
 10
155.450794577032
 20
108.6569897525335
 30
0.0
 10
155.4532400621799
 20
109.3342321653113
 30
0.0
 10
155.4569961781598
 20
110.349728086337
 30
0.0
 10
155.4595593769517
 20
111.0265855173785
 30
0.0
 10
155.460855252
 20
111.3648390745
 30
0.0
 11
155.449586667
 21
108.3183513237
 31
0.0
 11
155.4532550622
 21
109.3342664499
 31
0.0
 11
155.4570123984
 21
110.3500782326
 31
0.0
 11
155.460855252
 21
111.3648390745
 31
0.0
  0
SPLINE
  5
169
330
2
100
AcDbEntity
  8
0
  6
Continuous
 62
     7
100
AcDbSpline
210
0.0
220
0.0
230
1.0
 70
     8
 71
     3
 72
    10
 73
     6
 74
     4
 42
0.0000000001
 43
0.0000000001
 44
0.0000000001
 12
0.0038310477599207
 22
-0.9999926615096038
 32
0.0
 13
0.0031850941675567
 23
-0.999994927574707
 33
0.0
 40
0.0
 40
0.0
 40
0.0
 40
0.0
 40
2.495007846402425
 40
4.996149839159238
 40
7.503072136229345
 40
7.503072136229345
 40
7.503072136229345
 40
7.503072136229345
 10
168.8058233129
 20
111.3648390745
 30
0.0
 10
168.8090094776403
 20
110.5331758955629
 30
0.0
 10
168.8152088015574
 20
108.8678041386574
 30
0.0
 10
168.8239790447755
 20
106.3667954530449
 30
0.0
 10
168.829474372471
 20
104.6974497194646
 30
0.0
 10
168.832135967
 20
103.8618131925
 30
0.0
 11
168.8058233129
 21
111.3648390745
 31
0.0
 11
168.8151115633
 21
108.869848517
 31
0.0
 11
168.8238828617
 21
106.3687219044
 31
0.0
 11
168.832135967
 21
103.8618131925
 31
0.0
  0
ENDSEC
  0
SECTION
  2
OBJECTS
  0
DICTIONARY
  5
A
330
0
100
AcDbDictionary
281
     1
  3
ACAD_COLOR
350
23
  3
ACAD_GROUP
350
1E
  3
ACAD_LAYOUT
350
9
  3
ACAD_MATERIAL
350
22
  3
ACAD_MLINESTYLE
350
1F
  3
ACAD_PLOTSETTINGS
350
20
  3
ACAD_PLOTSTYLENAME
350
21
  3
ACAD_TABLESTYLE
350
24
  3
ACDBHEADERROUNDTRIPXREC
350
179
  3
AcDbVariableDictionary
350
16E
  3
ASE_INDEX_DICTIONARY
350
16B
  0
DICTIONARY
  5
23
102
{ACAD_REACTORS
330
A
102
}
330
A
100
AcDbDictionary
281
     1
  0
DICTIONARY
  5
1E
102
{ACAD_REACTORS
330
A
102
}
330
A
100
AcDbDictionary
281
     1
  0
DICTIONARY
  5
9
102
{ACAD_REACTORS
330
A
102
}
330
A
100
AcDbDictionary
281
     1
  3
Layout1
350
E
  3
Model
350
8
  0
DICTIONARY
  5
22
102
{ACAD_REACTORS
330
A
102
}
330
A
100
AcDbDictionary
281
     1
  0
DICTIONARY
  5
1F
102
{ACAD_REACTORS
330
A
102
}
330
A
100
AcDbDictionary
281
     1
  3
Standard
350
25
  0
DICTIONARY
  5
20
102
{ACAD_REACTORS
330
A
102
}
330
A
100
AcDbDictionary
281
     1
  0
ACDBDICTIONARYWDFLT
  5
21
102
{ACAD_REACTORS
330
A
102
}
330
A
100
AcDbDictionary
281
     1
  3
Normal
350
5
100
AcDbDictionaryWithDefault
340
5
  0
DICTIONARY
  5
24
102
{ACAD_REACTORS
330
A
102
}
330
A
100
AcDbDictionary
281
     1
  3
Standard
350
26
  0
DICTIONARY
  5
179
102
{ACAD_REACTORS
330
A
102
}
330
A
100
AcDbDictionary
281
     1
  0
DICTIONARY
  5
16E
102
{ACAD_REACTORS
330
A
102
}
330
A
100
AcDbDictionary
281
     1
  3
CTABLESTYLE
350
16F
  3
DIMASSOC
350
176
  3
HIDETEXT
350
175
  3
PROJECTNAME
350
177
  0
DICTIONARY
  5
16B
102
{ACAD_REACTORS
330
A
102
}
330
A
100
AcDbDictionary
281
     1
  3
ASEBlockHierarchyIndexRecord
350
16D
1001
DCO15
1040
1572245393.794
  0
LAYOUT
  5
E
102
{ACAD_XDICTIONARY
360
17C
102
}
102
{ACAD_REACTORS
330
9
102
}
330
9
100
AcDbPlotSettings
  1

  2

  4

  6

 40
0.0
 41
0.0
 42
0.0
 43
0.0
 44
0.0
 45
0.0
 46
0.0
 47
0.0
 48
0.0
 49
0.0
140
0.0
141
0.0
142
1.0
143
1.0
 70
     0
 72
     0
 73
     0
 74
     0
  7

 75
     0
147
1.0
148
0.0
149
0.0
100
AcDbLayout
  1
Layout1
 70
     0
 71
     1
 10
0.0
 20
0.0
 11
12.0
 21
9.0
 12
0.0
 22
0.0
 32
0.0
 14
1.000000000000000E+20
 24
1.000000000000000E+20
 34
1.000000000000000E+20
 15
-1.000000000000000E+20
 25
-1.000000000000000E+20
 35
-1.000000000000000E+20
146
0.0
 13
0.0
 23
0.0
 33
0.0
 16
1.0
 26
0.0
 36
0.0
 17
0.0
 27
1.0
 37
0.0
 76
     0
330
B
  0
LAYOUT
  5
8
102
{ACAD_XDICTIONARY
360
17A
102
}
102
{ACAD_REACTORS
330
9
102
}
330
9
100
AcDbPlotSettings
  1

  2

  4

  6

 40
0.0
 41
0.0
 42
0.0
 43
0.0
 44
0.0
 45
0.0
 46
0.0
 47
0.0
 48
0.0
 49
0.0
140
0.0
141
0.0
142
1.0
143
1.0
 70
     0
 72
     0
 73
     0
 74
     0
  7

 75
     0
147
1.0
148
0.0
149
0.0
100
AcDbLayout
  1
Model
 70
     0
 71
     0
 10
0.0
 20
0.0
 11
0.0
 21
0.0
 12
0.0
 22
0.0
 32
0.0
 14
0.0
 24
0.0
 34
0.0
 15
0.0
 25
0.0
 35
0.0
146
0.0
 13
0.0
 23
0.0
 33
0.0
 16
0.0
 26
0.0
 36
0.0
 17
0.0
 27
0.0
 37
0.0
 76
     0
330
2
  0
MLINESTYLE
  5
25
102
{ACAD_REACTORS
330
1F
102
}
330
1F
100
AcDbMlineStyle
  2
STANDARD
 70
     0
  3

 62
   256
 51
90.0
 52
90.0
 71
     2
 49
0.5
 62
   256
  6
BYLAYER
 49
-0.5
 62
   256
  6
BYLAYER
  0
ACDBPLACEHOLDER
  5
5
102
{ACAD_REACTORS
330
21
102
}
330
0
  0
TABLESTYLE
  5
26
102
{ACAD_REACTORS
330
24
102
}
330
24
100
AcDbTableStyle
  3
Standard
 70
     0
 71
     0
 40
1.5
 41
1.5
280
     0
281
     0
  7
STANDARD
140
4.5
170
     2
 62
     0
 63
     7
283
     0
274
    -2
284
     1
 64
     0
275
    -2
285
     1
 65
     0
276
    -2
286
     1
 66
     0
277
    -2
287
     1
 67
     0
278
    -2
288
     1
 68
     0
279
    -2
289
     1
 69
     0
  7
STANDARD
140
6.0
170
     5
 62
     0
 63
     7
283
     0
274
    -2
284
     1
 64
     0
275
    -2
285
     1
 65
     0
276
    -2
286
     1
 66
     0
277
    -2
287
     1
 67
     0
278
    -2
288
     1
 68
     0
279
    -2
289
     1
 69
     0
  7
STANDARD
140
4.5
170
     5
 62
     0
 63
     7
283
     0
274
    -2
284
     1
 64
     0
275
    -2
285
     1
 65
     0
276
    -2
286
     1
 66
     0
277
    -2
287
     1
 67
     0
278
    -2
288
     1
 68
     0
279
    -2
289
     1
 69
     0
  0
DICTIONARYVAR
  5
16F
102
{ACAD_REACTORS
330
16E
102
}
330
16E
100
DictionaryVariables
280
     0
  1
STANDARD
  0
DICTIONARYVAR
  5
176
102
{ACAD_REACTORS
330
16E
102
}
330
16E
100
DictionaryVariables
280
     0
  1
1
  0
DICTIONARYVAR
  5
175
102
{ACAD_REACTORS
330
16E
102
}
330
16E
100
DictionaryVariables
280
     0
  1
1
  0
DICTIONARYVAR
  5
177
102
{ACAD_REACTORS
330
16E
102
}
330
16E
100
DictionaryVariables
280
     0
  1

  0
XRECORD
  5
16D
102
{ACAD_REACTORS
330
16B
102
}
330
16B
100
AcDbXrecord
280
     1
  0
DICTIONARY
  5
17C
330
E
100
AcDbDictionary
280
     1
281
     1
  3
ACAD_XREC_ROUNDTRIP
360
17D
  0
DICTIONARY
  5
17A
330
8
100
AcDbDictionary
280
     1
281
     1
  3
ACAD_XREC_ROUNDTRIP
360
17B
  0
XRECORD
  5
17D
102
{ACAD_REACTORS
330
17C
102
}
330
17C
100
AcDbXrecord
280
     1
102
SHADEPLOT
 70
     0
102
SHADEPLOTRESLEVEL
 70
     2
102
SHADEPLOTCUSTOMDPI
 70
   300
  0
XRECORD
  5
17B
102
{ACAD_REACTORS
330
17A
102
}
330
17A
100
AcDbXrecord
280
     1
102
SHADEPLOT
 70
     0
102
SHADEPLOTRESLEVEL
 70
     2
102
SHADEPLOTCUSTOMDPI
 70
   300
  0
ENDSEC
  0
EOF
